<svg width="30" height="11" viewBox="0 0 30 11" fill="none" xmlns="http://www.w3.org/2000/svg">
<path d="M7.71211 10.3905L6.7209 7.56726H2.79707L1.80586 10.3905H0.513867L4.15059 0.526245H5.36738L9.0041 10.3905H7.71211ZM4.7043 2.11902L3.15938 6.52136H6.35859L4.81367 2.11902H4.7043ZM16.0023 3.02136V10.3905H14.8813V9.23523H14.7719C14.585 9.64994 14.2979 9.96895 13.9105 10.1923C13.5232 10.411 13.0492 10.5204 12.4887 10.5204C11.6684 10.5204 11.044 10.2857 10.6156 9.81628C10.1872 9.34688 9.97305 8.6724 9.97305 7.79285V3.02136H11.1488V7.50574C11.1488 8.17566 11.281 8.66785 11.5453 8.9823C11.8096 9.2922 12.2335 9.44714 12.8168 9.44714C13.4594 9.44714 13.9538 9.26713 14.3002 8.9071C14.6511 8.54252 14.8266 8.03438 14.8266 7.38269V3.02136H16.0023ZM18.5094 1.11414H19.6852V3.02136H21.3258V4.00574H19.6852V8.17566C19.6852 8.6086 19.7717 8.92306 19.9449 9.11902C20.1181 9.31498 20.3961 9.41296 20.7789 9.41296C20.9475 9.41296 21.1298 9.40385 21.3258 9.38562V10.3768C21.066 10.4224 20.8359 10.4452 20.6354 10.4452C19.8743 10.4452 19.3297 10.2925 19.0016 9.98718C18.6734 9.68184 18.5094 9.17826 18.5094 8.47644V4.00574H17.3199V3.02136H18.5094V1.11414ZM28.3035 9.50183C27.6974 10.1809 26.8702 10.5204 25.8221 10.5204C24.7739 10.5204 23.9445 10.1809 23.3338 9.50183C22.7277 8.81824 22.4246 7.88627 22.4246 6.70593C22.4246 5.52104 22.7277 4.58907 23.3338 3.91003C23.9399 3.231 24.7693 2.89148 25.8221 2.89148C26.8748 2.89148 27.7042 3.231 28.3104 3.91003C28.9165 4.58907 29.2195 5.52104 29.2195 6.70593C29.2195 7.88627 28.9142 8.81824 28.3035 9.50183ZM24.2088 8.74304C24.587 9.22156 25.1248 9.46082 25.8221 9.46082C26.5193 9.46082 27.0571 9.22156 27.4354 8.74304C27.8136 8.25997 28.0027 7.58093 28.0027 6.70593C28.0027 5.83093 27.8136 5.15417 27.4354 4.67566C27.0571 4.19259 26.5193 3.95105 25.8221 3.95105C25.1248 3.95105 24.587 4.19259 24.2088 4.67566C23.8305 5.15417 23.6414 5.83093 23.6414 6.70593C23.6414 7.58093 23.8305 8.25997 24.2088 8.74304Z" fill="#F9F9F9"/>
</svg>
