<svg width="14" height="17" viewBox="0 0 14 17" fill="none" xmlns="http://www.w3.org/2000/svg">
<path fill-rule="evenodd" clip-rule="evenodd" d="M6.38972 0.182739L6.42183 0.18274H8.33669L8.36879 0.182739C9.18163 0.182732 9.83724 0.182726 10.3682 0.226103C10.9148 0.270765 11.3949 0.365125 11.8391 0.591465C12.5448 0.95099 13.1184 1.52467 13.478 2.23028C13.7043 2.67449 13.7987 3.15463 13.8433 3.70127C13.8867 4.23219 13.8867 4.88781 13.8867 5.70067V5.73274V15.7376C13.8867 16.0049 13.7444 16.2521 13.5131 16.3862C13.2819 16.5204 12.9967 16.5214 12.7646 16.3887L8.5948 14.006C7.97267 13.6505 7.80169 13.5627 7.63697 13.528C7.46703 13.4921 7.29149 13.4921 7.12154 13.528C6.95683 13.5627 6.78585 13.6505 6.16372 14.006L1.99393 16.3887C1.7618 16.5214 1.47662 16.5204 1.24538 16.3862C1.01415 16.2521 0.871827 16.0049 0.871827 15.7376V5.73274L0.871826 5.70064C0.871819 4.8878 0.871813 4.23218 0.91519 3.70127C0.959852 3.15464 1.05421 2.67449 1.28055 2.23028C1.64008 1.52467 2.21375 0.95099 2.91936 0.591465C3.36358 0.365125 3.84372 0.270765 4.39036 0.226103C4.92127 0.182726 5.57688 0.182732 6.38972 0.182739ZM4.51251 1.72112C4.05863 1.7582 3.79786 1.82734 3.60035 1.92798C3.17698 2.14369 2.83278 2.4879 2.61706 2.91126C2.51642 3.10878 2.44729 3.36954 2.41021 3.82342C2.37241 4.28605 2.37183 4.88029 2.37183 5.73274V14.4452L5.41951 12.7036C5.44886 12.6869 5.47783 12.6703 5.50645 12.6539C5.99959 12.3716 6.38711 12.1498 6.81229 12.0602C7.18616 11.9814 7.57235 11.9814 7.94622 12.0602C8.3714 12.1498 8.75893 12.3716 9.25206 12.6539C9.28068 12.6703 9.30965 12.6869 9.33901 12.7036L12.3867 14.4452V5.73274C12.3867 4.88029 12.3861 4.28605 12.3483 3.82342C12.3112 3.36954 12.2421 3.10878 12.1414 2.91126C11.9257 2.4879 11.5815 2.14369 11.1582 1.92798C10.9606 1.82734 10.6999 1.7582 10.246 1.72112C9.78337 1.68332 9.18914 1.68274 8.33669 1.68274H6.42183C5.56937 1.68274 4.97514 1.68332 4.51251 1.72112Z" fill="white"/>
</svg>
