<svg width="32" height="32" viewBox="0 0 32 32" fill="none" xmlns="http://www.w3.org/2000/svg">
<g filter="url(#filter0_d)">
<mask id="path-1-outside-1" maskUnits="userSpaceOnUse" x="1" y="1" width="30" height="30" fill="black">
<rect fill="white" x="1" y="1" width="30" height="30"/>
<path fill-rule="evenodd" clip-rule="evenodd" d="M16.25 2C24.1201 2 30.5 8.37994 30.5 16.25C30.5 24.1201 24.1201 30.5 16.25 30.5C8.37994 30.5 2 24.1201 2 16.25C2 8.37994 8.37994 2 16.25 2ZM16.25 3.5C9.20837 3.5 3.5 9.20837 3.5 16.25C3.5 23.2916 9.20837 29 16.25 29C23.2916 29 29 23.2916 29 16.25C29 9.20837 23.2916 3.5 16.25 3.5ZM16.7818 5.18674L16.6567 5.18C16.2841 5.18325 15.9395 5.39481 15.7704 5.73473L10.9548 15.4185L10.9089 15.526C10.7392 15.997 10.9458 16.5309 11.405 16.7592L15.728 18.705L14.8513 26.2132L14.8445 26.3298C14.8442 26.8305 15.2192 27.2629 15.7286 27.3224C16.1475 27.3713 16.5521 27.1521 16.7399 26.7745L21.5555 17.0918L21.6014 16.9844C21.7712 16.5134 21.5646 15.9795 21.1054 15.7511L16.782 13.805L17.6591 6.29596L17.6659 6.17935C17.6662 5.67867 17.2912 5.24621 16.7818 5.18674Z"/>
</mask>
<path fill-rule="evenodd" clip-rule="evenodd" d="M16.25 2C24.1201 2 30.5 8.37994 30.5 16.25C30.5 24.1201 24.1201 30.5 16.25 30.5C8.37994 30.5 2 24.1201 2 16.25C2 8.37994 8.37994 2 16.25 2ZM16.25 3.5C9.20837 3.5 3.5 9.20837 3.5 16.25C3.5 23.2916 9.20837 29 16.25 29C23.2916 29 29 23.2916 29 16.25C29 9.20837 23.2916 3.5 16.25 3.5ZM16.7818 5.18674L16.6567 5.18C16.2841 5.18325 15.9395 5.39481 15.7704 5.73473L10.9548 15.4185L10.9089 15.526C10.7392 15.997 10.9458 16.5309 11.405 16.7592L15.728 18.705L14.8513 26.2132L14.8445 26.3298C14.8442 26.8305 15.2192 27.2629 15.7286 27.3224C16.1475 27.3713 16.5521 27.1521 16.7399 26.7745L21.5555 17.0918L21.6014 16.9844C21.7712 16.5134 21.5646 15.9795 21.1054 15.7511L16.782 13.805L17.6591 6.29596L17.6659 6.17935C17.6662 5.67867 17.2912 5.24621 16.7818 5.18674Z" fill="black"/>
<path d="M16.6567 5.18L16.6675 4.9799L16.655 4.98001L16.6567 5.18ZM16.7818 5.18674L16.805 4.9877L16.7926 4.98703L16.7818 5.18674ZM15.7704 5.73473L15.9495 5.82378L15.9495 5.82378L15.7704 5.73473ZM10.9548 15.4185L10.7754 15.3293L10.7709 15.3399L10.9548 15.4185ZM10.9089 15.526L10.7247 15.4472L10.7208 15.4582L10.9089 15.526ZM11.405 16.7592L11.3158 16.9384L11.3229 16.9416L11.405 16.7592ZM15.728 18.705L15.9267 18.7282L15.9436 18.5827L15.8101 18.5226L15.728 18.705ZM14.8513 26.2132L14.6523 26.1899L14.6517 26.2015L14.8513 26.2132ZM14.8445 26.3298L14.6445 26.3181L14.6445 26.3297L14.8445 26.3298ZM15.7286 27.3224L15.7518 27.1238L15.7286 27.3224ZM16.7399 26.7745L16.919 26.8635L16.7399 26.7745ZM21.5555 17.0918L21.7349 17.181L21.7394 17.1704L21.5555 17.0918ZM21.6014 16.9844L21.7856 17.0631L21.7896 17.0522L21.6014 16.9844ZM21.1054 15.7511L21.1946 15.5719L21.1875 15.5688L21.1054 15.7511ZM16.782 13.805L16.5834 13.7818L16.5664 13.9272L16.6999 13.9873L16.782 13.805ZM17.6591 6.29596L17.8581 6.3192L17.8587 6.30768L17.6591 6.29596ZM17.6659 6.17935L17.8659 6.19108L17.8659 6.17947L17.6659 6.17935ZM30.7 16.25C30.7 8.26949 24.2305 1.8 16.25 1.8V2.2C24.0096 2.2 30.3 8.4904 30.3 16.25H30.7ZM16.25 30.7C24.2305 30.7 30.7 24.2305 30.7 16.25H30.3C30.3 24.0096 24.0096 30.3 16.25 30.3V30.7ZM1.8 16.25C1.8 24.2305 8.26949 30.7 16.25 30.7V30.3C8.4904 30.3 2.2 24.0096 2.2 16.25H1.8ZM16.25 1.8C8.26949 1.8 1.8 8.26949 1.8 16.25H2.2C2.2 8.4904 8.4904 2.2 16.25 2.2V1.8ZM3.7 16.25C3.7 9.31883 9.31883 3.7 16.25 3.7V3.3C9.09791 3.3 3.3 9.09791 3.3 16.25H3.7ZM16.25 28.8C9.31883 28.8 3.7 23.1812 3.7 16.25H3.3C3.3 23.4021 9.09791 29.2 16.25 29.2V28.8ZM28.8 16.25C28.8 23.1812 23.1812 28.8 16.25 28.8V29.2C23.4021 29.2 29.2 23.4021 29.2 16.25H28.8ZM16.25 3.7C23.1812 3.7 28.8 9.31883 28.8 16.25H29.2C29.2 9.09791 23.4021 3.3 16.25 3.3V3.7ZM16.646 5.37971L16.771 5.38645L16.7926 4.98703L16.6675 4.98029L16.646 5.37971ZM15.9495 5.82378C16.0847 5.55189 16.3604 5.38259 16.6585 5.37999L16.655 4.98001C16.2078 4.98391 15.7942 5.23773 15.5914 5.64567L15.9495 5.82378ZM11.1339 15.5076L15.9495 5.82378L15.5914 5.64567L10.7757 15.3295L11.1339 15.5076ZM11.0928 15.6045L11.1387 15.4971L10.7709 15.3399L10.725 15.4474L11.0928 15.6045ZM11.494 16.5801C11.1268 16.3975 10.9614 15.9704 11.0971 15.5938L10.7208 15.4582C10.517 16.0236 10.7647 16.6642 11.3159 16.9383L11.494 16.5801ZM15.8101 18.5226L11.487 16.5768L11.3229 16.9416L15.6459 18.8873L15.8101 18.5226ZM15.05 26.2364L15.9267 18.7282L15.5294 18.6818L14.6527 26.19L15.05 26.2364ZM15.0441 26.3415L15.051 26.2249L14.6517 26.2015L14.6448 26.3181L15.0441 26.3415ZM15.7518 27.1238C15.3444 27.0762 15.0442 26.7302 15.0445 26.3299L14.6445 26.3297C14.6441 26.9307 15.094 27.4497 15.7054 27.5211L15.7518 27.1238ZM16.5609 26.6854C16.4106 26.9875 16.0869 27.1629 15.7518 27.1238L15.7054 27.5211C16.2081 27.5798 16.6936 27.3167 16.919 26.8635L16.5609 26.6854ZM21.3764 17.0028L16.5609 26.6854L16.919 26.8635L21.7346 17.1809L21.3764 17.0028ZM21.4175 16.9058L21.3716 17.0132L21.7394 17.1704L21.7853 17.063L21.4175 16.9058ZM21.0164 15.9302C21.3836 16.1128 21.549 16.54 21.4133 16.9166L21.7896 17.0522C21.9933 16.4868 21.7456 15.8462 21.1945 15.5721L21.0164 15.9302ZM16.6999 13.9873L21.0233 15.9335L21.1875 15.5688L16.8641 13.6226L16.6999 13.9873ZM17.4604 6.27276L16.5834 13.7818L16.9806 13.8282L17.8577 6.31917L17.4604 6.27276ZM17.4663 6.16763L17.4594 6.28425L17.8587 6.30768L17.8656 6.19106L17.4663 6.16763ZM16.7586 5.38539C17.166 5.43295 17.4662 5.77889 17.4659 6.17923L17.8659 6.17947C17.8663 5.57844 17.4164 5.05947 16.805 4.98809L16.7586 5.38539Z" fill="black" fill-opacity="0.2" mask="url(#path-1-outside-1)"/>
</g>
<defs>
<filter id="filter0_d" x="0.800049" y="0.799988" width="30.9" height="30.9" filterUnits="userSpaceOnUse" color-interpolation-filters="sRGB">
<feFlood flood-opacity="0" result="BackgroundImageFix"/>
<feColorMatrix in="SourceAlpha" type="matrix" values="0 0 0 0 0 0 0 0 0 0 0 0 0 0 0 0 0 0 127 0"/>
<feOffset/>
<feGaussianBlur stdDeviation="0.5"/>
<feColorMatrix type="matrix" values="0 0 0 0 0.14902 0 0 0 0 0.14902 0 0 0 0 0.14902 0 0 0 0.4 0"/>
<feBlend mode="normal" in2="BackgroundImageFix" result="effect1_dropShadow"/>
<feBlend mode="normal" in="SourceGraphic" in2="effect1_dropShadow" result="shape"/>
</filter>
</defs>
</svg>
