<svg width="25" height="22" viewBox="0 0 25 22" fill="none" xmlns="http://www.w3.org/2000/svg">
<mask id="path-1-inside-1" fill="white">
<path d="M12.5004 5.99992C9.34961 5.99992 6.78613 8.5634 6.78613 11.7142C6.78613 14.865 9.34965 17.4285 12.5004 17.4285C15.6512 17.4285 18.2147 14.865 18.2147 11.7142C18.2147 8.5634 15.6513 5.99992 12.5004 5.99992ZM12.5004 15.9999C10.1371 15.9999 8.21473 14.0775 8.21473 11.7142C8.21473 9.35093 10.1371 7.42852 12.5004 7.42852C14.8637 7.42852 16.7861 9.35093 16.7861 11.7142C16.7861 14.0775 14.8637 15.9999 12.5004 15.9999Z"/>
</mask>
<path d="M12.5004 5.99992C9.34961 5.99992 6.78613 8.5634 6.78613 11.7142C6.78613 14.865 9.34965 17.4285 12.5004 17.4285C15.6512 17.4285 18.2147 14.865 18.2147 11.7142C18.2147 8.5634 15.6513 5.99992 12.5004 5.99992ZM12.5004 15.9999C10.1371 15.9999 8.21473 14.0775 8.21473 11.7142C8.21473 9.35093 10.1371 7.42852 12.5004 7.42852C14.8637 7.42852 16.7861 9.35093 16.7861 11.7142C16.7861 14.0775 14.8637 15.9999 12.5004 15.9999Z" fill="white"/>
<path d="M12.5004 4.49992C8.52118 4.49992 5.28613 7.73497 5.28613 11.7142H8.28613C8.28613 9.39183 10.178 7.49992 12.5004 7.49992V4.49992ZM5.28613 11.7142C5.28613 15.6935 8.52124 18.9285 12.5004 18.9285V15.9285C10.1781 15.9285 8.28613 14.0366 8.28613 11.7142H5.28613ZM12.5004 18.9285C16.4796 18.9285 19.7147 15.6935 19.7147 11.7142H16.7147C16.7147 14.0366 14.8228 15.9285 12.5004 15.9285V18.9285ZM19.7147 11.7142C19.7147 7.73497 16.4797 4.49992 12.5004 4.49992V7.49992C14.8228 7.49992 16.7147 9.39183 16.7147 11.7142H19.7147ZM12.5004 14.4999C10.9656 14.4999 9.71473 13.2491 9.71473 11.7142H6.71473C6.71473 14.9059 9.30871 17.4999 12.5004 17.4999V14.4999ZM9.71473 11.7142C9.71473 10.1794 10.9656 8.92852 12.5004 8.92852V5.92852C9.30871 5.92852 6.71473 8.5225 6.71473 11.7142H9.71473ZM12.5004 8.92852C14.0353 8.92852 15.2861 10.1794 15.2861 11.7142H18.2861C18.2861 8.5225 15.6922 5.92852 12.5004 5.92852V8.92852ZM15.2861 11.7142C15.2861 13.2491 14.0353 14.4999 12.5004 14.4999V17.4999C15.6922 17.4999 18.2861 14.9059 18.2861 11.7142H15.2861Z" fill="white" mask="url(#path-1-inside-1)"/>
<path d="M23.9205 5.99612C23.9198 4.81627 22.9579 3.85612 21.7777 3.85612H18.6478L17.4159 1.39465C17.2945 1.15269 17.0476 1 16.777 1H8.20555C7.9349 1 7.68727 1.15269 7.56659 1.39465L6.33611 3.85682L3.21116 3.86099C2.0316 3.86309 1.07178 4.82399 1.07178 6.00314V18.8579C1.07178 20.0391 2.033 21 3.21463 21H21.7853C22.967 21 23.9282 20.0384 23.9282 18.8565L23.9205 5.99612ZM21.7854 19.5719H3.21467C2.82058 19.5719 2.50038 19.2518 2.50038 18.8579V6.00309C2.50038 5.60979 2.82053 5.28977 3.21327 5.28907L6.7791 5.2842C7.04976 5.2835 7.29668 5.13082 7.41736 4.88955L8.64714 2.42804H16.3355L17.5673 4.8895C17.6887 5.13147 17.9356 5.28416 18.2063 5.28416H21.7777C22.1712 5.28416 22.5004 5.60422 22.5004 5.99747V18.8572C22.5004 19.2511 22.1795 19.5719 21.7854 19.5719Z" fill="white" stroke="white" stroke-width="1.5"/>
</svg>
