<svg width="12" height="9" viewBox="0 0 12 9" fill="none" xmlns="http://www.w3.org/2000/svg">
<path d="M4.45624 8.49735C4.36612 8.49706 4.27702 8.47824 4.19448 8.44206C4.11194 8.40588 4.03772 8.35311 3.97644 8.28703L0.782133 4.88897C0.662726 4.76172 0.598759 4.59225 0.604306 4.41783C0.609853 4.24342 0.684458 4.07835 0.81171 3.95894C0.938961 3.83954 1.10844 3.77557 1.28285 3.78112C1.45726 3.78666 1.62233 3.86127 1.74174 3.98852L4.44967 6.87391L9.97726 0.827082C10.0334 0.757229 10.1031 0.699582 10.1823 0.657681C10.2615 0.615779 10.3484 0.590509 10.4377 0.58342C10.527 0.576332 10.6168 0.587576 10.7017 0.616462C10.7865 0.645348 10.8645 0.691266 10.9309 0.751395C10.9973 0.811524 11.0507 0.884596 11.0878 0.966121C11.125 1.04765 11.1451 1.1359 11.1469 1.22547C11.1487 1.31504 11.1321 1.40404 11.0983 1.48698C11.0644 1.56993 11.014 1.64508 10.95 1.70782L4.94261 8.28045C4.88191 8.34773 4.80795 8.40172 4.72538 8.43905C4.64281 8.47638 4.55342 8.49623 4.46281 8.49735H4.45624Z" fill="white"/>
</svg>
