<svg width="14" height="13" viewBox="0 0 14 13" fill="none" xmlns="http://www.w3.org/2000/svg">
<path d="M1.09934 0.705222L1.1484 0.648397C1.32827 0.468522 1.60975 0.45217 1.80809 0.59934L1.86492 0.648397L6.99951 5.78343L12.1351 0.648397C12.3329 0.450534 12.6537 0.450534 12.8516 0.648397C13.0495 0.846259 13.0495 1.16706 12.8516 1.36492L7.71626 6.49951L12.8516 11.6351C13.0315 11.815 13.0478 12.0964 12.9007 12.2948L12.8516 12.3516C12.6717 12.5315 12.3903 12.5478 12.1919 12.4007L12.1351 12.3516L6.99951 7.21626L1.86492 12.3516C1.66706 12.5495 1.34626 12.5495 1.1484 12.3516C0.950534 12.1537 0.950534 11.8329 1.1484 11.6351L6.28343 6.49951L1.1484 1.36492C0.968522 1.18504 0.95217 0.90357 1.09934 0.705222L1.1484 0.648397L1.09934 0.705222Z" fill="white"/>
<path d="M1.02364 0.639876L1.02344 0.639697L1.01903 0.645635C0.84276 0.883205 0.862246 1.22019 1.07769 1.43563L1.07769 1.43563L6.14201 6.49951L1.07769 11.5644C1.07768 11.5644 1.07768 11.5644 1.07768 11.5644C0.840771 11.8013 0.840773 12.1854 1.07769 12.4223C1.3146 12.6592 1.69872 12.6592 1.93563 12.4223L1.86492 12.3516L1.93564 12.4223L6.99951 7.35769L12.0644 12.4223L12.0642 12.4225L12.0697 12.4273L12.1266 12.4764L12.1264 12.4766L12.1323 12.481C12.3699 12.6572 12.7069 12.6378 12.9223 12.4223L12.9225 12.4225L12.9273 12.4169L12.9764 12.3601L12.9766 12.3603L12.981 12.3544C13.1572 12.1168 13.1378 11.7798 12.9223 11.5644L7.85769 6.49951L12.9223 1.43564L12.8516 1.36492L12.9223 1.43563C13.1592 1.19872 13.1592 0.814601 12.9223 0.577686C12.6854 0.340773 12.3013 0.340771 12.0644 0.577682C12.0644 0.577684 12.0644 0.577685 12.0644 0.577686L6.99951 5.64201L1.93563 0.577689L1.93582 0.577499L1.93027 0.572701L1.87344 0.523645L1.87362 0.523438L1.86768 0.519032C1.63011 0.34276 1.29313 0.362246 1.07769 0.577686L1.0775 0.577496L1.0727 0.58305L1.02364 0.639876Z" stroke="black" stroke-opacity="0.2" stroke-width="0.2"/>
</svg>
