<svg width="18" height="18" viewBox="0 0 18 18" fill="none" xmlns="http://www.w3.org/2000/svg">
<mask id="path-1-outside-1" maskUnits="userSpaceOnUse" x="0" y="-0.218506" width="18" height="18" fill="black">
<rect fill="white" y="-0.218506" width="18" height="18"/>
<path fill-rule="evenodd" clip-rule="evenodd" d="M16.0742 4.48048C16.9763 4.86539 17.6067 5.74414 17.6067 6.76661V12.0036C17.6067 14.7581 15.319 16.9912 12.497 16.9912H7.13173C6.08422 16.9912 5.18395 16.3758 4.78962 15.4953L11.986 15.4949C14.1752 15.4949 15.9625 13.8151 16.0688 11.704L16.0738 11.5048L16.0742 4.48048ZM11.475 0.781494C12.886 0.781494 14.0298 1.898 14.0298 3.27529V11.0061C14.0298 12.3833 12.886 13.4999 11.475 13.4999H3.55487C2.14385 13.4999 1 12.3833 1 11.0061V3.27529C1 1.898 2.14385 0.781494 3.55487 0.781494H11.475Z"/>
</mask>
<path fill-rule="evenodd" clip-rule="evenodd" d="M16.0742 4.48048C16.9763 4.86539 17.6067 5.74414 17.6067 6.76661V12.0036C17.6067 14.7581 15.319 16.9912 12.497 16.9912H7.13173C6.08422 16.9912 5.18395 16.3758 4.78962 15.4953L11.986 15.4949C14.1752 15.4949 15.9625 13.8151 16.0688 11.704L16.0738 11.5048L16.0742 4.48048ZM11.475 0.781494C12.886 0.781494 14.0298 1.898 14.0298 3.27529V11.0061C14.0298 12.3833 12.886 13.4999 11.475 13.4999H3.55487C2.14385 13.4999 1 12.3833 1 11.0061V3.27529C1 1.898 2.14385 0.781494 3.55487 0.781494H11.475Z" fill="white"/>
<path d="M16.0742 4.48048L16.1527 4.29653L15.8742 4.17771L15.8742 4.48047L16.0742 4.48048ZM4.78962 15.4953L4.78961 15.2953L4.48092 15.2953L4.60709 15.577L4.78962 15.4953ZM11.986 15.4949V15.2949H11.986L11.986 15.4949ZM16.0688 11.704L16.2686 11.714L16.2687 11.709L16.0688 11.704ZM16.0738 11.5048L16.2738 11.5098V11.5048L16.0738 11.5048ZM15.9957 4.66444C16.8288 5.0199 17.4067 5.82924 17.4067 6.76661H17.8067C17.8067 5.65904 17.1238 4.71088 16.1527 4.29653L15.9957 4.66444ZM17.4067 6.76661V12.0036H17.8067V6.76661H17.4067ZM17.4067 12.0036C17.4067 14.6432 15.2131 16.7912 12.497 16.7912V17.1912C15.4249 17.1912 17.8067 14.8731 17.8067 12.0036H17.4067ZM12.497 16.7912H7.13173V17.1912H12.497V16.7912ZM7.13173 16.7912C6.16378 16.7912 5.33457 16.2228 4.97215 15.4135L4.60709 15.577C5.03334 16.5289 6.00466 17.1912 7.13173 17.1912V16.7912ZM4.78963 15.6953L11.986 15.6949L11.986 15.2949L4.78961 15.2953L4.78963 15.6953ZM11.986 15.6949C14.278 15.6949 16.1567 13.9352 16.2685 11.714L15.869 11.6939C15.7683 13.695 14.0724 15.2949 11.986 15.2949V15.6949ZM16.2687 11.709L16.2737 11.5098L15.8738 11.4998L15.8688 11.6989L16.2687 11.709ZM16.2738 11.5048L16.2742 4.48049L15.8742 4.48047L15.8738 11.5048L16.2738 11.5048ZM11.475 0.981494C12.7801 0.981494 13.8298 2.013 13.8298 3.27529H14.2298C14.2298 1.78301 12.9918 0.581494 11.475 0.581494V0.981494ZM13.8298 3.27529V11.0061H14.2298V3.27529H13.8298ZM13.8298 11.0061C13.8298 12.2684 12.7801 13.2999 11.475 13.2999V13.6999C12.9918 13.6999 14.2298 12.4983 14.2298 11.0061H13.8298ZM11.475 13.2999H3.55487V13.6999H11.475V13.2999ZM3.55487 13.2999C2.24972 13.2999 1.2 12.2684 1.2 11.0061H0.8C0.8 12.4983 2.03799 13.6999 3.55487 13.6999V13.2999ZM1.2 11.0061V3.27529H0.8V11.0061H1.2ZM1.2 3.27529C1.2 2.013 2.24972 0.981494 3.55487 0.981494V0.581494C2.03799 0.581494 0.8 1.78301 0.8 3.27529H1.2ZM3.55487 0.981494H11.475V0.581494H3.55487V0.981494Z" fill="black" fill-opacity="0.2" mask="url(#path-1-outside-1)"/>
</svg>

