<svg width="22" height="19" viewBox="0 0 22 19" fill="none" xmlns="http://www.w3.org/2000/svg">
<path fill-rule="evenodd" clip-rule="evenodd" d="M9.30694 3.69422C7.75004 2.10193 5.18806 2.10193 3.63115 3.69422C2.12295 5.23669 2.12295 7.70139 3.63115 9.24387L10.7303 16.5044C10.8064 16.5822 10.9317 16.5822 11.0078 16.5044L18.1069 9.24387C19.6151 7.70139 19.6151 5.23669 18.1069 3.69422C16.55 2.10193 13.9881 2.10193 12.4312 3.69422L11.4053 4.74338C11.2642 4.88769 11.0709 4.96904 10.869 4.96904C10.6672 4.96904 10.4739 4.88769 10.3328 4.74338L9.30694 3.69422ZM2.55864 2.64554C4.70394 0.451487 8.23415 0.451487 10.3794 2.64554L10.869 3.14626L11.3586 2.64554C13.5039 0.451489 17.0342 0.451487 19.1794 2.64554C21.2576 4.77096 21.2576 8.16713 19.1794 10.2925L12.0803 17.5531C11.4158 18.2327 10.3223 18.2327 9.65781 17.5531L2.55864 10.2925C0.480451 8.16713 0.480455 4.77096 2.55864 2.64554Z" fill="white"/>
<path d="M3.63115 3.69422L4.16741 4.21855L3.63115 3.69422ZM9.30694 3.69422L8.77068 4.21855V4.21855L9.30694 3.69422ZM3.63115 9.24387L3.09489 9.76821H3.09489L3.63115 9.24387ZM10.7303 16.5044L11.2666 15.98L11.2666 15.98L10.7303 16.5044ZM11.0078 16.5044L10.4715 15.98L10.4715 15.9801L11.0078 16.5044ZM18.1069 9.24387L18.6432 9.76821V9.76821L18.1069 9.24387ZM18.1069 3.69422L18.6432 3.16988V3.16988L18.1069 3.69422ZM12.4312 3.69422L12.9674 4.21855V4.21855L12.4312 3.69422ZM11.4053 4.74338L10.869 4.21904L10.869 4.21904L11.4053 4.74338ZM10.3328 4.74338L10.869 4.21904L10.869 4.21904L10.3328 4.74338ZM10.3794 2.64554L10.9157 2.1212V2.1212L10.3794 2.64554ZM2.55864 2.64554L2.02239 2.1212L2.55864 2.64554ZM10.869 3.14626L10.3328 3.6706L10.869 4.21904L11.4053 3.6706L10.869 3.14626ZM11.3586 2.64554L10.8224 2.1212L11.3586 2.64554ZM19.1794 2.64554L19.7157 2.1212V2.1212L19.1794 2.64554ZM19.1794 10.2925L19.7157 10.8169L19.1794 10.2925ZM12.0803 17.5531L11.544 17.0287H11.544L12.0803 17.5531ZM9.65781 17.5531L10.1941 17.0287L9.65781 17.5531ZM2.55864 10.2925L2.02238 10.8169H2.02238L2.55864 10.2925ZM4.16741 4.21855C5.43011 2.92715 7.50798 2.92715 8.77068 4.21855L9.84319 3.16988C7.99209 1.27671 4.946 1.27671 3.0949 3.16988L4.16741 4.21855ZM4.1674 8.71953C2.9442 7.46852 2.9442 5.46956 4.16741 4.21855L3.0949 3.16988C1.3017 5.00383 1.3017 7.93426 3.09489 9.76821L4.1674 8.71953ZM11.2666 15.98L4.1674 8.71953L3.09489 9.76821L10.1941 17.0287L11.2666 15.98ZM10.4715 15.9801C10.6896 15.757 11.0485 15.757 11.2666 15.98L10.1941 17.0287C10.5644 17.4074 11.1737 17.4074 11.544 17.0287L10.4715 15.9801ZM17.5707 8.71953L10.4715 15.98L11.544 17.0287L18.6432 9.76821L17.5707 8.71953ZM17.5707 4.21855C18.7939 5.46956 18.7939 7.46853 17.5707 8.71953L18.6432 9.76821C20.4364 7.93426 20.4364 5.00383 18.6432 3.16988L17.5707 4.21855ZM12.9674 4.21855C14.2301 2.92715 16.308 2.92715 17.5707 4.21855L18.6432 3.16988C16.7921 1.27671 13.746 1.27671 11.8949 3.16988L12.9674 4.21855ZM11.9416 5.26772L12.9674 4.21855L11.8949 3.16988L10.869 4.21904L11.9416 5.26772ZM10.869 5.71904C11.2727 5.71904 11.6593 5.55635 11.9416 5.26772L10.869 4.21904L10.869 4.21904V5.71904ZM9.79653 5.26772C10.0787 5.55635 10.4654 5.71904 10.869 5.71904V4.21904L10.869 4.21904L9.79653 5.26772ZM8.77068 4.21855L9.79654 5.26772L10.869 4.21904L9.84319 3.16988L8.77068 4.21855ZM10.9157 2.1212C8.47621 -0.373733 4.46188 -0.373734 2.02239 2.1212L3.0949 3.16988C4.946 1.27671 7.99209 1.27671 9.84319 3.16988L10.9157 2.1212ZM11.4053 2.62193L10.9157 2.1212L9.84319 3.16988L10.3328 3.6706L11.4053 2.62193ZM10.8224 2.1212L10.3328 2.62192L11.4053 3.6706L11.8949 3.16988L10.8224 2.1212ZM19.7157 2.1212C17.2762 -0.373734 13.2619 -0.373731 10.8224 2.1212L11.8949 3.16988C13.746 1.27671 16.7921 1.27671 18.6432 3.16988L19.7157 2.1212ZM19.7157 10.8169C22.0789 8.4 22.0789 4.53809 19.7157 2.1212L18.6432 3.16988C20.4364 5.00383 20.4364 7.93426 18.6432 9.76821L19.7157 10.8169ZM12.6165 18.0774L19.7157 10.8169L18.6432 9.76821L11.544 17.0287L12.6165 18.0774ZM9.12156 18.0774C10.0802 19.0579 11.6578 19.0579 12.6165 18.0774L11.544 17.0287C11.1737 17.4074 10.5644 17.4074 10.1941 17.0287L9.12156 18.0774ZM2.02238 10.8169L9.12156 18.0774L10.1941 17.0287L3.09489 9.76821L2.02238 10.8169ZM2.02239 2.1212C-0.340793 4.53809 -0.340798 8.39999 2.02238 10.8169L3.09489 9.76821C1.3017 7.93426 1.3017 5.00383 3.0949 3.16988L2.02239 2.1212Z" fill="white"/>
</svg>
