<svg width="20" height="18" viewBox="0 0 20 18" fill="none" xmlns="http://www.w3.org/2000/svg">
<path d="M17.9298 2.59726C17.4815 2.14881 16.9493 1.79308 16.3636 1.55037C15.7778 1.30766 15.15 1.18274 14.516 1.18274C13.8819 1.18274 13.2541 1.30766 12.6683 1.55037C12.0826 1.79308 11.5504 2.14881 11.1022 2.59726L10.1719 3.5275L9.24167 2.59726C8.33627 1.69186 7.10829 1.18321 5.82786 1.18321C4.54743 1.18321 3.31945 1.69186 2.41405 2.59726C1.50865 3.50265 1 4.73064 1 6.01107C1 7.29149 1.50865 8.51948 2.41405 9.42488L3.34429 10.3551L10.1719 17.1827L16.9995 10.3551L17.9298 9.42488C18.3782 8.97664 18.734 8.44445 18.9767 7.8587C19.2194 7.27294 19.3443 6.64511 19.3443 6.01107C19.3443 5.37702 19.2194 4.74919 18.9767 4.16344C18.734 3.57768 18.3782 3.04549 17.9298 2.59726V2.59726Z" stroke="white" stroke-linecap="round" stroke-linejoin="round"/>
</svg>

