<svg width="24" height="22" viewBox="0 0 24 22" fill="none" xmlns="http://www.w3.org/2000/svg">
<path fill-rule="evenodd" clip-rule="evenodd" d="M11.3637 2.56118C11.6148 2.47961 11.8852 2.47961 12.1363 2.56118C12.2329 2.59259 12.3596 2.66005 12.5792 2.84648C12.8056 3.03861 13.0776 3.30988 13.4824 3.71464L18 8.23223V15.1216C18 15.974 17.9994 16.5683 17.9616 17.0309C17.9245 17.4848 17.8554 17.7455 17.7548 17.9431C17.539 18.3664 17.1948 18.7106 16.7715 18.9263C16.574 19.027 16.3132 19.0961 15.8593 19.1332C15.3967 19.171 14.8025 19.1716 13.95 19.1716H9.55C8.69755 19.1716 8.10331 19.171 7.64068 19.1332C7.1868 19.0961 6.92604 19.027 6.72852 18.9263C6.30516 18.7106 5.96095 18.3664 5.74524 17.9431C5.6446 17.7455 5.57546 17.4848 5.53838 17.0309C5.50058 16.5683 5.5 15.974 5.5 15.1216V8.23223L10.0176 3.71464C10.4224 3.30988 10.6945 3.03861 10.9208 2.84648C11.1404 2.66005 11.2671 2.59259 11.3637 2.56118ZM4.21914 7.39177L1.21967 10.3912C0.926777 10.6841 0.926777 11.159 1.21967 11.4519C1.51256 11.7448 1.98744 11.7448 2.28033 11.4519L4 9.73223V15.1216L4 15.1537C3.99999 15.9665 3.99999 16.6221 4.04336 17.153C4.08803 17.6997 4.18238 18.1798 4.40873 18.624C4.76825 19.3296 5.34193 19.9033 6.04754 20.2628C6.49175 20.4892 6.9719 20.5835 7.51853 20.6282C8.04944 20.6716 8.70505 20.6716 9.51788 20.6716H9.55H13.95H13.9821C14.795 20.6716 15.4506 20.6716 15.9815 20.6282C16.5281 20.5835 17.0082 20.4892 17.4525 20.2628C18.1581 19.9033 18.7318 19.3296 19.0913 18.624C19.3176 18.1798 19.412 17.6997 19.4566 17.153C19.5 16.6221 19.5 15.9665 19.5 15.1537V15.1216V9.73223L21.2197 11.4519C21.5126 11.7448 21.9874 11.7448 22.2803 11.4519C22.5732 11.159 22.5732 10.6841 22.2803 10.3912L14.5431 2.65398L14.5215 2.63246C14.1439 2.25475 13.8286 1.93948 13.55 1.70297C13.2594 1.4563 12.9598 1.25156 12.5998 1.13459C12.0475 0.955135 11.4525 0.955135 10.9002 1.13459C10.5402 1.25156 10.2406 1.4563 9.95 1.70297C9.6714 1.93948 9.35615 2.25475 8.97846 2.63245L8.97845 2.63246L8.95693 2.65398L4.2202 7.39071C4.21985 7.39107 4.21949 7.39142 4.21914 7.39177Z" fill="white"/>
<path d="M12.1363 2.56118L11.9045 3.27447L11.9045 3.27447L12.1363 2.56118ZM11.3637 2.56118L11.5955 3.27447L11.3637 2.56118ZM12.5792 2.84648L13.0646 2.27473V2.27473L12.5792 2.84648ZM13.4824 3.71464L14.0127 3.18431L13.4824 3.71464ZM18 8.23223H18.75C18.75 8.03332 18.671 7.84255 18.5303 7.7019L18 8.23223ZM17.9616 17.0309L18.7091 17.092V17.092L17.9616 17.0309ZM17.7548 17.9431L17.0865 17.6026V17.6026L17.7548 17.9431ZM16.7715 18.9263L17.112 19.5946L17.112 19.5946L16.7715 18.9263ZM15.8593 19.1332L15.7982 18.3857H15.7982L15.8593 19.1332ZM7.64068 19.1332L7.70176 18.3857H7.70175L7.64068 19.1332ZM6.72852 18.9263L6.38803 19.5946L6.38803 19.5946L6.72852 18.9263ZM5.74524 17.9431L6.41349 17.6026L6.41349 17.6026L5.74524 17.9431ZM5.53838 17.0309L4.79087 17.092L5.53838 17.0309ZM5.5 8.23223L4.96967 7.7019C4.82902 7.84256 4.75 8.03332 4.75 8.23223H5.5ZM10.9208 2.84648L11.4061 3.41824L11.4061 3.41824L10.9208 2.84648ZM1.21967 10.3912L0.68934 9.86091H0.68934L1.21967 10.3912ZM4.21914 7.39177L4.74947 7.9221L4.75001 7.92156L4.21914 7.39177ZM1.21967 11.4519L1.75 10.9216H1.75L1.21967 11.4519ZM2.28033 11.4519L1.75 10.9216H1.75L2.28033 11.4519ZM4 9.73223H4.75C4.75 9.42889 4.56727 9.15541 4.28701 9.03932C4.00676 8.92324 3.68417 8.9874 3.46967 9.2019L4 9.73223ZM4 15.1216L4.75 15.1216V15.1216H4ZM4 15.1537L4.75 15.1537V15.1537L4 15.1537ZM4.04336 17.153L3.29585 17.2141L4.04336 17.153ZM4.40873 18.624L3.74047 18.9645H3.74047L4.40873 18.624ZM6.04754 20.2628L6.38803 19.5946H6.38803L6.04754 20.2628ZM7.51853 20.6282L7.57961 19.8807H7.5796L7.51853 20.6282ZM9.51788 20.6716V19.9216H9.51787L9.51788 20.6716ZM13.9821 20.6716L13.9821 19.9216H13.9821V20.6716ZM15.9815 20.6282L15.9204 19.8807H15.9204L15.9815 20.6282ZM17.4525 20.2628L17.793 20.9311L17.4525 20.2628ZM19.0913 18.624L18.423 18.2835L19.0913 18.624ZM19.4566 17.153L18.7091 17.092V17.092L19.4566 17.153ZM19.5 15.1537H18.75V15.1537L19.5 15.1537ZM19.5 9.73223L20.0303 9.2019C19.8158 8.9874 19.4932 8.92324 19.213 9.03932C18.9327 9.15541 18.75 9.42889 18.75 9.73223H19.5ZM21.2197 11.4519L21.75 10.9216V10.9216L21.2197 11.4519ZM22.2803 11.4519L21.75 10.9216L21.75 10.9216L22.2803 11.4519ZM22.2803 10.3912L21.75 10.9216L21.75 10.9216L22.2803 10.3912ZM14.5431 2.65398L14.0127 3.18431L14.0127 3.18431L14.5431 2.65398ZM14.5215 2.63246L13.9912 3.16278L13.9912 3.16278L14.5215 2.63246ZM13.55 1.70297L13.0646 2.27473V2.27473L13.55 1.70297ZM12.5998 1.13459L12.368 1.84789L12.5998 1.13459ZM10.9002 1.13459L10.6684 0.421302V0.421302L10.9002 1.13459ZM9.95 1.70297L10.4354 2.27473L10.4354 2.27473L9.95 1.70297ZM8.97846 2.63245L8.44812 2.10213C8.44451 2.10574 8.44095 2.10938 8.43742 2.11306L8.97846 2.63245ZM8.97845 2.63246L9.50879 3.16278C9.51239 3.15918 9.51596 3.15554 9.51949 3.15186L8.97845 2.63246ZM8.95693 2.65398L9.48726 3.18431L9.48727 3.1843L8.95693 2.65398ZM4.2202 7.39071L4.74999 7.92158L4.75053 7.92104L4.2202 7.39071ZM12.368 1.84789C11.9663 1.71737 11.5337 1.71737 11.132 1.84789L11.5955 3.27447C11.6959 3.24184 11.8041 3.24184 11.9045 3.27447L12.368 1.84789ZM13.0646 2.27473C12.8099 2.05845 12.5966 1.92216 12.368 1.84789L11.9045 3.27447C11.8693 3.26302 11.9094 3.26164 12.0939 3.41824L13.0646 2.27473ZM14.0127 3.18431C13.617 2.78857 13.3198 2.49134 13.0646 2.27473L12.0939 3.41824C12.2913 3.58587 12.5383 3.83119 12.9521 4.24497L14.0127 3.18431ZM18.5303 7.7019L14.0127 3.18431L12.9521 4.24497L17.4697 8.76256L18.5303 7.7019ZM18.75 15.1216V8.23223H17.25V15.1216H18.75ZM18.7091 17.092C18.75 16.5917 18.75 15.9614 18.75 15.1216H17.25C17.25 15.9867 17.2488 16.5449 17.2141 16.9698L18.7091 17.092ZM18.423 18.2835C18.5866 17.9625 18.6683 17.592 18.7091 17.092L17.2141 16.9698C17.1808 17.3776 17.1242 17.5285 17.0865 17.6026L18.423 18.2835ZM17.112 19.5946C17.6765 19.307 18.1354 18.848 18.423 18.2835L17.0865 17.6026C16.9427 17.8848 16.7132 18.1143 16.431 18.2581L17.112 19.5946ZM15.9204 19.8807C16.4204 19.8398 16.791 19.7582 17.112 19.5946L16.431 18.2581C16.357 18.2958 16.206 18.3524 15.7982 18.3857L15.9204 19.8807ZM13.95 19.9216C14.7898 19.9216 15.4201 19.9216 15.9204 19.8807L15.7982 18.3857C15.3733 18.4204 14.8151 18.4216 13.95 18.4216V19.9216ZM9.55 19.9216H13.95V18.4216H9.55V19.9216ZM7.5796 19.8807C8.07992 19.9216 8.71017 19.9216 9.55 19.9216V18.4216C8.68492 18.4216 8.1267 18.4204 7.70176 18.3857L7.5796 19.8807ZM6.38803 19.5946C6.70903 19.7582 7.07959 19.8398 7.57961 19.8807L7.70175 18.3857C7.29402 18.3524 7.14305 18.2958 7.06901 18.2581L6.38803 19.5946ZM5.07698 18.2835C5.3646 18.848 5.82354 19.307 6.38803 19.5946L7.06902 18.2581C6.78677 18.1143 6.5573 17.8848 6.41349 17.6026L5.07698 18.2835ZM4.79087 17.092C4.83173 17.592 4.91342 17.9625 5.07698 18.2835L6.41349 17.6026C6.37577 17.5285 6.3192 17.3776 6.28589 16.9698L4.79087 17.092ZM4.75 15.1216C4.75 15.9614 4.74999 16.5917 4.79087 17.092L6.28589 16.9698C6.25117 16.5449 6.25 15.9867 6.25 15.1216H4.75ZM4.75 8.23223V15.1216H6.25V8.23223H4.75ZM9.48726 3.18431L4.96967 7.7019L6.03033 8.76256L10.5479 4.24497L9.48726 3.18431ZM10.4354 2.27473C10.1802 2.49134 9.88301 2.78856 9.48726 3.18431L10.5479 4.24497C10.9617 3.83119 11.2087 3.58587 11.4061 3.41824L10.4354 2.27473ZM11.132 1.84789C10.9034 1.92216 10.6901 2.05845 10.4354 2.27473L11.4061 3.41824C11.5906 3.26164 11.6307 3.26302 11.5955 3.27447L11.132 1.84789ZM1.75 10.9216L4.74947 7.9221L3.68881 6.86144L0.68934 9.86091L1.75 10.9216ZM1.75 10.9216V10.9216L0.68934 9.86091C0.103553 10.4467 0.103553 11.3964 0.68934 11.9822L1.75 10.9216ZM1.75 10.9216H1.75L0.68934 11.9822C1.27513 12.568 2.22487 12.568 2.81066 11.9822L1.75 10.9216ZM3.46967 9.2019L1.75 10.9216L2.81066 11.9822L4.53033 10.2626L3.46967 9.2019ZM4.75 15.1216V9.73223H3.25V15.1216H4.75ZM4.75 15.1537L4.75 15.1216L3.25 15.1216L3.25 15.1537L4.75 15.1537ZM4.79087 17.092C4.75055 16.5984 4.74999 15.9779 4.75 15.1537L3.25 15.1537C3.24999 15.9551 3.24942 16.6458 3.29585 17.2141L4.79087 17.092ZM5.07698 18.2835C4.91345 17.9626 4.83173 17.5921 4.79087 17.092L3.29585 17.2141C3.34432 17.8073 3.45132 18.397 3.74047 18.9645L5.07698 18.2835ZM6.38803 19.5946C5.82354 19.307 5.3646 18.848 5.07698 18.2835L3.74047 18.9645C4.1719 19.8113 4.86031 20.4997 5.70704 20.9311L6.38803 19.5946ZM7.5796 19.8807C7.07949 19.8398 6.70898 19.7581 6.38803 19.5946L5.70704 20.9311C6.27453 21.2203 6.8643 21.3273 7.45746 21.3757L7.5796 19.8807ZM9.51787 19.9216C8.69366 19.9216 8.07313 19.921 7.57961 19.8807L7.45746 21.3757C8.02575 21.4221 8.71643 21.4216 9.51788 21.4216L9.51787 19.9216ZM9.55 19.9216H9.51788V21.4216H9.55V19.9216ZM13.95 19.9216H9.55V21.4216H13.95V19.9216ZM13.9821 19.9216H13.95V21.4216H13.9821V19.9216ZM15.9204 19.8807C15.4269 19.921 14.8063 19.9216 13.9821 19.9216L13.9821 21.4216C14.7836 21.4216 15.4743 21.4221 16.0425 21.3757L15.9204 19.8807ZM17.112 19.5946C16.791 19.7581 16.4205 19.8398 15.9204 19.8807L16.0425 21.3757C16.6357 21.3273 17.2255 21.2203 17.793 20.9311L17.112 19.5946ZM18.423 18.2835C18.1354 18.848 17.6765 19.307 17.112 19.5946L17.793 20.9311C18.6397 20.4997 19.3281 19.8113 19.7595 18.9645L18.423 18.2835ZM18.7091 17.092C18.6683 17.5921 18.5866 17.9626 18.423 18.2835L19.7595 18.9645C20.0487 18.397 20.1557 17.8073 20.2041 17.2141L18.7091 17.092ZM18.75 15.1537C18.75 15.9779 18.7494 16.5984 18.7091 17.092L20.2041 17.2141C20.2506 16.6458 20.25 15.9551 20.25 15.1537L18.75 15.1537ZM18.75 15.1216V15.1537H20.25V15.1216H18.75ZM18.75 9.73223V15.1216H20.25V9.73223H18.75ZM21.75 10.9216L20.0303 9.2019L18.9697 10.2626L20.6893 11.9822L21.75 10.9216ZM21.75 10.9216H21.75L20.6893 11.9822C21.2751 12.568 22.2249 12.568 22.8107 11.9822L21.75 10.9216ZM21.75 10.9216V10.9216L22.8107 11.9822C23.3964 11.3964 23.3964 10.4467 22.8107 9.86091L21.75 10.9216ZM14.0127 3.18431L21.75 10.9216L22.8107 9.86091L15.0734 2.12365L14.0127 3.18431ZM13.9912 3.16278L14.0127 3.18431L15.0734 2.12366L15.0519 2.10214L13.9912 3.16278ZM13.0646 2.27473C13.3147 2.48703 13.6058 2.77735 13.9912 3.16278L15.0519 2.10214C14.6819 1.73216 14.3425 1.39193 14.0354 1.13122L13.0646 2.27473ZM12.368 1.84789C12.5965 1.92211 12.8097 2.0583 13.0646 2.27473L14.0354 1.13122C13.7092 0.854306 13.3231 0.581013 12.8316 0.421302L12.368 1.84789ZM11.132 1.84789C11.5337 1.71737 11.9663 1.71737 12.368 1.84789L12.8316 0.421302C12.1286 0.192899 11.3714 0.192899 10.6684 0.421302L11.132 1.84789ZM10.4354 2.27473C10.6903 2.0583 10.9035 1.92211 11.132 1.84789L10.6684 0.421302C10.1769 0.581013 9.7908 0.854304 9.46461 1.13122L10.4354 2.27473ZM9.5088 3.16278C9.89422 2.77734 10.1853 2.48703 10.4354 2.27473L9.46461 1.13122C9.15751 1.39193 8.81809 1.73215 8.44812 2.10213L9.5088 3.16278ZM9.51949 3.15186L9.5195 3.15185L8.43742 2.11306L8.43741 2.11306L9.51949 3.15186ZM9.48727 3.1843L9.50879 3.16278L8.44811 2.10214L8.42659 2.12366L9.48727 3.1843ZM4.75053 7.92104L9.48726 3.18431L8.4266 2.12365L3.68987 6.86038L4.75053 7.92104ZM4.75001 7.92156L4.74999 7.92158L3.69041 6.85985C3.6897 6.86056 3.68898 6.86127 3.68827 6.86198L4.75001 7.92156Z" fill="white"/>
</svg>
