<svg width="14" height="12" viewBox="0 0 14 12" fill="none" xmlns="http://www.w3.org/2000/svg">
<path d="M12.7273 11.845H8.27273V10.5723H12.7273V1.66323H1.27273V3.57232H0V1.66323C0 0.960322 0.569819 0.390503 1.27273 0.390503H12.7273C13.4302 0.390503 14 0.960322 14 1.66323V10.5723C14 11.2752 13.4302 11.845 12.7273 11.845ZM7.00003 11.845H5.72727C5.73043 10.3256 5.12573 8.86808 4.04791 7.79714C2.97705 6.7192 1.51944 6.11448 0 6.11778V4.84502C1.85686 4.84011 3.63859 5.57792 4.94836 6.89414C6.26627 8.20403 7.00509 9.98691 7.00003 11.845ZM4.45457 11.845H3.18182C3.18355 11.0009 2.84764 10.1912 2.24891 9.59614C1.65396 8.99729 0.844148 8.66135 0 8.66323V7.39048C1.18221 7.38691 2.31672 7.85643 3.15064 8.69441C3.98856 9.52837 4.45807 10.6629 4.45457 11.845ZM1.90909 11.845H0V9.93596C1.05436 9.93596 1.90909 10.7907 1.90909 11.845Z" fill="white"/>
</svg>
