<svg width="47" height="12" viewBox="0 0 47 12" fill="none" xmlns="http://www.w3.org/2000/svg">
<path d="M28.2461 10.2831V11.3905H22.2578V1.52625H23.4883V10.2831H28.2461ZM29.8918 11.3905V4.02136H31.0676V11.3905H29.8918ZM31.0607 2.28503C30.9012 2.44454 30.7076 2.52429 30.4797 2.52429C30.2518 2.52429 30.0581 2.44454 29.8986 2.28503C29.7391 2.12097 29.6594 1.92729 29.6594 1.70398C29.6594 1.48067 29.7391 1.28927 29.8986 1.12976C30.0581 0.965698 30.2518 0.883667 30.4797 0.883667C30.7076 0.883667 30.9012 0.965698 31.0607 1.12976C31.2202 1.28927 31.3 1.48067 31.3 1.70398C31.3 1.92729 31.2202 2.12097 31.0607 2.28503ZM39.1254 4.02136L36.3979 11.3905H35.1947L32.4672 4.02136H33.725L35.7416 10.0917H35.851L37.8676 4.02136H39.1254ZM43.1637 4.93054C42.5758 4.93054 42.0927 5.12878 41.7145 5.52527C41.3362 5.92175 41.1243 6.44584 41.0787 7.09753H45.1393C45.1256 6.44584 44.9387 5.92175 44.5787 5.52527C44.2187 5.12878 43.747 4.93054 43.1637 4.93054ZM45.1051 9.48328H46.2809C46.1031 10.1213 45.7408 10.6203 45.1939 10.9803C44.6516 11.3404 43.9794 11.5204 43.1773 11.5204C42.1565 11.5204 41.3476 11.1786 40.7506 10.495C40.1536 9.80684 39.8551 8.87944 39.8551 7.71277C39.8551 6.55066 40.1559 5.62325 40.7574 4.93054C41.359 4.23783 42.1656 3.89148 43.1773 3.89148C44.1708 3.89148 44.9524 4.22188 45.5221 4.88269C46.0917 5.5435 46.3766 6.44812 46.3766 7.59656V8.04773H41.0787V8.10242C41.1106 8.83158 41.3157 9.41036 41.6939 9.83875C42.0768 10.2671 42.5803 10.4813 43.2047 10.4813C44.1572 10.4813 44.7906 10.1486 45.1051 9.48328Z" fill="#F9F9F9"/>
<path d="M12.7273 11.845H8.27273V10.5723H12.7273V1.66323H1.27273V3.57232H0V1.66323C0 0.960322 0.569819 0.390503 1.27273 0.390503H12.7273C13.4302 0.390503 14 0.960322 14 1.66323V10.5723C14 11.2752 13.4302 11.845 12.7273 11.845ZM7.00003 11.845H5.72727C5.73043 10.3256 5.12573 8.86808 4.04791 7.79714C2.97705 6.7192 1.51944 6.11448 0 6.11778V4.84502C1.85686 4.84011 3.63859 5.57792 4.94836 6.89414C6.26627 8.20403 7.00509 9.98691 7.00003 11.845ZM4.45457 11.845H3.18182C3.18355 11.0009 2.84764 10.1912 2.24891 9.59614C1.65396 8.99729 0.844148 8.66135 0 8.66323V7.39048C1.18221 7.38691 2.31672 7.85643 3.15064 8.69441C3.98856 9.52837 4.45807 10.6629 4.45457 11.845ZM1.90909 11.845H0V9.93596C1.05436 9.93596 1.90909 10.7907 1.90909 11.845Z" fill="white"/>
</svg>
