<svg width="18" height="18" viewBox="0 0 18 18" fill="none" xmlns="http://www.w3.org/2000/svg">
<path d="M17 8.73831C17.003 9.91152 16.7289 11.0689 16.2 12.1161C15.5728 13.371 14.6086 14.4265 13.4155 15.1643C12.2223 15.9022 10.8473 16.2933 9.44443 16.2939C8.27122 16.2969 7.11387 16.0228 6.06666 15.4939L1 17.1827L2.68889 12.1161C2.15994 11.0689 1.88583 9.91152 1.88889 8.73831C1.88943 7.33543 2.28054 5.9604 3.01841 4.76725C3.75629 3.57409 4.81178 2.60993 6.06666 1.98276C7.11387 1.45381 8.27122 1.17971 9.44443 1.18276H9.88887C11.7416 1.28498 13.4916 2.067 14.8037 3.37908C16.1157 4.69116 16.8978 6.44111 17 8.29386V8.73831Z" stroke="white" stroke-linecap="round" stroke-linejoin="round"/>
</svg>
