<svg width="20" height="21" viewBox="0 0 20 21" fill="none" xmlns="http://www.w3.org/2000/svg">
<path fill-rule="evenodd" clip-rule="evenodd" d="M10.0001 2.33972C5.30912 2.33972 1.50635 6.14249 1.50635 10.8335C1.50635 11.8681 1.76587 12.9296 2.10824 13.8731L2.11342 13.8873C2.37472 14.6074 2.57743 15.166 2.71772 15.5969C2.8543 16.0164 2.95592 16.3841 2.97707 16.698C2.99396 16.9486 3.00002 17.1684 2.97206 17.4004C2.9441 17.6324 2.88598 17.8445 2.81003 18.0839C2.71928 18.37 2.57396 18.6469 2.39197 18.948C2.32174 19.0642 2.24228 19.19 2.15354 19.3272H10.0001C14.691 19.3272 18.4938 15.5244 18.4938 10.8335C18.4938 6.14249 14.691 2.33972 10.0001 2.33972ZM0.00634766 10.8335C0.00634766 5.31407 4.48069 0.839722 10.0001 0.839722C15.5195 0.839722 19.9938 5.31407 19.9938 10.8335C19.9938 16.3528 15.5195 20.8272 10.0001 20.8272H0.756349C0.479752 20.8272 0.225607 20.6749 0.0950929 20.4311C-0.0354214 20.1872 -0.021117 19.8913 0.132311 19.6612L0.411433 19.2425C0.725708 18.7711 0.947575 18.4379 1.1082 18.1722C1.26874 17.9065 1.34278 17.7485 1.38024 17.6304C1.44718 17.4193 1.47176 17.3128 1.48284 17.2209C1.49391 17.129 1.49535 17.0197 1.48047 16.7988C1.47311 16.6896 1.42764 16.4797 1.29141 16.0613C1.15982 15.6571 0.965768 15.122 0.698211 14.3847C0.321285 13.3461 0.00634766 12.1032 0.00634766 10.8335ZM5.14177 8.77929C5.14177 8.36508 5.47755 8.02929 5.89177 8.02929H14.1084C14.5226 8.02929 14.8584 8.36508 14.8584 8.77929C14.8584 9.1935 14.5226 9.52929 14.1084 9.52929H5.89177C5.47755 9.52929 5.14177 9.1935 5.14177 8.77929ZM5.89177 12.1376C5.47755 12.1376 5.14177 12.4734 5.14177 12.8876C5.14177 13.3018 5.47755 13.6376 5.89177 13.6376H10.0001C10.4143 13.6376 10.7501 13.3018 10.7501 12.8876C10.7501 12.4734 10.4143 12.1376 10.0001 12.1376H5.89177Z" fill="white"/>
</svg>
