<svg width="18" height="11" viewBox="0 0 18 11" fill="none" xmlns="http://www.w3.org/2000/svg">
<path fill-rule="evenodd" clip-rule="evenodd" d="M12.4816 0.195547C12.0838 -0.117953 11.5081 -0.0464533 11.1956 0.352297L4.72847 8.60963L1.63105 4.76238C1.31205 4.36913 0.736386 4.30496 0.342219 4.62305C-0.0528639 4.94113 -0.114281 5.51863 0.201969 5.91188L4.02355 10.6584C4.19864 10.8747 4.4608 11.0003 4.73855 11.0003H4.74497C5.02363 10.9985 5.28764 10.8692 5.45997 10.6483L12.6384 1.48163C12.951 1.0838 12.8813 0.507213 12.4816 0.195547ZM17.065 0.195547C16.6662 -0.117953 16.0915 -0.0464533 15.7789 0.352297L9.3118 8.60963L8.75813 7.92305L7.59855 9.4053L8.60688 10.6584C8.78196 10.8747 9.04413 11.0003 9.32188 11.0003H9.3283C9.60696 10.9985 9.87096 10.8692 10.0433 10.6483L17.2217 1.48163C17.5343 1.0838 17.4646 0.507213 17.065 0.195547ZM6.39837 4.99117L5.23695 6.4725L4.78595 5.91242C4.46878 5.51825 4.5302 4.94076 4.92528 4.62267C5.32037 4.30551 5.89695 4.36876 6.21412 4.76292L6.39837 4.99117Z" fill="#0057FF"/>
</svg>
