<svg width="21" height="21" viewBox="0 0 21 21" fill="none" xmlns="http://www.w3.org/2000/svg">
<path fill-rule="evenodd" clip-rule="evenodd" d="M10.4456 0.564641C10.6395 0.478453 10.8609 0.478453 11.0548 0.564641L20.0548 4.56464C20.3256 4.68502 20.5002 4.95361 20.5002 5.25C20.5002 5.54639 20.3256 5.81498 20.0548 5.93536L11.0548 9.93536C10.8609 10.0215 10.6395 10.0215 10.4456 9.93536L1.44558 5.93536C1.17474 5.81498 1.00019 5.54639 1.00019 5.25C1.00019 4.95361 1.17474 4.68502 1.44558 4.56464L10.4456 0.564641ZM3.59685 5.25L10.7502 8.42926L17.9035 5.25L10.7502 2.07074L3.59685 5.25ZM1.06483 9.9454C1.23306 9.56688 1.67628 9.39641 2.05479 9.56464L10.7502 13.4293L19.4456 9.56464C19.8241 9.39641 20.2673 9.56688 20.4355 9.9454C20.6038 10.3239 20.4333 10.7671 20.0548 10.9354L11.0548 14.9354C10.8609 15.0215 10.6395 15.0215 10.4456 14.9354L1.44558 10.9354C1.06707 10.7671 0.8966 10.3239 1.06483 9.9454ZM2.05479 14.5646C1.67628 14.3964 1.23306 14.5669 1.06483 14.9454C0.8966 15.3239 1.06707 15.7671 1.44558 15.9354L10.4456 19.9354C10.6395 20.0215 10.8609 20.0215 11.0548 19.9354L20.0548 15.9354C20.4333 15.7671 20.6038 15.3239 20.4355 14.9454C20.2673 14.5669 19.8241 14.3964 19.4456 14.5646L10.7502 18.4293L2.05479 14.5646Z" fill="white"/>
<path d="M11.0548 0.564641L10.9533 0.793094V0.793094L11.0548 0.564641ZM10.4456 0.564641L10.5471 0.793094V0.793094L10.4456 0.564641ZM20.0548 4.56464L20.1563 4.33619L20.1563 4.33619L20.0548 4.56464ZM20.0548 5.93536L19.9533 5.70691L20.0548 5.93536ZM11.0548 9.93536L11.1563 10.1638L11.0548 9.93536ZM10.4456 9.93536L10.344 10.1638L10.4456 9.93536ZM1.44558 5.93536L1.54712 5.70691L1.54712 5.70691L1.44558 5.93536ZM1.44558 4.56464L1.34405 4.33619H1.34405L1.44558 4.56464ZM10.7502 8.42926L10.6487 8.65771C10.7133 8.68644 10.7871 8.68644 10.8517 8.65771L10.7502 8.42926ZM3.59685 5.25L3.49531 5.02155C3.40503 5.06167 3.34685 5.1512 3.34685 5.25C3.34685 5.3488 3.40503 5.43833 3.49531 5.47845L3.59685 5.25ZM17.9035 5.25L18.0051 5.47845C18.0953 5.43833 18.1535 5.3488 18.1535 5.25C18.1535 5.1512 18.0953 5.06167 18.0051 5.02155L17.9035 5.25ZM10.7502 2.07074L10.8517 1.84229C10.7871 1.81356 10.7133 1.81356 10.6487 1.84229L10.7502 2.07074ZM2.05479 9.56464L1.95326 9.79309H1.95326L2.05479 9.56464ZM1.06483 9.9454L1.29328 10.0469L1.06483 9.9454ZM10.7502 13.4293L10.6487 13.6577C10.7133 13.6864 10.7871 13.6864 10.8517 13.6577L10.7502 13.4293ZM19.4456 9.56464L19.344 9.33619L19.4456 9.56464ZM20.0548 10.9354L20.1563 11.1638L20.0548 10.9354ZM11.0548 14.9354L10.9533 14.7069H10.9533L11.0548 14.9354ZM10.4456 14.9354L10.5471 14.7069H10.5471L10.4456 14.9354ZM1.44558 10.9354L1.34405 11.1638H1.34405L1.44558 10.9354ZM1.06483 14.9454L1.29328 15.0469L1.06483 14.9454ZM2.05479 14.5646L1.95326 14.7931H1.95326L2.05479 14.5646ZM1.44558 15.9354L1.34405 16.1638H1.34405L1.44558 15.9354ZM10.4456 19.9354L10.5471 19.7069H10.5471L10.4456 19.9354ZM11.0548 19.9354L10.9533 19.7069H10.9533L11.0548 19.9354ZM20.0548 15.9354L20.1563 16.1638L20.0548 15.9354ZM19.4456 14.5646L19.344 14.3362L19.4456 14.5646ZM10.7502 18.4293L10.6487 18.6577C10.7133 18.6864 10.7871 18.6864 10.8517 18.6577L10.7502 18.4293ZM11.1563 0.336189C10.8978 0.221271 10.6026 0.221271 10.344 0.336189L10.5471 0.793094C10.6764 0.735635 10.824 0.735635 10.9533 0.793094L11.1563 0.336189ZM20.1563 4.33619L11.1563 0.336188L10.9533 0.793094L19.9533 4.79309L20.1563 4.33619ZM20.7502 5.25C20.7502 4.85481 20.5175 4.49669 20.1563 4.33619L19.9533 4.79309C20.1338 4.87335 20.2502 5.05241 20.2502 5.25H20.7502ZM20.1563 6.16381C20.5175 6.00331 20.7502 5.64519 20.7502 5.25H20.2502C20.2502 5.44759 20.1338 5.62666 19.9533 5.70691L20.1563 6.16381ZM11.1563 10.1638L20.1563 6.16381L19.9533 5.70691L10.9533 9.70691L11.1563 10.1638ZM10.344 10.1638C10.6026 10.2787 10.8978 10.2787 11.1563 10.1638L10.9533 9.70691C10.824 9.76437 10.6764 9.76437 10.5471 9.70691L10.344 10.1638ZM1.34405 6.16381L10.344 10.1638L10.5471 9.70691L1.54712 5.70691L1.34405 6.16381ZM0.750187 5.25C0.750187 5.64519 0.982921 6.00331 1.34405 6.16381L1.54712 5.70691C1.36655 5.62666 1.25019 5.44759 1.25019 5.25H0.750187ZM1.34405 4.33619C0.982921 4.49669 0.750187 4.85481 0.750187 5.25H1.25019C1.25019 5.05241 1.36655 4.87335 1.54712 4.79309L1.34405 4.33619ZM10.344 0.336188L1.34405 4.33619L1.54712 4.79309L10.5471 0.793094L10.344 0.336188ZM10.8517 8.20081L3.69838 5.02155L3.49531 5.47845L10.6487 8.65771L10.8517 8.20081ZM17.802 5.02155L10.6487 8.20081L10.8517 8.65771L18.0051 5.47845L17.802 5.02155ZM10.6487 2.29919L17.802 5.47845L18.0051 5.02155L10.8517 1.84229L10.6487 2.29919ZM3.69838 5.47845L10.8517 2.29919L10.6487 1.84229L3.49531 5.02155L3.69838 5.47845ZM2.15633 9.33619C1.65164 9.11188 1.06068 9.33918 0.836376 9.84386L1.29328 10.0469C1.40543 9.79459 1.70091 9.68094 1.95326 9.79309L2.15633 9.33619ZM10.8517 13.2008L2.15633 9.33619L1.95326 9.79309L10.6487 13.6577L10.8517 13.2008ZM19.344 9.33619L10.6487 13.2008L10.8517 13.6577L19.5471 9.79309L19.344 9.33619ZM20.664 9.84386C20.4397 9.33918 19.8487 9.11188 19.344 9.33619L19.5471 9.79309C19.7995 9.68094 20.0949 9.79459 20.2071 10.0469L20.664 9.84386ZM20.1563 11.1638C20.661 10.9395 20.8883 10.3485 20.664 9.84386L20.2071 10.0469C20.3192 10.2993 20.2056 10.5948 19.9533 10.7069L20.1563 11.1638ZM11.1563 15.1638L20.1563 11.1638L19.9533 10.7069L10.9533 14.7069L11.1563 15.1638ZM10.344 15.1638C10.6026 15.2787 10.8978 15.2787 11.1563 15.1638L10.9533 14.7069C10.824 14.7644 10.6764 14.7644 10.5471 14.7069L10.344 15.1638ZM1.34405 11.1638L10.344 15.1638L10.5471 14.7069L1.54712 10.7069L1.34405 11.1638ZM0.836376 9.84386C0.612072 10.3485 0.839365 10.9395 1.34405 11.1638L1.54712 10.7069C1.29478 10.5948 1.18113 10.2993 1.29328 10.0469L0.836376 9.84386ZM1.29328 15.0469C1.40543 14.7946 1.70091 14.6809 1.95326 14.7931L2.15633 14.3362C1.65164 14.1119 1.06068 14.3392 0.836376 14.8439L1.29328 15.0469ZM1.54712 15.7069C1.29478 15.5948 1.18113 15.2993 1.29328 15.0469L0.836376 14.8439C0.612072 15.3485 0.839365 15.9395 1.34405 16.1638L1.54712 15.7069ZM10.5471 19.7069L1.54712 15.7069L1.34405 16.1638L10.344 20.1638L10.5471 19.7069ZM10.9533 19.7069C10.824 19.7644 10.6764 19.7644 10.5471 19.7069L10.344 20.1638C10.6026 20.2787 10.8978 20.2787 11.1563 20.1638L10.9533 19.7069ZM19.9533 15.7069L10.9533 19.7069L11.1563 20.1638L20.1563 16.1638L19.9533 15.7069ZM20.2071 15.0469C20.3192 15.2993 20.2056 15.5948 19.9533 15.7069L20.1563 16.1638C20.661 15.9395 20.8883 15.3485 20.664 14.8439L20.2071 15.0469ZM19.5471 14.7931C19.7995 14.6809 20.0949 14.7946 20.2071 15.0469L20.664 14.8439C20.4397 14.3392 19.8487 14.1119 19.344 14.3362L19.5471 14.7931ZM10.8517 18.6577L19.5471 14.7931L19.344 14.3362L10.6487 18.2008L10.8517 18.6577ZM1.95326 14.7931L10.6487 18.6577L10.8517 18.2008L2.15633 14.3362L1.95326 14.7931Z" fill="black"/>
</svg>
