<svg width="18" height="22" viewBox="0 0 18 22" fill="none" xmlns="http://www.w3.org/2000/svg">
<path fill-rule="evenodd" clip-rule="evenodd" d="M9.00429 1C6.07027 1 3.69177 3.38864 3.69177 6.33517C3.69177 9.28171 6.07027 11.6703 9.00429 11.6703C11.9383 11.6703 14.3168 9.28171 14.3168 6.33517C14.3168 3.38864 11.9383 1 9.00429 1ZM9.00429 2.44767C11.1422 2.44767 12.8753 4.18816 12.8753 6.33517C12.8753 8.48218 11.1422 10.2227 9.00429 10.2227C6.8664 10.2227 5.1333 8.48218 5.1333 6.33517C5.1333 4.18816 6.8664 2.44767 9.00429 2.44767ZM6.83005 13.8209C6.05233 13.8749 5.26621 13.9859 4.4908 14.1521C2.99418 14.4604 1.79685 15.0763 1.28724 16.0999C1.09503 16.5002 0.99839 16.9288 1.00002 17.3627C0.999444 17.7935 1.0953 18.2227 1.28062 18.6153C1.76994 19.6271 2.8278 20.1997 4.25624 20.5171L4.51213 20.5705C5.26648 20.7407 6.05284 20.8553 6.84446 20.909C6.91189 20.9288 7.07258 20.9472 7.24796 20.9561L7.39222 20.9615C7.46639 20.9633 7.55058 20.9637 7.67601 20.9637C8.81385 21.0263 9.99342 21.0081 11.1675 20.9081C11.7932 20.8653 12.4231 20.7835 13.0477 20.6636L13.5151 20.5666C15.0576 20.2623 16.2126 19.6836 16.7186 18.6164C17.0937 17.8241 17.0937 16.9047 16.7188 16.1127C16.214 15.0483 15.0737 14.4744 13.5034 14.1509C12.8873 14.0194 12.2612 13.922 11.6307 13.8599L11.1697 13.8209C9.72593 13.6935 8.27382 13.6935 6.83005 13.8209ZM11.0436 15.263L11.0562 15.264C11.7799 15.3149 12.4991 15.4165 13.2087 15.568C14.3751 15.8083 15.1667 16.2067 15.4171 16.7348C15.6057 17.133 15.6057 17.5958 15.4169 17.9944C15.1829 18.4879 14.472 18.8691 13.4445 19.1021L13.2195 19.1498C12.496 19.3112 11.7791 19.4152 11.0576 19.4647C9.93793 19.5599 8.82495 19.5771 7.71477 19.5171L7.32116 19.5103C7.2119 19.5048 7.11981 19.4942 7.03447 19.4771C6.35872 19.4261 5.75066 19.3454 5.16027 19.2283L4.80775 19.1537C3.63771 18.9244 2.83915 18.5243 2.58024 17.989C2.48964 17.797 2.44125 17.5803 2.44154 17.3609C2.44073 17.1428 2.48848 16.931 2.58118 16.7379C2.83293 16.2324 3.67919 15.7971 4.78606 15.569C5.50073 15.4159 6.21962 15.3144 6.94294 15.264C8.31603 15.143 9.68372 15.143 11.0436 15.263Z" fill="white"/>
<path d="M4.4908 14.1521L4.64212 14.8867L4.64796 14.8854L4.4908 14.1521ZM6.83005 13.8209L6.882 14.5692L6.89596 14.568L6.83005 13.8209ZM1.28724 16.0999L0.615781 15.7656L0.61114 15.7752L1.28724 16.0999ZM1.00002 17.3627L1.75003 17.3637L1.75002 17.3599L1.00002 17.3627ZM1.28062 18.6153L0.60235 18.9354L0.605431 18.9418L1.28062 18.6153ZM4.25624 20.5171L4.09355 21.2493L4.10303 21.2512L4.25624 20.5171ZM4.51213 20.5705L4.67722 19.8388L4.66534 19.8363L4.51213 20.5705ZM6.84446 20.909L7.05534 20.1893L6.97688 20.1663L6.89531 20.1608L6.84446 20.909ZM7.24796 20.9561L7.20971 21.7052L7.21987 21.7056L7.24796 20.9561ZM7.39222 20.9615L7.36412 21.7111L7.37483 21.7113L7.39222 20.9615ZM7.67601 20.9637L7.7172 20.2148L7.69662 20.2137H7.67601V20.9637ZM11.1675 20.9081L11.1163 20.1598L11.1039 20.1608L11.1675 20.9081ZM13.0477 20.6636L13.1891 21.4002L13.2002 21.3979L13.0477 20.6636ZM13.5151 20.5666L13.3699 19.8307L13.3626 19.8322L13.5151 20.5666ZM16.7186 18.6164L17.3963 18.9378L17.3964 18.9374L16.7186 18.6164ZM16.7188 16.1127L17.3966 15.7918L17.3964 15.7914L16.7188 16.1127ZM13.5034 14.1509L13.3468 14.8844L13.352 14.8855L13.5034 14.1509ZM11.6307 13.8599L11.7043 13.1134L11.6939 13.1126L11.6307 13.8599ZM11.1697 13.8209L11.1038 14.568L11.1065 14.5682L11.1697 13.8209ZM11.0562 15.264L10.997 16.0117L11.0036 16.0122L11.0562 15.264ZM11.0436 15.263L10.9777 16.0101L10.9843 16.0107L11.0436 15.263ZM13.2087 15.568L13.0521 16.3015L13.0573 16.3026L13.2087 15.568ZM15.4171 16.7348L16.095 16.4138L16.0948 16.4135L15.4171 16.7348ZM15.4169 17.9944L16.0946 18.3157L16.0948 18.3153L15.4169 17.9944ZM13.4445 19.1021L13.5999 19.8359L13.6103 19.8335L13.4445 19.1021ZM13.2195 19.1498L13.0641 18.416L13.0562 18.4178L13.2195 19.1498ZM11.0576 19.4647L11.0063 18.7164L10.994 18.7174L11.0576 19.4647ZM7.71477 19.5171L7.75527 18.7682L7.74145 18.7674L7.72761 18.7672L7.71477 19.5171ZM7.32116 19.5103L7.28292 20.2594L7.29562 20.26L7.30833 20.2602L7.32116 19.5103ZM7.03447 19.4771L7.18215 18.7418L7.13692 18.7327L7.09092 18.7292L7.03447 19.4771ZM5.16027 19.2283L5.00491 19.9621L5.01443 19.964L5.16027 19.2283ZM4.80775 19.1537L4.96311 18.4199L4.952 18.4177L4.80775 19.1537ZM2.58024 17.989L1.90192 18.309L1.90506 18.3155L2.58024 17.989ZM2.44154 17.3609L3.19155 17.3619L3.19153 17.3582L2.44154 17.3609ZM2.58118 16.7379L1.90977 16.4035L1.90503 16.4133L2.58118 16.7379ZM4.78606 15.569L4.93738 16.3036L4.9432 16.3024L4.78606 15.569ZM6.94294 15.264L6.995 16.0124L7.00878 16.0112L6.94294 15.264ZM4.44177 6.33517C4.44177 3.79984 6.48749 1.75 9.00429 1.75V0.25C5.65305 0.25 2.94177 2.97744 2.94177 6.33517H4.44177ZM9.00429 10.9203C6.48749 10.9203 4.44177 8.87051 4.44177 6.33517H2.94177C2.94177 9.69291 5.65305 12.4203 9.00429 12.4203V10.9203ZM13.5668 6.33517C13.5668 8.87051 11.5211 10.9203 9.00429 10.9203V12.4203C12.3555 12.4203 15.0668 9.69291 15.0668 6.33517H13.5668ZM9.00429 1.75C11.5211 1.75 13.5668 3.79984 13.5668 6.33517H15.0668C15.0668 2.97744 12.3555 0.25 9.00429 0.25V1.75ZM13.6253 6.33517C13.6253 3.77696 11.5594 1.69767 9.00429 1.69767V3.19767C10.725 3.19767 12.1253 4.59937 12.1253 6.33517H13.6253ZM9.00429 10.9727C11.5594 10.9727 13.6253 8.89338 13.6253 6.33517H12.1253C12.1253 8.07098 10.725 9.47268 9.00429 9.47268V10.9727ZM4.3833 6.33517C4.3833 8.89338 6.44918 10.9727 9.00429 10.9727V9.47268C7.28362 9.47268 5.8833 8.07098 5.8833 6.33517H4.3833ZM9.00429 1.69767C6.44918 1.69767 4.3833 3.77696 4.3833 6.33517H5.8833C5.8833 4.59937 7.28362 3.19767 9.00429 3.19767V1.69767ZM4.64796 14.8854C5.38903 14.7266 6.13999 14.6206 6.88199 14.5691L6.77811 13.0727C5.96467 13.1292 5.14339 13.2452 4.33363 13.4187L4.64796 14.8854ZM1.95863 16.4341C2.31045 15.7275 3.21308 15.181 4.64211 14.8866L4.33948 13.4175C2.77527 13.7397 1.28326 14.4251 0.615849 15.7656L1.95863 16.4341ZM1.75002 17.3599C1.74881 17.0405 1.81964 16.7238 1.96334 16.4245L0.61114 15.7752C0.370411 16.2766 0.247964 16.817 0.250026 17.3655L1.75002 17.3599ZM1.95886 18.2951C1.82077 18.0026 1.74959 17.6831 1.75002 17.3637L0.250021 17.3617C0.249295 17.9039 0.369828 18.4428 0.602381 18.9354L1.95886 18.2951ZM4.41892 19.7849C3.06943 19.4851 2.29484 18.9898 1.9558 18.2887L0.605431 18.9418C1.24504 20.2644 2.58618 20.9143 4.09356 21.2492L4.41892 19.7849ZM4.66534 19.8363L4.40946 19.7829L4.10303 21.2512L4.35891 21.3046L4.66534 19.8363ZM6.89531 20.1608C6.14155 20.1096 5.3934 20.0004 4.67719 19.8389L4.34706 21.3021C5.13957 21.4809 5.96414 21.601 6.79362 21.6573L6.89531 20.1608ZM7.28621 20.2071C7.21177 20.2033 7.14408 20.1977 7.09219 20.1916C7.06622 20.1886 7.04796 20.186 7.03706 20.1841C7.02236 20.1816 7.032 20.1825 7.05534 20.1893L6.63358 21.6288C6.79658 21.6765 7.04036 21.6965 7.20972 21.7052L7.28621 20.2071ZM7.42031 20.2121L7.27605 20.2067L7.21987 21.7056L7.36413 21.711L7.42031 20.2121ZM7.67601 20.2137C7.55091 20.2137 7.47432 20.2132 7.40961 20.2117L7.37483 21.7113C7.45847 21.7133 7.55025 21.7137 7.67601 21.7137V20.2137ZM11.1039 20.1608C9.96384 20.2579 8.8193 20.2755 7.7172 20.2148L7.63481 21.7126C8.80839 21.7771 10.023 21.7583 11.2311 21.6554L11.1039 20.1608ZM12.9064 19.927C12.3112 20.0413 11.7114 20.1191 11.1163 20.1599L11.2187 21.6564C11.875 21.6115 12.535 21.5257 13.1891 21.4001L12.9064 19.927ZM13.3626 19.8322L12.8953 19.9293L13.2002 21.3979L13.6675 21.3009L13.3626 19.8322ZM16.0409 18.2951C15.6928 19.0292 14.8479 19.5392 13.3699 19.8307L13.6602 21.3024C15.2673 20.9854 16.7323 20.338 17.3963 18.9378L16.0409 18.2951ZM16.0409 16.4337C16.3197 17.0224 16.3197 17.7063 16.0407 18.2955L17.3964 18.9374C17.8678 17.942 17.8678 16.7869 17.3966 15.7918L16.0409 16.4337ZM13.352 14.8855C14.8638 15.1969 15.6941 15.7022 16.0411 16.4341L17.3964 15.7914C16.734 14.3943 15.2836 13.7519 13.6547 13.4163L13.352 14.8855ZM11.5571 14.6063C12.1599 14.6657 12.7582 14.7587 13.3468 14.8844L13.66 13.4174C13.0163 13.28 12.3625 13.1784 11.7042 13.1135L11.5571 14.6063ZM11.1065 14.5682L11.5674 14.6072L11.6939 13.1126L11.2329 13.0736L11.1065 14.5682ZM6.89596 14.568C8.29587 14.4445 9.70388 14.4445 11.1038 14.568L11.2356 13.0738C9.74798 12.9426 8.25177 12.9426 6.76414 13.0738L6.89596 14.568ZM11.1155 14.5164L11.1028 14.5153L10.9843 16.0107L10.997 16.0117L11.1155 14.5164ZM13.3652 14.8345C12.6214 14.6757 11.8675 14.5693 11.1089 14.5159L11.0036 16.0122C11.6923 16.0606 12.3768 16.1573 13.0521 16.3015L13.3652 14.8345ZM16.0948 16.4135C15.8715 15.9426 15.4513 15.6122 15.0033 15.3785C14.5461 15.14 13.9841 14.962 13.36 14.8334L13.0573 16.3026C13.5996 16.4143 14.0166 16.5556 14.3095 16.7084C14.6115 16.866 14.7123 16.9989 14.7394 17.0561L16.0948 16.4135ZM16.0948 18.3153C16.3797 17.7137 16.3798 17.0153 16.095 16.4138L14.7392 17.0557C14.8316 17.2507 14.8317 17.4779 14.7391 17.6734L16.0948 18.3153ZM13.6103 19.8335C14.1679 19.7071 14.6754 19.533 15.0922 19.3017C15.5018 19.0744 15.8852 18.7574 16.0946 18.3157L14.7393 17.673C14.7147 17.7249 14.6256 17.8452 14.3644 17.9901C14.1103 18.1311 13.7485 18.2641 13.2786 18.3707L13.6103 19.8335ZM13.3749 19.8835L13.5999 19.8358L13.2891 18.3684L13.0641 18.416L13.3749 19.8835ZM11.1088 20.2129C11.8687 20.1609 12.623 20.0513 13.3828 19.8818L13.0562 18.4178C12.369 18.5711 11.6896 18.6696 11.0063 18.7165L11.1088 20.2129ZM7.67426 20.266C8.81933 20.3279 9.96709 20.3102 11.1211 20.212L10.994 18.7174C9.90878 18.8097 8.83056 18.8263 7.75527 18.7682L7.67426 20.266ZM7.30833 20.2602L7.70193 20.267L7.72761 18.7672L7.334 18.7604L7.30833 20.2602ZM6.8868 20.2124C7.01697 20.2385 7.14702 20.2524 7.28292 20.2594L7.35941 18.7613C7.27677 18.7571 7.22266 18.7499 7.18215 18.7418L6.8868 20.2124ZM5.01443 19.964C5.63776 20.0876 6.27594 20.172 6.97802 20.225L7.09092 18.7292C6.44151 18.6802 5.86357 18.6032 5.3061 18.4927L5.01443 19.964ZM4.65241 19.8874L5.00492 19.9621L5.31561 18.4946L4.9631 18.42L4.65241 19.8874ZM1.90506 18.3155C2.13274 18.7863 2.55444 19.1178 3.00782 19.3523C3.46956 19.5911 4.03557 19.7666 4.6635 19.8897L4.952 18.4177C4.40989 18.3115 3.9916 18.1723 3.69682 18.0199C3.39369 17.8631 3.28665 17.727 3.25542 17.6624L1.90506 18.3155ZM1.69154 17.36C1.69111 17.6885 1.7632 18.015 1.90195 18.309L3.25852 17.6689C3.21608 17.579 3.19139 17.4721 3.19154 17.3619L1.69154 17.36ZM1.90503 16.4133C1.76283 16.7096 1.69032 17.0334 1.69154 17.3637L3.19153 17.3582C3.19114 17.2522 3.21413 17.1524 3.25734 17.0624L1.90503 16.4133ZM4.63473 14.8345C4.03088 14.9589 3.47232 15.1446 3.01393 15.3856C2.57424 15.6167 2.13795 15.9455 1.90984 16.4035L3.25253 17.0722C3.27616 17.0248 3.38887 16.8831 3.71197 16.7132C4.01637 16.5532 4.43437 16.4072 4.93738 16.3036L4.63473 14.8345ZM6.89088 14.5159C6.13207 14.5687 5.37808 14.6752 4.62891 14.8357L4.9432 16.3024C5.62339 16.1566 6.30716 16.0601 6.99499 16.0122L6.89088 14.5159ZM11.1095 14.5159C9.70556 14.3921 8.29378 14.3921 6.8771 14.5169L7.00878 16.0112C8.33827 15.894 9.66188 15.894 10.9777 16.0101L11.1095 14.5159Z" fill="white"/>
</svg>
