<svg width="21" height="20" viewBox="0 0 21 20" fill="none" xmlns="http://www.w3.org/2000/svg">
<path d="M10.2908 0C8.23202 0 6.10608 0.702305 4.40565 1.935C4.14272 1.74555 3.82495 1.64062 3.4939 1.64062C2.63233 1.64062 1.9314 2.34156 1.9314 3.20312C1.9314 3.53437 2.0364 3.85234 2.22569 4.115C0.993076 5.81543 0.290771 7.94133 0.290771 10C0.290771 15.3879 4.88917 20 10.2908 20C15.6806 20 20.2908 15.3984 20.2908 10C20.2908 4.62027 15.7011 0 10.2908 0ZM3.4939 2.42188C3.92972 2.42188 4.27515 2.77828 4.27515 3.20312C4.27515 3.63391 3.92468 3.98438 3.4939 3.98438C3.06757 3.98438 2.71265 3.63742 2.71265 3.20312C2.71265 2.77234 3.06312 2.42188 3.4939 2.42188ZM9.90015 19.2095C5.20538 19.0023 1.28851 15.0854 1.08132 10.3906H3.66202C3.68183 10.7285 3.7269 11.0648 3.79757 11.395C3.87206 11.7417 3.97538 12.0833 4.10491 12.4145C3.81616 12.7035 3.65015 13.0961 3.65015 13.5156C3.65015 14.3772 4.35108 15.0781 5.21265 15.0781C5.43792 15.0781 5.65597 15.0306 5.85679 14.9394C6.98159 15.9514 8.39569 16.5416 9.90015 16.6289V19.2095ZM5.21265 11.9531C5.06772 11.9531 4.92511 11.9736 4.788 12.0123C4.69448 11.7572 4.61831 11.4958 4.5614 11.2312C4.5023 10.9549 4.46366 10.6735 4.44487 10.3906H6.7973C6.97675 12.0187 8.27186 13.3139 9.90011 13.4934V15.8462C8.63104 15.7626 7.43687 15.2727 6.47147 14.4397C6.66573 14.1742 6.77515 13.8502 6.77515 13.5156C6.77515 12.6541 6.07421 11.9531 5.21265 11.9531ZM5.21265 12.7344C5.64343 12.7344 5.9939 13.0848 5.9939 13.5156C5.9939 13.9571 5.63526 14.2969 5.21265 14.2969C4.78187 14.2969 4.4314 13.9464 4.4314 13.5156C4.4314 13.0757 4.79046 12.7344 5.21265 12.7344ZM9.90015 12.7064C8.70964 12.5365 7.75558 11.5903 7.58433 10.3906H9.90015V12.7064ZM9.90015 9.60938H7.58433C7.75436 8.4182 8.70081 7.46477 9.90015 7.29355V9.60938ZM9.90015 3.37109C8.23499 3.46742 6.68917 4.17746 5.51944 5.38535C5.3694 5.54035 5.37343 5.78766 5.52843 5.93773C5.68378 6.08809 5.93105 6.0834 6.08081 5.92875C7.07812 4.89797 8.41679 4.25121 9.90011 4.15383V6.50656C8.27194 6.68602 6.97675 7.98113 6.7973 9.60941H4.4444C4.47069 9.21309 4.53687 8.8209 4.64229 8.43918C4.69972 8.23117 4.57769 8.01606 4.36976 7.95859C4.16175 7.90121 3.94667 8.02324 3.88921 8.23117C3.76515 8.68059 3.6896 9.14266 3.66229 9.60938H1.08124C1.16245 7.85328 1.78581 6.0698 2.82729 4.6159C3.03425 4.71367 3.26179 4.76562 3.4939 4.76562C4.35546 4.76562 5.0564 4.06469 5.0564 3.20312C5.0564 2.97102 5.00444 2.74348 4.90663 2.53656C6.36058 1.49504 8.14405 0.87168 9.90015 0.790469V3.37109ZM19.5 9.60938H16.9197C16.8332 8.11406 16.2511 6.71133 15.2522 5.59102L17.0312 3.81203C18.5185 5.42637 19.4022 7.50168 19.5 9.60938ZM16.1501 13.5156C16.1501 13.9464 15.7997 14.2969 15.3689 14.2969C14.9453 14.2969 14.5876 13.9563 14.5876 13.5156C14.5876 13.0848 14.9381 12.7344 15.3689 12.7344C15.7921 12.7344 16.1501 13.0768 16.1501 13.5156ZM16.137 9.60934H13.7842V9.60938C13.7113 8.94766 13.4537 8.3268 13.0363 7.80691L14.6988 6.14441C15.5515 7.11566 16.0525 8.32266 16.137 9.60934ZM10.6814 0.790859C12.7891 0.888594 14.8644 1.77227 16.4787 3.25961L10.6814 9.05691V0.790859ZM12.9972 9.60938H11.2338L12.4798 8.36336C12.7555 8.72988 12.9325 9.15613 12.9972 9.60938ZM10.6814 10.3867H12.9972C12.8272 11.5779 11.8807 12.5352 10.6814 12.7064V10.3867ZM10.6814 13.4935C12.3096 13.314 13.6048 12.015 13.7842 10.3867H16.1367C16.1179 10.6695 16.0792 10.9548 16.0202 11.2308C15.9633 11.4957 15.8871 11.7572 15.7935 12.0123C15.6564 11.9736 15.5138 11.9531 15.3689 11.9531C14.0941 11.9531 13.3542 13.4066 14.1101 14.4397C13.1447 15.2727 11.9505 15.7626 10.6814 15.8462V13.4935ZM10.6814 19.2095V16.6288C12.1858 16.5415 13.5999 15.9513 14.7247 14.9394C14.9255 15.0306 15.1436 15.0781 15.3689 15.0781C16.2305 15.0781 16.9314 14.3772 16.9314 13.5156C16.9314 13.0961 16.7654 12.7035 16.4767 12.4145C16.6062 12.0833 16.7095 11.7416 16.7841 11.3946C16.8547 11.0648 16.8997 10.7245 16.9196 10.3867H19.5003C19.293 15.0815 15.3762 19.0023 10.6814 19.2095Z" fill="white"/>
</svg>
