<svg width="21" height="21" viewBox="0 0 21 21" fill="none" xmlns="http://www.w3.org/2000/svg">
<path fill-rule="evenodd" clip-rule="evenodd" d="M10.75 0.5C5.36522 0.5 1 4.86522 1 10.25L1 14.1824C1 14.1964 1 14.2106 1 14.2247V14.2247V14.25L1 15.25V16.25V16.2753V16.2753C0.999993 16.7197 0.999987 17.0908 1.02077 17.3954C1.04241 17.7125 1.08905 18.012 1.20933 18.3024C1.48844 18.9762 2.02379 19.5116 2.69762 19.7907C2.98801 19.911 3.28754 19.9576 3.60464 19.9792C3.90925 20 4.28028 20 4.72474 20H4.75H4.77526C5.21972 20 5.59075 20 5.89537 19.9792C6.21247 19.9576 6.51199 19.911 6.80238 19.7907C7.47621 19.5116 8.01156 18.9762 8.29067 18.3024C8.41095 18.012 8.4576 17.7125 8.47923 17.3954C8.50001 17.0908 8.50001 16.7197 8.5 16.2753V16.25V14.25V14.2247C8.50001 13.7803 8.50001 13.4092 8.47923 13.1046C8.4576 12.7875 8.41095 12.488 8.29067 12.1976C8.01156 11.5238 7.47621 10.9884 6.80238 10.7093C6.51199 10.589 6.21247 10.5424 5.89537 10.5208C5.59075 10.5 5.21971 10.5 4.77525 10.5H4.75H4.72475C4.28029 10.5 3.90925 10.5 3.60464 10.5208C3.28754 10.5424 2.98801 10.589 2.69762 10.7093C2.63033 10.7372 2.56441 10.7676 2.5 10.8005V10.25C2.5 5.69365 6.19365 2 10.75 2C15.3063 2 19 5.69365 19 10.25V10.8005C18.9356 10.7676 18.8697 10.7372 18.8024 10.7093C18.512 10.589 18.2125 10.5424 17.8954 10.5208C17.5908 10.5 17.2197 10.5 16.7753 10.5H16.75H16.7248C16.2803 10.5 15.9092 10.5 15.6046 10.5208C15.2875 10.5424 14.988 10.589 14.6976 10.7093C14.0238 10.9884 13.4884 11.5238 13.2093 12.1976C13.089 12.488 13.0424 12.7875 13.0208 13.1046C13 13.4092 13 13.7803 13 14.2247V14.25V16.25V16.2753C13 16.7197 13 17.0908 13.0208 17.3954C13.0424 17.7125 13.089 18.012 13.2093 18.3024C13.4884 18.9762 14.0238 19.5116 14.6976 19.7907C14.988 19.911 15.2875 19.9576 15.6046 19.9792C15.9092 20 16.2803 20 16.7247 20H16.75H16.7753C17.2197 20 17.5908 20 17.8954 19.9792C18.2125 19.9576 18.512 19.911 18.8024 19.7907C19.4762 19.5116 20.0116 18.9762 20.2907 18.3024C20.411 18.012 20.4576 17.7125 20.4792 17.3954C20.5 17.0908 20.5 16.7198 20.5 16.2753V16.2753V16.25V15.25V14.25V14.2247V14.2247C20.5 14.21 20.5 14.1954 20.5 14.1808V10.25C20.5 4.86522 16.1348 0.5 10.75 0.5ZM19 14.25C19 13.7738 18.9996 13.4542 18.9827 13.2067C18.9663 12.966 18.9368 12.8488 18.9049 12.7716C18.778 12.4654 18.5346 12.222 18.2284 12.0952C18.1512 12.0632 18.034 12.0337 17.7933 12.0173C17.5458 12.0004 17.2262 12 16.75 12C16.2738 12 15.9542 12.0004 15.7067 12.0173C15.466 12.0337 15.3488 12.0632 15.2716 12.0952C14.9654 12.222 14.722 12.4654 14.5952 12.7716C14.5632 12.8488 14.5337 12.966 14.5173 13.2067C14.5004 13.4542 14.5 13.7738 14.5 14.25V16.25C14.5 16.7262 14.5004 17.0458 14.5173 17.2933C14.5337 17.534 14.5632 17.6512 14.5952 17.7284C14.722 18.0346 14.9654 18.278 15.2716 18.4049C15.3488 18.4368 15.466 18.4663 15.7067 18.4827C15.9542 18.4996 16.2738 18.5 16.75 18.5C17.2262 18.5 17.5458 18.4996 17.7933 18.4827C18.034 18.4663 18.1512 18.4368 18.2284 18.4049C18.5346 18.278 18.778 18.0346 18.9049 17.7284C18.9368 17.6512 18.9663 17.534 18.9827 17.2933C18.9996 17.0458 19 16.7262 19 16.25V15.25V14.25ZM2.5 14.25L2.5 15.25V16.25C2.5 16.7262 2.50041 17.0458 2.51729 17.2933C2.53372 17.534 2.56319 17.6512 2.59515 17.7284C2.72202 18.0346 2.96536 18.278 3.27165 18.4049C3.3488 18.4368 3.46602 18.4663 3.70674 18.4827C3.95421 18.4996 4.2738 18.5 4.75 18.5C5.2262 18.5 5.5458 18.4996 5.79326 18.4827C6.03399 18.4663 6.1512 18.4368 6.22836 18.4049C6.53464 18.278 6.77798 18.0346 6.90485 17.7284C6.93681 17.6512 6.96629 17.534 6.98271 17.2933C6.99959 17.0458 7 16.7262 7 16.25V14.25C7 13.7738 6.99959 13.4542 6.98271 13.2067C6.96629 12.966 6.93681 12.8488 6.90485 12.7716C6.77798 12.4654 6.53464 12.222 6.22836 12.0952C6.1512 12.0632 6.03399 12.0337 5.79326 12.0173C5.5458 12.0004 5.2262 12 4.75 12C4.2738 12 3.95421 12.0004 3.70674 12.0173C3.46602 12.0337 3.3488 12.0632 3.27165 12.0952C2.96536 12.222 2.72202 12.4654 2.59515 12.7716C2.56319 12.8488 2.53372 12.966 2.51729 13.2067C2.50041 13.4542 2.5 13.7738 2.5 14.25Z" fill="white"/>
<path d="M1 14.1824L1.25 14.1824V14.1824H1ZM1 14.2247H1.25V14.2247L1 14.2247ZM1 16.2753L1.25 16.2753V16.2753H1ZM1.02077 17.3954L1.27019 17.3783L1.02077 17.3954ZM1.20933 18.3024L0.978362 18.3981H0.978362L1.20933 18.3024ZM2.69762 19.7907L2.79329 19.5597H2.79329L2.69762 19.7907ZM3.60464 19.9792L3.62165 19.7298H3.62165L3.60464 19.9792ZM4.72474 20V19.75H4.72474L4.72474 20ZM4.77526 20L4.77526 19.75H4.77526V20ZM5.89537 19.9792L5.87835 19.7298H5.87835L5.89537 19.9792ZM6.80238 19.7907L6.70671 19.5597L6.80238 19.7907ZM8.29067 18.3024L8.52164 18.3981L8.29067 18.3024ZM8.47923 17.3954L8.22981 17.3783L8.47923 17.3954ZM8.5 16.2753H8.25V16.2753L8.5 16.2753ZM8.5 14.2247L8.25 14.2247V14.2247H8.5ZM8.47923 13.1046L8.22981 13.1217L8.47923 13.1046ZM8.29067 12.1976L8.0597 12.2933L8.29067 12.1976ZM6.80238 10.7093L6.70671 10.9403V10.9403L6.80238 10.7093ZM5.89537 10.5208L5.87835 10.7702L5.89537 10.5208ZM4.77525 10.5V10.75H4.77526L4.77525 10.5ZM4.72475 10.5L4.72475 10.75H4.72475V10.5ZM3.60464 10.5208L3.62165 10.7702H3.62165L3.60464 10.5208ZM2.69762 10.7093L2.79329 10.9403L2.69762 10.7093ZM2.5 10.8005H2.25C2.25 10.8875 2.29524 10.9683 2.36944 11.0137C2.44364 11.0591 2.53613 11.0627 2.61363 11.0232L2.5 10.8005ZM19 10.8005L18.8864 11.0232C18.9639 11.0627 19.0564 11.0591 19.1306 11.0137C19.2048 10.9683 19.25 10.8875 19.25 10.8005H19ZM18.8024 10.7093L18.8981 10.4784H18.8981L18.8024 10.7093ZM17.8954 10.5208L17.8783 10.7702L17.8954 10.5208ZM16.7753 10.5V10.75H16.7753L16.7753 10.5ZM16.7248 10.5L16.7247 10.75H16.7248V10.5ZM15.6046 10.5208L15.6217 10.7702H15.6217L15.6046 10.5208ZM14.6976 10.7093L14.7933 10.9403V10.9403L14.6976 10.7093ZM13.2093 12.1976L13.4403 12.2933L13.2093 12.1976ZM13.0208 13.1046L13.2702 13.1217L13.0208 13.1046ZM13 14.2247H13.25V14.2247L13 14.2247ZM13 16.2753L13.25 16.2753V16.2753H13ZM13.0208 17.3954L13.2702 17.3783L13.0208 17.3954ZM13.2093 18.3024L12.9784 18.3981L13.2093 18.3024ZM14.6976 19.7907L14.7933 19.5597L14.6976 19.7907ZM15.6046 19.9792L15.6217 19.7298H15.6217L15.6046 19.9792ZM16.7247 20V19.75H16.7247L16.7247 20ZM16.7753 20L16.7753 19.75H16.7753V20ZM17.8954 19.9792L17.8784 19.7298H17.8783L17.8954 19.9792ZM18.8024 19.7907L18.7067 19.5597L18.8024 19.7907ZM20.2907 18.3024L20.0597 18.2067L20.0597 18.2067L20.2907 18.3024ZM20.4792 17.3954L20.2298 17.3783L20.4792 17.3954ZM20.5 16.2753H20.25V16.2753L20.5 16.2753ZM18.9827 13.2067L18.7333 13.2238V13.2238L18.9827 13.2067ZM18.9049 12.7716L19.1358 12.676V12.676L18.9049 12.7716ZM18.2284 12.0952L18.1327 12.3261L18.1327 12.3261L18.2284 12.0952ZM17.7933 12.0173L17.8103 11.7679H17.8103L17.7933 12.0173ZM15.7067 12.0173L15.6897 11.7679H15.6897L15.7067 12.0173ZM15.2716 12.0952L15.3673 12.3261H15.3673L15.2716 12.0952ZM14.5952 12.7716L14.8261 12.8673L14.8261 12.8673L14.5952 12.7716ZM14.5173 13.2067L14.2679 13.1897V13.1897L14.5173 13.2067ZM14.5173 17.2933L14.2679 17.3103L14.5173 17.2933ZM14.5952 17.7284L14.8261 17.6327H14.8261L14.5952 17.7284ZM15.2716 18.4049L15.176 18.6358L15.176 18.6358L15.2716 18.4049ZM15.7067 18.4827L15.7238 18.2333L15.7067 18.4827ZM17.7933 18.4827L17.7762 18.2333L17.7933 18.4827ZM18.2284 18.4049L18.324 18.6358H18.324L18.2284 18.4049ZM18.9049 17.7284L19.1358 17.824V17.824L18.9049 17.7284ZM18.9827 17.2933L18.7333 17.2762V17.2762L18.9827 17.2933ZM2.51729 17.2933L2.76671 17.2762L2.51729 17.2933ZM2.59515 17.7284L2.36418 17.824H2.36418L2.59515 17.7284ZM3.27165 18.4049L3.17597 18.6358L3.17598 18.6358L3.27165 18.4049ZM3.70674 18.4827L3.72376 18.2333L3.70674 18.4827ZM5.79326 18.4827L5.77624 18.2333L5.79326 18.4827ZM6.22836 18.4049L6.32403 18.6358L6.32403 18.6358L6.22836 18.4049ZM6.90485 17.7284L7.13582 17.824L7.13582 17.824L6.90485 17.7284ZM6.98271 17.2933L6.73329 17.2762L6.98271 17.2933ZM6.98271 13.2067L6.73329 13.2238V13.2238L6.98271 13.2067ZM6.90485 12.7716L7.13582 12.676L7.13582 12.676L6.90485 12.7716ZM6.22836 12.0952L6.13268 12.3261H6.13268L6.22836 12.0952ZM5.79326 12.0173L5.81028 11.7679H5.81028L5.79326 12.0173ZM3.70674 12.0173L3.68973 11.7679H3.68972L3.70674 12.0173ZM3.27165 12.0952L3.36732 12.3261L3.36732 12.3261L3.27165 12.0952ZM2.59515 12.7716L2.36418 12.676L2.59515 12.7716ZM2.51729 13.2067L2.76671 13.2238V13.2238L2.51729 13.2067ZM1.25 10.25C1.25 5.00329 5.5033 0.75 10.75 0.75V0.25C5.22715 0.25 0.75 4.72715 0.75 10.25H1.25ZM1.25 14.1824L1.25 10.25H0.75L0.75 14.1824H1.25ZM0.75 14.1824C0.75 14.1964 0.75 14.2106 0.75 14.2247L1.25 14.2247C1.25 14.2105 1.25 14.1964 1.25 14.1824L0.75 14.1824ZM0.75 14.2247V14.2247H1.25V14.2247H0.75ZM0.75 14.2247V14.25H1.25V14.2247H0.75ZM0.75 14.25L0.75 15.25H1.25L1.25 14.25H0.75ZM0.75 15.25L0.75 16.25H1.25V15.25H0.75ZM0.75 16.25V16.2753H1.25V16.25H0.75ZM0.75 16.2753V16.2753H1.25V16.2753H0.75ZM0.75 16.2753C0.749993 16.7167 0.749859 17.0974 0.77135 17.4124L1.27019 17.3783C1.25012 17.0841 1.24999 16.7227 1.25 16.2753L0.75 16.2753ZM0.77135 17.4124C0.79386 17.7423 0.843376 18.0722 0.978362 18.3981L1.4403 18.2067C1.33472 17.9518 1.29095 17.6826 1.27019 17.3783L0.77135 17.4124ZM0.978362 18.3981C1.28284 19.1331 1.86687 19.7172 2.60195 20.0216L2.79329 19.5597C2.18072 19.306 1.69404 18.8193 1.4403 18.2067L0.978362 18.3981ZM2.60195 20.0216C2.92784 20.1566 3.25771 20.2061 3.58762 20.2286L3.62165 19.7298C3.31736 19.709 3.04819 19.6653 2.79329 19.5597L2.60195 20.0216ZM3.58762 20.2286C3.90262 20.2501 4.28331 20.25 4.72475 20.25L4.72474 19.75C4.27726 19.75 3.91588 19.7499 3.62165 19.7298L3.58762 20.2286ZM4.72474 20.25H4.75V19.75H4.72474V20.25ZM4.75 20.25H4.77526V19.75H4.75V20.25ZM4.77525 20.25C5.2167 20.25 5.59739 20.2501 5.91238 20.2286L5.87835 19.7298C5.58412 19.7499 5.22274 19.75 4.77526 19.75L4.77525 20.25ZM5.91238 20.2286C6.24229 20.2061 6.57217 20.1566 6.89805 20.0216L6.70671 19.5597C6.45182 19.6653 6.18264 19.709 5.87835 19.7298L5.91238 20.2286ZM6.89805 20.0216C7.63314 19.7172 8.21716 19.1331 8.52164 18.3981L8.0597 18.2067C7.80596 18.8193 7.31928 19.306 6.70671 19.5597L6.89805 20.0216ZM8.52164 18.3981C8.65662 18.0722 8.70614 17.7423 8.72865 17.4124L8.22981 17.3783C8.20905 17.6826 8.16528 17.9518 8.0597 18.2067L8.52164 18.3981ZM8.72865 17.4124C8.75014 17.0974 8.75001 16.7167 8.75 16.2753L8.25 16.2753C8.25001 16.7227 8.24989 17.0841 8.22981 17.3783L8.72865 17.4124ZM8.75 16.2753V16.25H8.25V16.2753H8.75ZM8.75 16.25V14.25H8.25V16.25H8.75ZM8.75 14.25V14.2247H8.25V14.25H8.75ZM8.75 14.2247C8.75001 13.7833 8.75014 13.4026 8.72865 13.0876L8.22981 13.1217C8.24989 13.4159 8.25001 13.7773 8.25 14.2247L8.75 14.2247ZM8.72865 13.0876C8.70614 12.7577 8.65663 12.4278 8.52164 12.1019L8.0597 12.2933C8.16528 12.5482 8.20905 12.8174 8.22981 13.1217L8.72865 13.0876ZM8.52164 12.1019C8.21716 11.3669 7.63314 10.7828 6.89805 10.4784L6.70671 10.9403C7.31928 11.194 7.80596 11.6807 8.0597 12.2933L8.52164 12.1019ZM6.89805 10.4784C6.57217 10.3434 6.24229 10.2939 5.91238 10.2713L5.87835 10.7702C6.18264 10.791 6.45182 10.8347 6.70671 10.9403L6.89805 10.4784ZM5.91238 10.2713C5.59738 10.2499 5.21669 10.25 4.77525 10.25L4.77526 10.75C5.22273 10.75 5.58412 10.7501 5.87835 10.7702L5.91238 10.2713ZM4.77525 10.25H4.75V10.75H4.77525V10.25ZM4.75 10.25H4.72475V10.75H4.75V10.25ZM4.72475 10.25C4.28331 10.25 3.90262 10.2499 3.58762 10.2713L3.62165 10.7702C3.91588 10.7501 4.27727 10.75 4.72475 10.75L4.72475 10.25ZM3.58762 10.2713C3.25771 10.2939 2.92784 10.3434 2.60195 10.4784L2.79329 10.9403C3.04819 10.8347 3.31736 10.791 3.62165 10.7702L3.58762 10.2713ZM2.60195 10.4784C2.52855 10.5088 2.45665 10.542 2.38637 10.5778L2.61363 11.0232C2.67218 10.9933 2.73211 10.9656 2.79329 10.9403L2.60195 10.4784ZM2.25 10.25V10.8005H2.75V10.25H2.25ZM10.75 1.75C6.05558 1.75 2.25 5.55558 2.25 10.25H2.75C2.75 5.83172 6.33172 2.25 10.75 2.25V1.75ZM19.25 10.25C19.25 5.55558 15.4444 1.75 10.75 1.75V2.25C15.1683 2.25 18.75 5.83172 18.75 10.25H19.25ZM19.25 10.8005V10.25H18.75V10.8005H19.25ZM19.1136 10.5778C19.0434 10.542 18.9715 10.5088 18.8981 10.4784L18.7067 10.9403C18.7679 10.9656 18.8278 10.9933 18.8864 11.0232L19.1136 10.5778ZM18.8981 10.4784C18.5722 10.3434 18.2423 10.2939 17.9124 10.2713L17.8783 10.7702C18.1826 10.791 18.4518 10.8347 18.7067 10.9403L18.8981 10.4784ZM17.9124 10.2713C17.5974 10.2499 17.2167 10.25 16.7752 10.25L16.7753 10.75C17.2227 10.75 17.5841 10.7501 17.8783 10.7702L17.9124 10.2713ZM16.7753 10.25H16.75V10.75H16.7753V10.25ZM16.75 10.25H16.7248V10.75H16.75V10.25ZM16.7248 10.25C16.2833 10.25 15.9026 10.2499 15.5876 10.2713L15.6217 10.7702C15.9159 10.7501 16.2773 10.75 16.7247 10.75L16.7248 10.25ZM15.5876 10.2713C15.2577 10.2939 14.9278 10.3434 14.602 10.4784L14.7933 10.9403C15.0482 10.8347 15.3174 10.791 15.6217 10.7702L15.5876 10.2713ZM14.602 10.4784C13.8669 10.7828 13.2828 11.3669 12.9784 12.1019L13.4403 12.2933C13.694 11.6807 14.1807 11.194 14.7933 10.9403L14.602 10.4784ZM12.9784 12.1019C12.8434 12.4278 12.7939 12.7577 12.7714 13.0876L13.2702 13.1217C13.291 12.8174 13.3347 12.5482 13.4403 12.2933L12.9784 12.1019ZM12.7714 13.0876C12.7499 13.4026 12.75 13.7833 12.75 14.2248L13.25 14.2247C13.25 13.7773 13.2501 13.4159 13.2702 13.1217L12.7714 13.0876ZM12.75 14.2247V14.25H13.25V14.2247H12.75ZM12.75 14.25V16.25H13.25V14.25H12.75ZM12.75 16.25V16.2753H13.25V16.25H12.75ZM12.75 16.2752C12.75 16.7167 12.7499 17.0974 12.7714 17.4124L13.2702 17.3783C13.2501 17.0841 13.25 16.7227 13.25 16.2753L12.75 16.2752ZM12.7714 17.4124C12.7939 17.7423 12.8434 18.0722 12.9784 18.3981L13.4403 18.2067C13.3347 17.9518 13.291 17.6826 13.2702 17.3783L12.7714 17.4124ZM12.9784 18.3981C13.2828 19.1331 13.8669 19.7172 14.602 20.0216L14.7933 19.5597C14.1807 19.306 13.694 18.8193 13.4403 18.2067L12.9784 18.3981ZM14.602 20.0216C14.9278 20.1566 15.2577 20.2061 15.5876 20.2286L15.6217 19.7298C15.3174 19.709 15.0482 19.6653 14.7933 19.5597L14.602 20.0216ZM15.5876 20.2286C15.9026 20.2501 16.2833 20.25 16.7247 20.25L16.7247 19.75C16.2773 19.75 15.9159 19.7499 15.6217 19.7298L15.5876 20.2286ZM16.7247 20.25H16.75V19.75H16.7247V20.25ZM16.75 20.25H16.7753V19.75H16.75V20.25ZM16.7753 20.25C17.2167 20.25 17.5974 20.2501 17.9124 20.2286L17.8783 19.7298C17.5841 19.7499 17.2227 19.75 16.7753 19.75L16.7753 20.25ZM17.9124 20.2286C18.2423 20.2061 18.5722 20.1566 18.8981 20.0216L18.7067 19.5597C18.4518 19.6653 18.1826 19.709 17.8784 19.7298L17.9124 20.2286ZM18.8981 20.0216C19.6331 19.7172 20.2172 19.1331 20.5216 18.3981L20.0597 18.2067C19.806 18.8193 19.3193 19.306 18.7067 19.5597L18.8981 20.0216ZM20.5216 18.3981C20.6566 18.0722 20.7061 17.7423 20.7287 17.4124L20.2298 17.3783C20.209 17.6826 20.1653 17.9518 20.0597 18.2067L20.5216 18.3981ZM20.7287 17.4124C20.7501 17.0974 20.75 16.7167 20.75 16.2753L20.25 16.2753C20.25 16.7228 20.2499 17.0841 20.2298 17.3783L20.7287 17.4124ZM20.75 16.2753V16.2753H20.25V16.2753H20.75ZM20.75 16.2753V16.25H20.25V16.2753H20.75ZM20.75 16.25V15.25H20.25V16.25H20.75ZM20.75 15.25V14.25H20.25V15.25H20.75ZM20.75 14.25V14.2247H20.25V14.25H20.75ZM20.75 14.2247V14.2247H20.25V14.2247H20.75ZM20.75 14.2247C20.75 14.2246 20.75 14.2246 20.75 14.2246C20.75 14.2245 20.75 14.2245 20.75 14.2245C20.75 14.2245 20.75 14.2244 20.75 14.2244C20.75 14.2244 20.75 14.2243 20.75 14.2243C20.75 14.2243 20.75 14.2243 20.75 14.2242C20.75 14.2242 20.75 14.2242 20.75 14.2241C20.75 14.2241 20.75 14.2241 20.75 14.2241C20.75 14.224 20.75 14.224 20.75 14.224C20.75 14.2239 20.75 14.2239 20.75 14.2239C20.75 14.2239 20.75 14.2238 20.75 14.2238C20.75 14.2238 20.75 14.2237 20.75 14.2237C20.75 14.2237 20.75 14.2237 20.75 14.2236C20.75 14.2236 20.75 14.2236 20.75 14.2235C20.75 14.2235 20.75 14.2235 20.75 14.2235C20.75 14.2234 20.75 14.2234 20.75 14.2234C20.75 14.2233 20.75 14.2233 20.75 14.2233C20.75 14.2233 20.75 14.2232 20.75 14.2232C20.75 14.2232 20.75 14.2231 20.75 14.2231C20.75 14.2231 20.75 14.2231 20.75 14.223C20.75 14.223 20.75 14.223 20.75 14.2229C20.75 14.2229 20.75 14.2229 20.75 14.2229C20.75 14.2228 20.75 14.2228 20.75 14.2228C20.75 14.2227 20.75 14.2227 20.75 14.2227C20.75 14.2227 20.75 14.2226 20.75 14.2226C20.75 14.2226 20.75 14.2225 20.75 14.2225C20.75 14.2225 20.75 14.2225 20.75 14.2224C20.75 14.2224 20.75 14.2224 20.75 14.2223C20.75 14.2223 20.75 14.2223 20.75 14.2223C20.75 14.2222 20.75 14.2222 20.75 14.2222C20.75 14.2221 20.75 14.2221 20.75 14.2221C20.75 14.2221 20.75 14.222 20.75 14.222C20.75 14.222 20.75 14.2219 20.75 14.2219C20.75 14.2219 20.75 14.2219 20.75 14.2218C20.75 14.2218 20.75 14.2218 20.75 14.2217C20.75 14.2217 20.75 14.2217 20.75 14.2217C20.75 14.2216 20.75 14.2216 20.75 14.2216C20.75 14.2215 20.75 14.2215 20.75 14.2215C20.75 14.2215 20.75 14.2214 20.75 14.2214C20.75 14.2214 20.75 14.2213 20.75 14.2213C20.75 14.2213 20.75 14.2212 20.75 14.2212C20.75 14.2212 20.75 14.2212 20.75 14.2211C20.75 14.2211 20.75 14.2211 20.75 14.221C20.75 14.221 20.75 14.221 20.75 14.221C20.75 14.2209 20.75 14.2209 20.75 14.2209C20.75 14.2208 20.75 14.2208 20.75 14.2208C20.75 14.2208 20.75 14.2207 20.75 14.2207C20.75 14.2207 20.75 14.2206 20.75 14.2206C20.75 14.2206 20.75 14.2206 20.75 14.2205C20.75 14.2205 20.75 14.2205 20.75 14.2204C20.75 14.2204 20.75 14.2204 20.75 14.2204C20.75 14.2203 20.75 14.2203 20.75 14.2203C20.75 14.2202 20.75 14.2202 20.75 14.2202C20.75 14.2202 20.75 14.2201 20.75 14.2201C20.75 14.2201 20.75 14.22 20.75 14.22C20.75 14.22 20.75 14.22 20.75 14.2199C20.75 14.2199 20.75 14.2199 20.75 14.2198C20.75 14.2198 20.75 14.2198 20.75 14.2198C20.75 14.2197 20.75 14.2197 20.75 14.2197C20.75 14.2196 20.75 14.2196 20.75 14.2196C20.75 14.2196 20.75 14.2195 20.75 14.2195C20.75 14.2195 20.75 14.2194 20.75 14.2194C20.75 14.2194 20.75 14.2194 20.75 14.2193C20.75 14.2193 20.75 14.2193 20.75 14.2192C20.75 14.2192 20.75 14.2192 20.75 14.2192C20.75 14.2191 20.75 14.2191 20.75 14.2191C20.75 14.219 20.75 14.219 20.75 14.219C20.75 14.219 20.75 14.2189 20.75 14.2189C20.75 14.2189 20.75 14.2188 20.75 14.2188C20.75 14.2188 20.75 14.2188 20.75 14.2187C20.75 14.2187 20.75 14.2187 20.75 14.2186C20.75 14.2186 20.75 14.2186 20.75 14.2186C20.75 14.2185 20.75 14.2185 20.75 14.2185C20.75 14.2184 20.75 14.2184 20.75 14.2184C20.75 14.2184 20.75 14.2183 20.75 14.2183C20.75 14.2183 20.75 14.2182 20.75 14.2182C20.75 14.2182 20.75 14.2182 20.75 14.2181C20.75 14.2181 20.75 14.2181 20.75 14.218C20.75 14.218 20.75 14.218 20.75 14.218C20.75 14.2179 20.75 14.2179 20.75 14.2179C20.75 14.2178 20.75 14.2178 20.75 14.2178C20.75 14.2178 20.75 14.2177 20.75 14.2177C20.75 14.2177 20.75 14.2176 20.75 14.2176C20.75 14.2176 20.75 14.2176 20.75 14.2175C20.75 14.2175 20.75 14.2175 20.75 14.2174C20.75 14.2174 20.75 14.2174 20.75 14.2174C20.75 14.2173 20.75 14.2173 20.75 14.2173C20.75 14.2172 20.75 14.2172 20.75 14.2172C20.75 14.2172 20.75 14.2171 20.75 14.2171C20.75 14.2171 20.75 14.217 20.75 14.217C20.75 14.217 20.75 14.217 20.75 14.2169C20.75 14.2169 20.75 14.2169 20.75 14.2168C20.75 14.2168 20.75 14.2168 20.75 14.2168C20.75 14.2167 20.75 14.2167 20.75 14.2167C20.75 14.2166 20.75 14.2166 20.75 14.2166C20.75 14.2166 20.75 14.2165 20.75 14.2165C20.75 14.2165 20.75 14.2164 20.75 14.2164C20.75 14.2164 20.75 14.2164 20.75 14.2163C20.75 14.2163 20.75 14.2163 20.75 14.2162C20.75 14.2162 20.75 14.2162 20.75 14.2162C20.75 14.2161 20.75 14.2161 20.75 14.2161C20.75 14.216 20.75 14.216 20.75 14.216C20.75 14.216 20.75 14.2159 20.75 14.2159C20.75 14.2159 20.75 14.2158 20.75 14.2158C20.75 14.2158 20.75 14.2158 20.75 14.2157C20.75 14.2157 20.75 14.2157 20.75 14.2156C20.75 14.2156 20.75 14.2156 20.75 14.2156C20.75 14.2155 20.75 14.2155 20.75 14.2155C20.75 14.2154 20.75 14.2154 20.75 14.2154C20.75 14.2154 20.75 14.2153 20.75 14.2153C20.75 14.2153 20.75 14.2152 20.75 14.2152C20.75 14.2152 20.75 14.2151 20.75 14.2151C20.75 14.2151 20.75 14.2151 20.75 14.215C20.75 14.215 20.75 14.215 20.75 14.2149C20.75 14.2149 20.75 14.2149 20.75 14.2149C20.75 14.2148 20.75 14.2148 20.75 14.2148C20.75 14.2147 20.75 14.2147 20.75 14.2147C20.75 14.2147 20.75 14.2146 20.75 14.2146C20.75 14.2146 20.75 14.2145 20.75 14.2145C20.75 14.2145 20.75 14.2145 20.75 14.2144C20.75 14.2144 20.75 14.2144 20.75 14.2143C20.75 14.2143 20.75 14.2143 20.75 14.2143C20.75 14.2142 20.75 14.2142 20.75 14.2142C20.75 14.2141 20.75 14.2141 20.75 14.2141C20.75 14.2141 20.75 14.214 20.75 14.214C20.75 14.214 20.75 14.2139 20.75 14.2139C20.75 14.2139 20.75 14.2139 20.75 14.2138C20.75 14.2138 20.75 14.2138 20.75 14.2137C20.75 14.2137 20.75 14.2137 20.75 14.2137C20.75 14.2136 20.75 14.2136 20.75 14.2136C20.75 14.2135 20.75 14.2135 20.75 14.2135C20.75 14.2135 20.75 14.2134 20.75 14.2134C20.75 14.2134 20.75 14.2133 20.75 14.2133C20.75 14.2133 20.75 14.2133 20.75 14.2132C20.75 14.2132 20.75 14.2132 20.75 14.2131C20.75 14.2131 20.75 14.2131 20.75 14.2131C20.75 14.213 20.75 14.213 20.75 14.213C20.75 14.2129 20.75 14.2129 20.75 14.2129C20.75 14.2129 20.75 14.2128 20.75 14.2128C20.75 14.2128 20.75 14.2127 20.75 14.2127C20.75 14.2127 20.75 14.2127 20.75 14.2126C20.75 14.2126 20.75 14.2126 20.75 14.2125C20.75 14.2125 20.75 14.2125 20.75 14.2125C20.75 14.2124 20.75 14.2124 20.75 14.2124C20.75 14.2123 20.75 14.2123 20.75 14.2123C20.75 14.2123 20.75 14.2122 20.75 14.2122C20.75 14.2122 20.75 14.2121 20.75 14.2121C20.75 14.2121 20.75 14.2121 20.75 14.212C20.75 14.212 20.75 14.212 20.75 14.2119C20.75 14.2119 20.75 14.2119 20.75 14.2119C20.75 14.2118 20.75 14.2118 20.75 14.2118C20.75 14.2117 20.75 14.2117 20.75 14.2117C20.75 14.2117 20.75 14.2116 20.75 14.2116C20.75 14.2116 20.75 14.2115 20.75 14.2115C20.75 14.2115 20.75 14.2115 20.75 14.2114C20.75 14.2114 20.75 14.2114 20.75 14.2113C20.75 14.2113 20.75 14.2113 20.75 14.2113C20.75 14.2112 20.75 14.2112 20.75 14.2112C20.75 14.2111 20.75 14.2111 20.75 14.2111C20.75 14.2111 20.75 14.211 20.75 14.211C20.75 14.211 20.75 14.2109 20.75 14.2109C20.75 14.2109 20.75 14.2109 20.75 14.2108C20.75 14.2108 20.75 14.2108 20.75 14.2107C20.75 14.2107 20.75 14.2107 20.75 14.2107C20.75 14.2106 20.75 14.2106 20.75 14.2106C20.75 14.2105 20.75 14.2105 20.75 14.2105C20.75 14.2105 20.75 14.2104 20.75 14.2104C20.75 14.2104 20.75 14.2103 20.75 14.2103C20.75 14.2103 20.75 14.2103 20.75 14.2102C20.75 14.2102 20.75 14.2102 20.75 14.2101C20.75 14.2101 20.75 14.2101 20.75 14.2101C20.75 14.21 20.75 14.21 20.75 14.21C20.75 14.2099 20.75 14.2099 20.75 14.2099C20.75 14.2099 20.75 14.2098 20.75 14.2098C20.75 14.2098 20.75 14.2097 20.75 14.2097C20.75 14.2097 20.75 14.2097 20.75 14.2096C20.75 14.2096 20.75 14.2096 20.75 14.2095C20.75 14.2095 20.75 14.2095 20.75 14.2095C20.75 14.2094 20.75 14.2094 20.75 14.2094C20.75 14.2093 20.75 14.2093 20.75 14.2093C20.75 14.2093 20.75 14.2092 20.75 14.2092C20.75 14.2092 20.75 14.2091 20.75 14.2091C20.75 14.2091 20.75 14.2091 20.75 14.209C20.75 14.209 20.75 14.209 20.75 14.2089C20.75 14.2089 20.75 14.2089 20.75 14.2089C20.75 14.2088 20.75 14.2088 20.75 14.2088C20.75 14.2087 20.75 14.2087 20.75 14.2087C20.75 14.2087 20.75 14.2086 20.75 14.2086C20.75 14.2086 20.75 14.2085 20.75 14.2085C20.75 14.2085 20.75 14.2085 20.75 14.2084C20.75 14.2084 20.75 14.2084 20.75 14.2083C20.75 14.2083 20.75 14.2083 20.75 14.2083C20.75 14.2082 20.75 14.2082 20.75 14.2082C20.75 14.2081 20.75 14.2081 20.75 14.2081C20.75 14.2081 20.75 14.208 20.75 14.208C20.75 14.208 20.75 14.2079 20.75 14.2079C20.75 14.2079 20.75 14.2079 20.75 14.2078C20.75 14.2078 20.75 14.2078 20.75 14.2077C20.75 14.2077 20.75 14.2077 20.75 14.2077C20.75 14.2076 20.75 14.2076 20.75 14.2076C20.75 14.2075 20.75 14.2075 20.75 14.2075C20.75 14.2075 20.75 14.2074 20.75 14.2074C20.75 14.2074 20.75 14.2073 20.75 14.2073C20.75 14.2073 20.75 14.2073 20.75 14.2072C20.75 14.2072 20.75 14.2072 20.75 14.2071C20.75 14.2071 20.75 14.2071 20.75 14.2071C20.75 14.207 20.75 14.207 20.75 14.207C20.75 14.2069 20.75 14.2069 20.75 14.2069C20.75 14.2069 20.75 14.2068 20.75 14.2068C20.75 14.2068 20.75 14.2067 20.75 14.2067C20.75 14.2067 20.75 14.2067 20.75 14.2066C20.75 14.2066 20.75 14.2066 20.75 14.2065C20.75 14.2065 20.75 14.2065 20.75 14.2065C20.75 14.2064 20.75 14.2064 20.75 14.2064C20.75 14.2063 20.75 14.2063 20.75 14.2063C20.75 14.2063 20.75 14.2062 20.75 14.2062C20.75 14.2062 20.75 14.2061 20.75 14.2061C20.75 14.2061 20.75 14.2061 20.75 14.206C20.75 14.206 20.75 14.206 20.75 14.2059C20.75 14.2059 20.75 14.2059 20.75 14.2059C20.75 14.2058 20.75 14.2058 20.75 14.2058C20.75 14.2057 20.75 14.2057 20.75 14.2057C20.75 14.2057 20.75 14.2056 20.75 14.2056C20.75 14.2056 20.75 14.2055 20.75 14.2055C20.75 14.2055 20.75 14.2055 20.75 14.2054C20.75 14.2054 20.75 14.2054 20.75 14.2053C20.75 14.2053 20.75 14.2053 20.75 14.2053C20.75 14.2052 20.75 14.2052 20.75 14.2052C20.75 14.2051 20.75 14.2051 20.75 14.2051C20.75 14.2051 20.75 14.205 20.75 14.205C20.75 14.205 20.75 14.2049 20.75 14.2049C20.75 14.2049 20.75 14.2049 20.75 14.2048C20.75 14.2048 20.75 14.2048 20.75 14.2047C20.75 14.2047 20.75 14.2047 20.75 14.2047C20.75 14.2046 20.75 14.2046 20.75 14.2046C20.75 14.2045 20.75 14.2045 20.75 14.2045C20.75 14.2045 20.75 14.2044 20.75 14.2044C20.75 14.2044 20.75 14.2043 20.75 14.2043C20.75 14.2043 20.75 14.2043 20.75 14.2042C20.75 14.2042 20.75 14.2042 20.75 14.2041C20.75 14.2041 20.75 14.2041 20.75 14.2041C20.75 14.204 20.75 14.204 20.75 14.204C20.75 14.2039 20.75 14.2039 20.75 14.2039C20.75 14.2039 20.75 14.2038 20.75 14.2038C20.75 14.2038 20.75 14.2037 20.75 14.2037C20.75 14.2037 20.75 14.2037 20.75 14.2036C20.75 14.2036 20.75 14.2036 20.75 14.2035C20.75 14.2035 20.75 14.2035 20.75 14.2035C20.75 14.2034 20.75 14.2034 20.75 14.2034C20.75 14.2033 20.75 14.2033 20.75 14.2033C20.75 14.2033 20.75 14.2032 20.75 14.2032C20.75 14.2032 20.75 14.2031 20.75 14.2031C20.75 14.2031 20.75 14.2031 20.75 14.203C20.75 14.203 20.75 14.203 20.75 14.2029C20.75 14.2029 20.75 14.2029 20.75 14.2029C20.75 14.2028 20.75 14.2028 20.75 14.2028C20.75 14.2027 20.75 14.2027 20.75 14.2027C20.75 14.2027 20.75 14.2026 20.75 14.2026C20.75 14.2026 20.75 14.2025 20.75 14.2025C20.75 14.2025 20.75 14.2025 20.75 14.2024C20.75 14.2024 20.75 14.2024 20.75 14.2024C20.75 14.2023 20.75 14.2023 20.75 14.2023C20.75 14.2022 20.75 14.2022 20.75 14.2022C20.75 14.2022 20.75 14.2021 20.75 14.2021C20.75 14.2021 20.75 14.202 20.75 14.202C20.75 14.202 20.75 14.202 20.75 14.2019C20.75 14.2019 20.75 14.2019 20.75 14.2018C20.75 14.2018 20.75 14.2018 20.75 14.2018C20.75 14.2017 20.75 14.2017 20.75 14.2017C20.75 14.2016 20.75 14.2016 20.75 14.2016C20.75 14.2016 20.75 14.2015 20.75 14.2015C20.75 14.2015 20.75 14.2014 20.75 14.2014C20.75 14.2014 20.75 14.2014 20.75 14.2013C20.75 14.2013 20.75 14.2013 20.75 14.2012C20.75 14.2012 20.75 14.2012 20.75 14.2012C20.75 14.2011 20.75 14.2011 20.75 14.2011C20.75 14.201 20.75 14.201 20.75 14.201C20.75 14.201 20.75 14.2009 20.75 14.2009C20.75 14.2009 20.75 14.2008 20.75 14.2008C20.75 14.2008 20.75 14.2008 20.75 14.2007C20.75 14.2007 20.75 14.2007 20.75 14.2006C20.75 14.2006 20.75 14.2006 20.75 14.2006C20.75 14.2005 20.75 14.2005 20.75 14.2005C20.75 14.2004 20.75 14.2004 20.75 14.2004C20.75 14.2004 20.75 14.2003 20.75 14.2003C20.75 14.2003 20.75 14.2002 20.75 14.2002C20.75 14.2002 20.75 14.2002 20.75 14.2001C20.75 14.2001 20.75 14.2001 20.75 14.2C20.75 14.2 20.75 14.2 20.75 14.2C20.75 14.1999 20.75 14.1999 20.75 14.1999C20.75 14.1998 20.75 14.1998 20.75 14.1998C20.75 14.1998 20.75 14.1997 20.75 14.1997C20.75 14.1997 20.75 14.1996 20.75 14.1996C20.75 14.1996 20.75 14.1996 20.75 14.1995C20.75 14.1995 20.75 14.1995 20.75 14.1994C20.75 14.1994 20.75 14.1994 20.75 14.1994C20.75 14.1993 20.75 14.1993 20.75 14.1993C20.75 14.1992 20.75 14.1992 20.75 14.1992C20.75 14.1992 20.75 14.1991 20.75 14.1991C20.75 14.1991 20.75 14.199 20.75 14.199C20.75 14.199 20.75 14.199 20.75 14.1989C20.75 14.1989 20.75 14.1989 20.75 14.1988C20.75 14.1988 20.75 14.1988 20.75 14.1988C20.75 14.1987 20.75 14.1987 20.75 14.1987C20.75 14.1986 20.75 14.1986 20.75 14.1986C20.75 14.1986 20.75 14.1985 20.75 14.1985C20.75 14.1985 20.75 14.1984 20.75 14.1984C20.75 14.1984 20.75 14.1984 20.75 14.1983C20.75 14.1983 20.75 14.1983 20.75 14.1982C20.75 14.1982 20.75 14.1982 20.75 14.1982C20.75 14.1981 20.75 14.1981 20.75 14.1981C20.75 14.198 20.75 14.198 20.75 14.198C20.75 14.198 20.75 14.1979 20.75 14.1979C20.75 14.1979 20.75 14.1978 20.75 14.1978C20.75 14.1978 20.75 14.1978 20.75 14.1977C20.75 14.1977 20.75 14.1977 20.75 14.1976C20.75 14.1976 20.75 14.1976 20.75 14.1976C20.75 14.1975 20.75 14.1975 20.75 14.1975C20.75 14.1974 20.75 14.1974 20.75 14.1974C20.75 14.1974 20.75 14.1973 20.75 14.1973C20.75 14.1973 20.75 14.1972 20.75 14.1972C20.75 14.1972 20.75 14.1972 20.75 14.1971C20.75 14.1971 20.75 14.1971 20.75 14.197C20.75 14.197 20.75 14.197 20.75 14.197C20.75 14.1969 20.75 14.1969 20.75 14.1969C20.75 14.1968 20.75 14.1968 20.75 14.1968C20.75 14.1968 20.75 14.1967 20.75 14.1967C20.75 14.1967 20.75 14.1966 20.75 14.1966C20.75 14.1966 20.75 14.1966 20.75 14.1965C20.75 14.1965 20.75 14.1965 20.75 14.1965C20.75 14.1964 20.75 14.1964 20.75 14.1964C20.75 14.1963 20.75 14.1963 20.75 14.1963C20.75 14.1963 20.75 14.1962 20.75 14.1962C20.75 14.1962 20.75 14.1961 20.75 14.1961C20.75 14.1961 20.75 14.1961 20.75 14.196C20.75 14.196 20.75 14.196 20.75 14.1959C20.75 14.1959 20.75 14.1959 20.75 14.1959C20.75 14.1958 20.75 14.1958 20.75 14.1958C20.75 14.1957 20.75 14.1957 20.75 14.1957C20.75 14.1957 20.75 14.1956 20.75 14.1956C20.75 14.1956 20.75 14.1955 20.75 14.1955C20.75 14.1955 20.75 14.1955 20.75 14.1954C20.75 14.1954 20.75 14.1954 20.75 14.1953C20.75 14.1953 20.75 14.1953 20.75 14.1953C20.75 14.1952 20.75 14.1952 20.75 14.1952C20.75 14.1951 20.75 14.1951 20.75 14.1951C20.75 14.1951 20.75 14.195 20.75 14.195C20.75 14.195 20.75 14.1949 20.75 14.1949C20.75 14.1949 20.75 14.1949 20.75 14.1948C20.75 14.1948 20.75 14.1948 20.75 14.1947C20.75 14.1947 20.75 14.1947 20.75 14.1947C20.75 14.1946 20.75 14.1946 20.75 14.1946C20.75 14.1945 20.75 14.1945 20.75 14.1945C20.75 14.1945 20.75 14.1944 20.75 14.1944C20.75 14.1944 20.75 14.1943 20.75 14.1943C20.75 14.1943 20.75 14.1943 20.75 14.1942C20.75 14.1942 20.75 14.1942 20.75 14.1941C20.75 14.1941 20.75 14.1941 20.75 14.1941C20.75 14.194 20.75 14.194 20.75 14.194C20.75 14.1939 20.75 14.1939 20.75 14.1939C20.75 14.1939 20.75 14.1938 20.75 14.1938C20.75 14.1938 20.75 14.1937 20.75 14.1937C20.75 14.1937 20.75 14.1937 20.75 14.1936C20.75 14.1936 20.75 14.1936 20.75 14.1935C20.75 14.1935 20.75 14.1935 20.75 14.1935C20.75 14.1934 20.75 14.1934 20.75 14.1934C20.75 14.1933 20.75 14.1933 20.75 14.1933C20.75 14.1933 20.75 14.1932 20.75 14.1932C20.75 14.1932 20.75 14.1931 20.75 14.1931C20.75 14.1931 20.75 14.1931 20.75 14.193C20.75 14.193 20.75 14.193 20.75 14.1929C20.75 14.1929 20.75 14.1929 20.75 14.1929C20.75 14.1928 20.75 14.1928 20.75 14.1928C20.75 14.1927 20.75 14.1927 20.75 14.1927C20.75 14.1927 20.75 14.1926 20.75 14.1926C20.75 14.1926 20.75 14.1925 20.75 14.1925C20.75 14.1925 20.75 14.1925 20.75 14.1924C20.75 14.1924 20.75 14.1924 20.75 14.1924C20.75 14.1923 20.75 14.1923 20.75 14.1923C20.75 14.1922 20.75 14.1922 20.75 14.1922C20.75 14.1922 20.75 14.1921 20.75 14.1921C20.75 14.1921 20.75 14.192 20.75 14.192C20.75 14.192 20.75 14.192 20.75 14.1919C20.75 14.1919 20.75 14.1919 20.75 14.1918C20.75 14.1918 20.75 14.1918 20.75 14.1918C20.75 14.1917 20.75 14.1917 20.75 14.1917C20.75 14.1916 20.75 14.1916 20.75 14.1916C20.75 14.1916 20.75 14.1915 20.75 14.1915C20.75 14.1915 20.75 14.1914 20.75 14.1914C20.75 14.1914 20.75 14.1914 20.75 14.1913C20.75 14.1913 20.75 14.1913 20.75 14.1912C20.75 14.1912 20.75 14.1912 20.75 14.1912C20.75 14.1911 20.75 14.1911 20.75 14.1911C20.75 14.191 20.75 14.191 20.75 14.191C20.75 14.191 20.75 14.1909 20.75 14.1909C20.75 14.1909 20.75 14.1908 20.75 14.1908C20.75 14.1908 20.75 14.1908 20.75 14.1907C20.75 14.1907 20.75 14.1907 20.75 14.1906C20.75 14.1906 20.75 14.1906 20.75 14.1906C20.75 14.1905 20.75 14.1905 20.75 14.1905C20.75 14.1904 20.75 14.1904 20.75 14.1904C20.75 14.1904 20.75 14.1903 20.75 14.1903C20.75 14.1903 20.75 14.1902 20.75 14.1902C20.75 14.1902 20.75 14.1902 20.75 14.1901C20.75 14.1901 20.75 14.1901 20.75 14.19C20.75 14.19 20.75 14.19 20.75 14.19C20.75 14.1899 20.75 14.1899 20.75 14.1899C20.75 14.1898 20.75 14.1898 20.75 14.1898C20.75 14.1898 20.75 14.1897 20.75 14.1897C20.75 14.1897 20.75 14.1896 20.75 14.1896C20.75 14.1896 20.75 14.1896 20.75 14.1895C20.75 14.1895 20.75 14.1895 20.75 14.1894C20.75 14.1894 20.75 14.1894 20.75 14.1894C20.75 14.1893 20.75 14.1893 20.75 14.1893C20.75 14.1892 20.75 14.1892 20.75 14.1892C20.75 14.1892 20.75 14.1891 20.75 14.1891C20.75 14.1891 20.75 14.1891 20.75 14.189C20.75 14.189 20.75 14.189 20.75 14.1889C20.75 14.1889 20.75 14.1889 20.75 14.1889C20.75 14.1888 20.75 14.1888 20.75 14.1888C20.75 14.1887 20.75 14.1887 20.75 14.1887C20.75 14.1887 20.75 14.1886 20.75 14.1886C20.75 14.1886 20.75 14.1885 20.75 14.1885C20.75 14.1885 20.75 14.1885 20.75 14.1884C20.75 14.1884 20.75 14.1884 20.75 14.1883C20.75 14.1883 20.75 14.1883 20.75 14.1883C20.75 14.1882 20.75 14.1882 20.75 14.1882C20.75 14.1881 20.75 14.1881 20.75 14.1881C20.75 14.1881 20.75 14.188 20.75 14.188C20.75 14.188 20.75 14.1879 20.75 14.1879C20.75 14.1879 20.75 14.1879 20.75 14.1878C20.75 14.1878 20.75 14.1878 20.75 14.1877C20.75 14.1877 20.75 14.1877 20.75 14.1877C20.75 14.1876 20.75 14.1876 20.75 14.1876C20.75 14.1875 20.75 14.1875 20.75 14.1875C20.75 14.1875 20.75 14.1874 20.75 14.1874C20.75 14.1874 20.75 14.1873 20.75 14.1873C20.75 14.1873 20.75 14.1873 20.75 14.1872C20.75 14.1872 20.75 14.1872 20.75 14.1871C20.75 14.1871 20.75 14.1871 20.75 14.1871C20.75 14.187 20.75 14.187 20.75 14.187C20.75 14.1869 20.75 14.1869 20.75 14.1869C20.75 14.1869 20.75 14.1868 20.75 14.1868C20.75 14.1868 20.75 14.1867 20.75 14.1867C20.75 14.1867 20.75 14.1867 20.75 14.1866C20.75 14.1866 20.75 14.1866 20.75 14.1866C20.75 14.1865 20.75 14.1865 20.75 14.1865C20.75 14.1864 20.75 14.1864 20.75 14.1864C20.75 14.1864 20.75 14.1863 20.75 14.1863C20.75 14.1863 20.75 14.1862 20.75 14.1862C20.75 14.1862 20.75 14.1862 20.75 14.1861C20.75 14.1861 20.75 14.1861 20.75 14.186C20.75 14.186 20.75 14.186 20.75 14.186C20.75 14.1859 20.75 14.1859 20.75 14.1859C20.75 14.1858 20.75 14.1858 20.75 14.1858C20.75 14.1858 20.75 14.1857 20.75 14.1857C20.75 14.1857 20.75 14.1856 20.75 14.1856C20.75 14.1856 20.75 14.1856 20.75 14.1855C20.75 14.1855 20.75 14.1855 20.75 14.1854C20.75 14.1854 20.75 14.1854 20.75 14.1854C20.75 14.1853 20.75 14.1853 20.75 14.1853C20.75 14.1852 20.75 14.1852 20.75 14.1852C20.75 14.1852 20.75 14.1851 20.75 14.1851C20.75 14.1851 20.75 14.185 20.75 14.185C20.75 14.185 20.75 14.185 20.75 14.1849C20.75 14.1849 20.75 14.1849 20.75 14.1848C20.75 14.1848 20.75 14.1848 20.75 14.1848C20.75 14.1847 20.75 14.1847 20.75 14.1847C20.75 14.1846 20.75 14.1846 20.75 14.1846C20.75 14.1846 20.75 14.1845 20.75 14.1845C20.75 14.1845 20.75 14.1844 20.75 14.1844C20.75 14.1844 20.75 14.1844 20.75 14.1843C20.75 14.1843 20.75 14.1843 20.75 14.1842C20.75 14.1842 20.75 14.1842 20.75 14.1842C20.75 14.1841 20.75 14.1841 20.75 14.1841C20.75 14.1841 20.75 14.184 20.75 14.184C20.75 14.184 20.75 14.1839 20.75 14.1839C20.75 14.1839 20.75 14.1839 20.75 14.1838C20.75 14.1838 20.75 14.1838 20.75 14.1837C20.75 14.1837 20.75 14.1837 20.75 14.1837C20.75 14.1836 20.75 14.1836 20.75 14.1836C20.75 14.1835 20.75 14.1835 20.75 14.1835C20.75 14.1835 20.75 14.1834 20.75 14.1834C20.75 14.1834 20.75 14.1833 20.75 14.1833C20.75 14.1833 20.75 14.1833 20.75 14.1832C20.75 14.1832 20.75 14.1832 20.75 14.1831C20.75 14.1831 20.75 14.1831 20.75 14.1831C20.75 14.183 20.75 14.183 20.75 14.183C20.75 14.1829 20.75 14.1829 20.75 14.1829C20.75 14.1829 20.75 14.1828 20.75 14.1828C20.75 14.1828 20.75 14.1827 20.75 14.1827C20.75 14.1827 20.75 14.1827 20.75 14.1826C20.75 14.1826 20.75 14.1826 20.75 14.1825C20.75 14.1825 20.75 14.1825 20.75 14.1825C20.75 14.1824 20.75 14.1824 20.75 14.1824C20.75 14.1823 20.75 14.1823 20.75 14.1823C20.75 14.1823 20.75 14.1822 20.75 14.1822C20.75 14.1822 20.75 14.1821 20.75 14.1821C20.75 14.1821 20.75 14.1821 20.75 14.182C20.75 14.182 20.75 14.182 20.75 14.1819C20.75 14.1819 20.75 14.1819 20.75 14.1819C20.75 14.1818 20.75 14.1818 20.75 14.1818C20.75 14.1818 20.75 14.1817 20.75 14.1817C20.75 14.1817 20.75 14.1816 20.75 14.1816C20.75 14.1816 20.75 14.1816 20.75 14.1815C20.75 14.1815 20.75 14.1815 20.75 14.1814C20.75 14.1814 20.75 14.1814 20.75 14.1814C20.75 14.1813 20.75 14.1813 20.75 14.1813C20.75 14.1812 20.75 14.1812 20.75 14.1812C20.75 14.1812 20.75 14.1811 20.75 14.1811C20.75 14.1811 20.75 14.181 20.75 14.181C20.75 14.181 20.75 14.181 20.75 14.1809C20.75 14.1809 20.75 14.1809 20.75 14.1808H20.25C20.25 14.1809 20.25 14.1809 20.25 14.1809C20.25 14.181 20.25 14.181 20.25 14.181C20.25 14.181 20.25 14.1811 20.25 14.1811C20.25 14.1811 20.25 14.1812 20.25 14.1812C20.25 14.1812 20.25 14.1812 20.25 14.1813C20.25 14.1813 20.25 14.1813 20.25 14.1814C20.25 14.1814 20.25 14.1814 20.25 14.1814C20.25 14.1815 20.25 14.1815 20.25 14.1815C20.25 14.1816 20.25 14.1816 20.25 14.1816C20.25 14.1816 20.25 14.1817 20.25 14.1817C20.25 14.1817 20.25 14.1818 20.25 14.1818C20.25 14.1818 20.25 14.1818 20.25 14.1819C20.25 14.1819 20.25 14.1819 20.25 14.1819C20.25 14.182 20.25 14.182 20.25 14.182C20.25 14.1821 20.25 14.1821 20.25 14.1821C20.25 14.1821 20.25 14.1822 20.25 14.1822C20.25 14.1822 20.25 14.1823 20.25 14.1823C20.25 14.1823 20.25 14.1823 20.25 14.1824C20.25 14.1824 20.25 14.1824 20.25 14.1825C20.25 14.1825 20.25 14.1825 20.25 14.1825C20.25 14.1826 20.25 14.1826 20.25 14.1826C20.25 14.1827 20.25 14.1827 20.25 14.1827C20.25 14.1827 20.25 14.1828 20.25 14.1828C20.25 14.1828 20.25 14.1829 20.25 14.1829C20.25 14.1829 20.25 14.1829 20.25 14.183C20.25 14.183 20.25 14.183 20.25 14.1831C20.25 14.1831 20.25 14.1831 20.25 14.1831C20.25 14.1832 20.25 14.1832 20.25 14.1832C20.25 14.1833 20.25 14.1833 20.25 14.1833C20.25 14.1833 20.25 14.1834 20.25 14.1834C20.25 14.1834 20.25 14.1835 20.25 14.1835C20.25 14.1835 20.25 14.1835 20.25 14.1836C20.25 14.1836 20.25 14.1836 20.25 14.1837C20.25 14.1837 20.25 14.1837 20.25 14.1837C20.25 14.1838 20.25 14.1838 20.25 14.1838C20.25 14.1839 20.25 14.1839 20.25 14.1839C20.25 14.1839 20.25 14.184 20.25 14.184C20.25 14.184 20.25 14.1841 20.25 14.1841C20.25 14.1841 20.25 14.1841 20.25 14.1842C20.25 14.1842 20.25 14.1842 20.25 14.1842C20.25 14.1843 20.25 14.1843 20.25 14.1843C20.25 14.1844 20.25 14.1844 20.25 14.1844C20.25 14.1844 20.25 14.1845 20.25 14.1845C20.25 14.1845 20.25 14.1846 20.25 14.1846C20.25 14.1846 20.25 14.1846 20.25 14.1847C20.25 14.1847 20.25 14.1847 20.25 14.1848C20.25 14.1848 20.25 14.1848 20.25 14.1848C20.25 14.1849 20.25 14.1849 20.25 14.1849C20.25 14.185 20.25 14.185 20.25 14.185C20.25 14.185 20.25 14.1851 20.25 14.1851C20.25 14.1851 20.25 14.1852 20.25 14.1852C20.25 14.1852 20.25 14.1852 20.25 14.1853C20.25 14.1853 20.25 14.1853 20.25 14.1854C20.25 14.1854 20.25 14.1854 20.25 14.1854C20.25 14.1855 20.25 14.1855 20.25 14.1855C20.25 14.1856 20.25 14.1856 20.25 14.1856C20.25 14.1856 20.25 14.1857 20.25 14.1857C20.25 14.1857 20.25 14.1858 20.25 14.1858C20.25 14.1858 20.25 14.1858 20.25 14.1859C20.25 14.1859 20.25 14.1859 20.25 14.186C20.25 14.186 20.25 14.186 20.25 14.186C20.25 14.1861 20.25 14.1861 20.25 14.1861C20.25 14.1862 20.25 14.1862 20.25 14.1862C20.25 14.1862 20.25 14.1863 20.25 14.1863C20.25 14.1863 20.25 14.1864 20.25 14.1864C20.25 14.1864 20.25 14.1864 20.25 14.1865C20.25 14.1865 20.25 14.1865 20.25 14.1866C20.25 14.1866 20.25 14.1866 20.25 14.1866C20.25 14.1867 20.25 14.1867 20.25 14.1867C20.25 14.1867 20.25 14.1868 20.25 14.1868C20.25 14.1868 20.25 14.1869 20.25 14.1869C20.25 14.1869 20.25 14.1869 20.25 14.187C20.25 14.187 20.25 14.187 20.25 14.1871C20.25 14.1871 20.25 14.1871 20.25 14.1871C20.25 14.1872 20.25 14.1872 20.25 14.1872C20.25 14.1873 20.25 14.1873 20.25 14.1873C20.25 14.1873 20.25 14.1874 20.25 14.1874C20.25 14.1874 20.25 14.1875 20.25 14.1875C20.25 14.1875 20.25 14.1875 20.25 14.1876C20.25 14.1876 20.25 14.1876 20.25 14.1877C20.25 14.1877 20.25 14.1877 20.25 14.1877C20.25 14.1878 20.25 14.1878 20.25 14.1878C20.25 14.1879 20.25 14.1879 20.25 14.1879C20.25 14.1879 20.25 14.188 20.25 14.188C20.25 14.188 20.25 14.1881 20.25 14.1881C20.25 14.1881 20.25 14.1881 20.25 14.1882C20.25 14.1882 20.25 14.1882 20.25 14.1883C20.25 14.1883 20.25 14.1883 20.25 14.1883C20.25 14.1884 20.25 14.1884 20.25 14.1884C20.25 14.1885 20.25 14.1885 20.25 14.1885C20.25 14.1885 20.25 14.1886 20.25 14.1886C20.25 14.1886 20.25 14.1887 20.25 14.1887C20.25 14.1887 20.25 14.1887 20.25 14.1888C20.25 14.1888 20.25 14.1888 20.25 14.1889C20.25 14.1889 20.25 14.1889 20.25 14.1889C20.25 14.189 20.25 14.189 20.25 14.189C20.25 14.1891 20.25 14.1891 20.25 14.1891C20.25 14.1891 20.25 14.1892 20.25 14.1892C20.25 14.1892 20.25 14.1892 20.25 14.1893C20.25 14.1893 20.25 14.1893 20.25 14.1894C20.25 14.1894 20.25 14.1894 20.25 14.1894C20.25 14.1895 20.25 14.1895 20.25 14.1895C20.25 14.1896 20.25 14.1896 20.25 14.1896C20.25 14.1896 20.25 14.1897 20.25 14.1897C20.25 14.1897 20.25 14.1898 20.25 14.1898C20.25 14.1898 20.25 14.1898 20.25 14.1899C20.25 14.1899 20.25 14.1899 20.25 14.19C20.25 14.19 20.25 14.19 20.25 14.19C20.25 14.1901 20.25 14.1901 20.25 14.1901C20.25 14.1902 20.25 14.1902 20.25 14.1902C20.25 14.1902 20.25 14.1903 20.25 14.1903C20.25 14.1903 20.25 14.1904 20.25 14.1904C20.25 14.1904 20.25 14.1904 20.25 14.1905C20.25 14.1905 20.25 14.1905 20.25 14.1906C20.25 14.1906 20.25 14.1906 20.25 14.1906C20.25 14.1907 20.25 14.1907 20.25 14.1907C20.25 14.1908 20.25 14.1908 20.25 14.1908C20.25 14.1908 20.25 14.1909 20.25 14.1909C20.25 14.1909 20.25 14.191 20.25 14.191C20.25 14.191 20.25 14.191 20.25 14.1911C20.25 14.1911 20.25 14.1911 20.25 14.1912C20.25 14.1912 20.25 14.1912 20.25 14.1912C20.25 14.1913 20.25 14.1913 20.25 14.1913C20.25 14.1914 20.25 14.1914 20.25 14.1914C20.25 14.1914 20.25 14.1915 20.25 14.1915C20.25 14.1915 20.25 14.1916 20.25 14.1916C20.25 14.1916 20.25 14.1916 20.25 14.1917C20.25 14.1917 20.25 14.1917 20.25 14.1918C20.25 14.1918 20.25 14.1918 20.25 14.1918C20.25 14.1919 20.25 14.1919 20.25 14.1919C20.25 14.192 20.25 14.192 20.25 14.192C20.25 14.192 20.25 14.1921 20.25 14.1921C20.25 14.1921 20.25 14.1922 20.25 14.1922C20.25 14.1922 20.25 14.1922 20.25 14.1923C20.25 14.1923 20.25 14.1923 20.25 14.1924C20.25 14.1924 20.25 14.1924 20.25 14.1924C20.25 14.1925 20.25 14.1925 20.25 14.1925C20.25 14.1925 20.25 14.1926 20.25 14.1926C20.25 14.1926 20.25 14.1927 20.25 14.1927C20.25 14.1927 20.25 14.1927 20.25 14.1928C20.25 14.1928 20.25 14.1928 20.25 14.1929C20.25 14.1929 20.25 14.1929 20.25 14.1929C20.25 14.193 20.25 14.193 20.25 14.193C20.25 14.1931 20.25 14.1931 20.25 14.1931C20.25 14.1931 20.25 14.1932 20.25 14.1932C20.25 14.1932 20.25 14.1933 20.25 14.1933C20.25 14.1933 20.25 14.1933 20.25 14.1934C20.25 14.1934 20.25 14.1934 20.25 14.1935C20.25 14.1935 20.25 14.1935 20.25 14.1935C20.25 14.1936 20.25 14.1936 20.25 14.1936C20.25 14.1937 20.25 14.1937 20.25 14.1937C20.25 14.1937 20.25 14.1938 20.25 14.1938C20.25 14.1938 20.25 14.1939 20.25 14.1939C20.25 14.1939 20.25 14.1939 20.25 14.194C20.25 14.194 20.25 14.194 20.25 14.1941C20.25 14.1941 20.25 14.1941 20.25 14.1941C20.25 14.1942 20.25 14.1942 20.25 14.1942C20.25 14.1943 20.25 14.1943 20.25 14.1943C20.25 14.1943 20.25 14.1944 20.25 14.1944C20.25 14.1944 20.25 14.1945 20.25 14.1945C20.25 14.1945 20.25 14.1945 20.25 14.1946C20.25 14.1946 20.25 14.1946 20.25 14.1947C20.25 14.1947 20.25 14.1947 20.25 14.1947C20.25 14.1948 20.25 14.1948 20.25 14.1948C20.25 14.1949 20.25 14.1949 20.25 14.1949C20.25 14.1949 20.25 14.195 20.25 14.195C20.25 14.195 20.25 14.1951 20.25 14.1951C20.25 14.1951 20.25 14.1951 20.25 14.1952C20.25 14.1952 20.25 14.1952 20.25 14.1953C20.25 14.1953 20.25 14.1953 20.25 14.1953C20.25 14.1954 20.25 14.1954 20.25 14.1954C20.25 14.1955 20.25 14.1955 20.25 14.1955C20.25 14.1955 20.25 14.1956 20.25 14.1956C20.25 14.1956 20.25 14.1957 20.25 14.1957C20.25 14.1957 20.25 14.1957 20.25 14.1958C20.25 14.1958 20.25 14.1958 20.25 14.1959C20.25 14.1959 20.25 14.1959 20.25 14.1959C20.25 14.196 20.25 14.196 20.25 14.196C20.25 14.1961 20.25 14.1961 20.25 14.1961C20.25 14.1961 20.25 14.1962 20.25 14.1962C20.25 14.1962 20.25 14.1963 20.25 14.1963C20.25 14.1963 20.25 14.1963 20.25 14.1964C20.25 14.1964 20.25 14.1964 20.25 14.1965C20.25 14.1965 20.25 14.1965 20.25 14.1965C20.25 14.1966 20.25 14.1966 20.25 14.1966C20.25 14.1966 20.25 14.1967 20.25 14.1967C20.25 14.1967 20.25 14.1968 20.25 14.1968C20.25 14.1968 20.25 14.1968 20.25 14.1969C20.25 14.1969 20.25 14.1969 20.25 14.197C20.25 14.197 20.25 14.197 20.25 14.197C20.25 14.1971 20.25 14.1971 20.25 14.1971C20.25 14.1972 20.25 14.1972 20.25 14.1972C20.25 14.1972 20.25 14.1973 20.25 14.1973C20.25 14.1973 20.25 14.1974 20.25 14.1974C20.25 14.1974 20.25 14.1974 20.25 14.1975C20.25 14.1975 20.25 14.1975 20.25 14.1976C20.25 14.1976 20.25 14.1976 20.25 14.1976C20.25 14.1977 20.25 14.1977 20.25 14.1977C20.25 14.1978 20.25 14.1978 20.25 14.1978C20.25 14.1978 20.25 14.1979 20.25 14.1979C20.25 14.1979 20.25 14.198 20.25 14.198C20.25 14.198 20.25 14.198 20.25 14.1981C20.25 14.1981 20.25 14.1981 20.25 14.1982C20.25 14.1982 20.25 14.1982 20.25 14.1982C20.25 14.1983 20.25 14.1983 20.25 14.1983C20.25 14.1984 20.25 14.1984 20.25 14.1984C20.25 14.1984 20.25 14.1985 20.25 14.1985C20.25 14.1985 20.25 14.1986 20.25 14.1986C20.25 14.1986 20.25 14.1986 20.25 14.1987C20.25 14.1987 20.25 14.1987 20.25 14.1988C20.25 14.1988 20.25 14.1988 20.25 14.1988C20.25 14.1989 20.25 14.1989 20.25 14.1989C20.25 14.199 20.25 14.199 20.25 14.199C20.25 14.199 20.25 14.1991 20.25 14.1991C20.25 14.1991 20.25 14.1992 20.25 14.1992C20.25 14.1992 20.25 14.1992 20.25 14.1993C20.25 14.1993 20.25 14.1993 20.25 14.1994C20.25 14.1994 20.25 14.1994 20.25 14.1994C20.25 14.1995 20.25 14.1995 20.25 14.1995C20.25 14.1996 20.25 14.1996 20.25 14.1996C20.25 14.1996 20.25 14.1997 20.25 14.1997C20.25 14.1997 20.25 14.1998 20.25 14.1998C20.25 14.1998 20.25 14.1998 20.25 14.1999C20.25 14.1999 20.25 14.1999 20.25 14.2C20.25 14.2 20.25 14.2 20.25 14.2C20.25 14.2001 20.25 14.2001 20.25 14.2001C20.25 14.2002 20.25 14.2002 20.25 14.2002C20.25 14.2002 20.25 14.2003 20.25 14.2003C20.25 14.2003 20.25 14.2004 20.25 14.2004C20.25 14.2004 20.25 14.2004 20.25 14.2005C20.25 14.2005 20.25 14.2005 20.25 14.2006C20.25 14.2006 20.25 14.2006 20.25 14.2006C20.25 14.2007 20.25 14.2007 20.25 14.2007C20.25 14.2008 20.25 14.2008 20.25 14.2008C20.25 14.2008 20.25 14.2009 20.25 14.2009C20.25 14.2009 20.25 14.201 20.25 14.201C20.25 14.201 20.25 14.201 20.25 14.2011C20.25 14.2011 20.25 14.2011 20.25 14.2012C20.25 14.2012 20.25 14.2012 20.25 14.2012C20.25 14.2013 20.25 14.2013 20.25 14.2013C20.25 14.2014 20.25 14.2014 20.25 14.2014C20.25 14.2014 20.25 14.2015 20.25 14.2015C20.25 14.2015 20.25 14.2016 20.25 14.2016C20.25 14.2016 20.25 14.2016 20.25 14.2017C20.25 14.2017 20.25 14.2017 20.25 14.2018C20.25 14.2018 20.25 14.2018 20.25 14.2018C20.25 14.2019 20.25 14.2019 20.25 14.2019C20.25 14.202 20.25 14.202 20.25 14.202C20.25 14.202 20.25 14.2021 20.25 14.2021C20.25 14.2021 20.25 14.2022 20.25 14.2022C20.25 14.2022 20.25 14.2022 20.25 14.2023C20.25 14.2023 20.25 14.2023 20.25 14.2024C20.25 14.2024 20.25 14.2024 20.25 14.2024C20.25 14.2025 20.25 14.2025 20.25 14.2025C20.25 14.2025 20.25 14.2026 20.25 14.2026C20.25 14.2026 20.25 14.2027 20.25 14.2027C20.25 14.2027 20.25 14.2027 20.25 14.2028C20.25 14.2028 20.25 14.2028 20.25 14.2029C20.25 14.2029 20.25 14.2029 20.25 14.2029C20.25 14.203 20.25 14.203 20.25 14.203C20.25 14.2031 20.25 14.2031 20.25 14.2031C20.25 14.2031 20.25 14.2032 20.25 14.2032C20.25 14.2032 20.25 14.2033 20.25 14.2033C20.25 14.2033 20.25 14.2033 20.25 14.2034C20.25 14.2034 20.25 14.2034 20.25 14.2035C20.25 14.2035 20.25 14.2035 20.25 14.2035C20.25 14.2036 20.25 14.2036 20.25 14.2036C20.25 14.2037 20.25 14.2037 20.25 14.2037C20.25 14.2037 20.25 14.2038 20.25 14.2038C20.25 14.2038 20.25 14.2039 20.25 14.2039C20.25 14.2039 20.25 14.2039 20.25 14.204C20.25 14.204 20.25 14.204 20.25 14.2041C20.25 14.2041 20.25 14.2041 20.25 14.2041C20.25 14.2042 20.25 14.2042 20.25 14.2042C20.25 14.2043 20.25 14.2043 20.25 14.2043C20.25 14.2043 20.25 14.2044 20.25 14.2044C20.25 14.2044 20.25 14.2045 20.25 14.2045C20.25 14.2045 20.25 14.2045 20.25 14.2046C20.25 14.2046 20.25 14.2046 20.25 14.2047C20.25 14.2047 20.25 14.2047 20.25 14.2047C20.25 14.2048 20.25 14.2048 20.25 14.2048C20.25 14.2049 20.25 14.2049 20.25 14.2049C20.25 14.2049 20.25 14.205 20.25 14.205C20.25 14.205 20.25 14.2051 20.25 14.2051C20.25 14.2051 20.25 14.2051 20.25 14.2052C20.25 14.2052 20.25 14.2052 20.25 14.2053C20.25 14.2053 20.25 14.2053 20.25 14.2053C20.25 14.2054 20.25 14.2054 20.25 14.2054C20.25 14.2055 20.25 14.2055 20.25 14.2055C20.25 14.2055 20.25 14.2056 20.25 14.2056C20.25 14.2056 20.25 14.2057 20.25 14.2057C20.25 14.2057 20.25 14.2057 20.25 14.2058C20.25 14.2058 20.25 14.2058 20.25 14.2059C20.25 14.2059 20.25 14.2059 20.25 14.2059C20.25 14.206 20.25 14.206 20.25 14.206C20.25 14.2061 20.25 14.2061 20.25 14.2061C20.25 14.2061 20.25 14.2062 20.25 14.2062C20.25 14.2062 20.25 14.2063 20.25 14.2063C20.25 14.2063 20.25 14.2063 20.25 14.2064C20.25 14.2064 20.25 14.2064 20.25 14.2065C20.25 14.2065 20.25 14.2065 20.25 14.2065C20.25 14.2066 20.25 14.2066 20.25 14.2066C20.25 14.2067 20.25 14.2067 20.25 14.2067C20.25 14.2067 20.25 14.2068 20.25 14.2068C20.25 14.2068 20.25 14.2069 20.25 14.2069C20.25 14.2069 20.25 14.2069 20.25 14.207C20.25 14.207 20.25 14.207 20.25 14.2071C20.25 14.2071 20.25 14.2071 20.25 14.2071C20.25 14.2072 20.25 14.2072 20.25 14.2072C20.25 14.2073 20.25 14.2073 20.25 14.2073C20.25 14.2073 20.25 14.2074 20.25 14.2074C20.25 14.2074 20.25 14.2075 20.25 14.2075C20.25 14.2075 20.25 14.2075 20.25 14.2076C20.25 14.2076 20.25 14.2076 20.25 14.2077C20.25 14.2077 20.25 14.2077 20.25 14.2077C20.25 14.2078 20.25 14.2078 20.25 14.2078C20.25 14.2079 20.25 14.2079 20.25 14.2079C20.25 14.2079 20.25 14.208 20.25 14.208C20.25 14.208 20.25 14.2081 20.25 14.2081C20.25 14.2081 20.25 14.2081 20.25 14.2082C20.25 14.2082 20.25 14.2082 20.25 14.2083C20.25 14.2083 20.25 14.2083 20.25 14.2083C20.25 14.2084 20.25 14.2084 20.25 14.2084C20.25 14.2085 20.25 14.2085 20.25 14.2085C20.25 14.2085 20.25 14.2086 20.25 14.2086C20.25 14.2086 20.25 14.2087 20.25 14.2087C20.25 14.2087 20.25 14.2087 20.25 14.2088C20.25 14.2088 20.25 14.2088 20.25 14.2089C20.25 14.2089 20.25 14.2089 20.25 14.2089C20.25 14.209 20.25 14.209 20.25 14.209C20.25 14.2091 20.25 14.2091 20.25 14.2091C20.25 14.2091 20.25 14.2092 20.25 14.2092C20.25 14.2092 20.25 14.2093 20.25 14.2093C20.25 14.2093 20.25 14.2093 20.25 14.2094C20.25 14.2094 20.25 14.2094 20.25 14.2095C20.25 14.2095 20.25 14.2095 20.25 14.2095C20.25 14.2096 20.25 14.2096 20.25 14.2096C20.25 14.2097 20.25 14.2097 20.25 14.2097C20.25 14.2097 20.25 14.2098 20.25 14.2098C20.25 14.2098 20.25 14.2099 20.25 14.2099C20.25 14.2099 20.25 14.2099 20.25 14.21C20.25 14.21 20.25 14.21 20.25 14.2101C20.25 14.2101 20.25 14.2101 20.25 14.2101C20.25 14.2102 20.25 14.2102 20.25 14.2102C20.25 14.2103 20.25 14.2103 20.25 14.2103C20.25 14.2103 20.25 14.2104 20.25 14.2104C20.25 14.2104 20.25 14.2105 20.25 14.2105C20.25 14.2105 20.25 14.2105 20.25 14.2106C20.25 14.2106 20.25 14.2106 20.25 14.2107C20.25 14.2107 20.25 14.2107 20.25 14.2107C20.25 14.2108 20.25 14.2108 20.25 14.2108C20.25 14.2109 20.25 14.2109 20.25 14.2109C20.25 14.2109 20.25 14.211 20.25 14.211C20.25 14.211 20.25 14.2111 20.25 14.2111C20.25 14.2111 20.25 14.2111 20.25 14.2112C20.25 14.2112 20.25 14.2112 20.25 14.2113C20.25 14.2113 20.25 14.2113 20.25 14.2113C20.25 14.2114 20.25 14.2114 20.25 14.2114C20.25 14.2115 20.25 14.2115 20.25 14.2115C20.25 14.2115 20.25 14.2116 20.25 14.2116C20.25 14.2116 20.25 14.2117 20.25 14.2117C20.25 14.2117 20.25 14.2117 20.25 14.2118C20.25 14.2118 20.25 14.2118 20.25 14.2119C20.25 14.2119 20.25 14.2119 20.25 14.2119C20.25 14.212 20.25 14.212 20.25 14.212C20.25 14.2121 20.25 14.2121 20.25 14.2121C20.25 14.2121 20.25 14.2122 20.25 14.2122C20.25 14.2122 20.25 14.2123 20.25 14.2123C20.25 14.2123 20.25 14.2123 20.25 14.2124C20.25 14.2124 20.25 14.2124 20.25 14.2125C20.25 14.2125 20.25 14.2125 20.25 14.2125C20.25 14.2126 20.25 14.2126 20.25 14.2126C20.25 14.2127 20.25 14.2127 20.25 14.2127C20.25 14.2127 20.25 14.2128 20.25 14.2128C20.25 14.2128 20.25 14.2129 20.25 14.2129C20.25 14.2129 20.25 14.2129 20.25 14.213C20.25 14.213 20.25 14.213 20.25 14.2131C20.25 14.2131 20.25 14.2131 20.25 14.2131C20.25 14.2132 20.25 14.2132 20.25 14.2132C20.25 14.2133 20.25 14.2133 20.25 14.2133C20.25 14.2133 20.25 14.2134 20.25 14.2134C20.25 14.2134 20.25 14.2135 20.25 14.2135C20.25 14.2135 20.25 14.2135 20.25 14.2136C20.25 14.2136 20.25 14.2136 20.25 14.2137C20.25 14.2137 20.25 14.2137 20.25 14.2137C20.25 14.2138 20.25 14.2138 20.25 14.2138C20.25 14.2139 20.25 14.2139 20.25 14.2139C20.25 14.2139 20.25 14.214 20.25 14.214C20.25 14.214 20.25 14.2141 20.25 14.2141C20.25 14.2141 20.25 14.2141 20.25 14.2142C20.25 14.2142 20.25 14.2142 20.25 14.2143C20.25 14.2143 20.25 14.2143 20.25 14.2143C20.25 14.2144 20.25 14.2144 20.25 14.2144C20.25 14.2145 20.25 14.2145 20.25 14.2145C20.25 14.2145 20.25 14.2146 20.25 14.2146C20.25 14.2146 20.25 14.2147 20.25 14.2147C20.25 14.2147 20.25 14.2147 20.25 14.2148C20.25 14.2148 20.25 14.2148 20.25 14.2149C20.25 14.2149 20.25 14.2149 20.25 14.2149C20.25 14.215 20.25 14.215 20.25 14.215C20.25 14.2151 20.25 14.2151 20.25 14.2151C20.25 14.2151 20.25 14.2152 20.25 14.2152C20.25 14.2152 20.25 14.2153 20.25 14.2153C20.25 14.2153 20.25 14.2154 20.25 14.2154C20.25 14.2154 20.25 14.2154 20.25 14.2155C20.25 14.2155 20.25 14.2155 20.25 14.2156C20.25 14.2156 20.25 14.2156 20.25 14.2156C20.25 14.2157 20.25 14.2157 20.25 14.2157C20.25 14.2158 20.25 14.2158 20.25 14.2158C20.25 14.2158 20.25 14.2159 20.25 14.2159C20.25 14.2159 20.25 14.216 20.25 14.216C20.25 14.216 20.25 14.216 20.25 14.2161C20.25 14.2161 20.25 14.2161 20.25 14.2162C20.25 14.2162 20.25 14.2162 20.25 14.2162C20.25 14.2163 20.25 14.2163 20.25 14.2163C20.25 14.2164 20.25 14.2164 20.25 14.2164C20.25 14.2164 20.25 14.2165 20.25 14.2165C20.25 14.2165 20.25 14.2166 20.25 14.2166C20.25 14.2166 20.25 14.2166 20.25 14.2167C20.25 14.2167 20.25 14.2167 20.25 14.2168C20.25 14.2168 20.25 14.2168 20.25 14.2168C20.25 14.2169 20.25 14.2169 20.25 14.2169C20.25 14.217 20.25 14.217 20.25 14.217C20.25 14.217 20.25 14.2171 20.25 14.2171C20.25 14.2171 20.25 14.2172 20.25 14.2172C20.25 14.2172 20.25 14.2172 20.25 14.2173C20.25 14.2173 20.25 14.2173 20.25 14.2174C20.25 14.2174 20.25 14.2174 20.25 14.2174C20.25 14.2175 20.25 14.2175 20.25 14.2175C20.25 14.2176 20.25 14.2176 20.25 14.2176C20.25 14.2176 20.25 14.2177 20.25 14.2177C20.25 14.2177 20.25 14.2178 20.25 14.2178C20.25 14.2178 20.25 14.2178 20.25 14.2179C20.25 14.2179 20.25 14.2179 20.25 14.218C20.25 14.218 20.25 14.218 20.25 14.218C20.25 14.2181 20.25 14.2181 20.25 14.2181C20.25 14.2182 20.25 14.2182 20.25 14.2182C20.25 14.2182 20.25 14.2183 20.25 14.2183C20.25 14.2183 20.25 14.2184 20.25 14.2184C20.25 14.2184 20.25 14.2184 20.25 14.2185C20.25 14.2185 20.25 14.2185 20.25 14.2186C20.25 14.2186 20.25 14.2186 20.25 14.2186C20.25 14.2187 20.25 14.2187 20.25 14.2187C20.25 14.2188 20.25 14.2188 20.25 14.2188C20.25 14.2188 20.25 14.2189 20.25 14.2189C20.25 14.2189 20.25 14.219 20.25 14.219C20.25 14.219 20.25 14.219 20.25 14.2191C20.25 14.2191 20.25 14.2191 20.25 14.2192C20.25 14.2192 20.25 14.2192 20.25 14.2192C20.25 14.2193 20.25 14.2193 20.25 14.2193C20.25 14.2194 20.25 14.2194 20.25 14.2194C20.25 14.2194 20.25 14.2195 20.25 14.2195C20.25 14.2195 20.25 14.2196 20.25 14.2196C20.25 14.2196 20.25 14.2196 20.25 14.2197C20.25 14.2197 20.25 14.2197 20.25 14.2198C20.25 14.2198 20.25 14.2198 20.25 14.2198C20.25 14.2199 20.25 14.2199 20.25 14.2199C20.25 14.22 20.25 14.22 20.25 14.22C20.25 14.22 20.25 14.2201 20.25 14.2201C20.25 14.2201 20.25 14.2202 20.25 14.2202C20.25 14.2202 20.25 14.2202 20.25 14.2203C20.25 14.2203 20.25 14.2203 20.25 14.2204C20.25 14.2204 20.25 14.2204 20.25 14.2204C20.25 14.2205 20.25 14.2205 20.25 14.2205C20.25 14.2206 20.25 14.2206 20.25 14.2206C20.25 14.2206 20.25 14.2207 20.25 14.2207C20.25 14.2207 20.25 14.2208 20.25 14.2208C20.25 14.2208 20.25 14.2208 20.25 14.2209C20.25 14.2209 20.25 14.2209 20.25 14.221C20.25 14.221 20.25 14.221 20.25 14.221C20.25 14.2211 20.25 14.2211 20.25 14.2211C20.25 14.2212 20.25 14.2212 20.25 14.2212C20.25 14.2212 20.25 14.2213 20.25 14.2213C20.25 14.2213 20.25 14.2214 20.25 14.2214C20.25 14.2214 20.25 14.2215 20.25 14.2215C20.25 14.2215 20.25 14.2215 20.25 14.2216C20.25 14.2216 20.25 14.2216 20.25 14.2217C20.25 14.2217 20.25 14.2217 20.25 14.2217C20.25 14.2218 20.25 14.2218 20.25 14.2218C20.25 14.2219 20.25 14.2219 20.25 14.2219C20.25 14.2219 20.25 14.222 20.25 14.222C20.25 14.222 20.25 14.2221 20.25 14.2221C20.25 14.2221 20.25 14.2221 20.25 14.2222C20.25 14.2222 20.25 14.2222 20.25 14.2223C20.25 14.2223 20.25 14.2223 20.25 14.2223C20.25 14.2224 20.25 14.2224 20.25 14.2224C20.25 14.2225 20.25 14.2225 20.25 14.2225C20.25 14.2225 20.25 14.2226 20.25 14.2226C20.25 14.2226 20.25 14.2227 20.25 14.2227C20.25 14.2227 20.25 14.2227 20.25 14.2228C20.25 14.2228 20.25 14.2228 20.25 14.2229C20.25 14.2229 20.25 14.2229 20.25 14.2229C20.25 14.223 20.25 14.223 20.25 14.223C20.25 14.2231 20.25 14.2231 20.25 14.2231C20.25 14.2231 20.25 14.2232 20.25 14.2232C20.25 14.2232 20.25 14.2233 20.25 14.2233C20.25 14.2233 20.25 14.2233 20.25 14.2234C20.25 14.2234 20.25 14.2234 20.25 14.2235C20.25 14.2235 20.25 14.2235 20.25 14.2235C20.25 14.2236 20.25 14.2236 20.25 14.2236C20.25 14.2237 20.25 14.2237 20.25 14.2237C20.25 14.2237 20.25 14.2238 20.25 14.2238C20.25 14.2238 20.25 14.2239 20.25 14.2239C20.25 14.2239 20.25 14.2239 20.25 14.224C20.25 14.224 20.25 14.224 20.25 14.2241C20.25 14.2241 20.25 14.2241 20.25 14.2241C20.25 14.2242 20.25 14.2242 20.25 14.2242C20.25 14.2243 20.25 14.2243 20.25 14.2243C20.25 14.2243 20.25 14.2244 20.25 14.2244C20.25 14.2244 20.25 14.2245 20.25 14.2245C20.25 14.2245 20.25 14.2245 20.25 14.2246C20.25 14.2246 20.25 14.2246 20.25 14.2247H20.75ZM20.25 10.25V14.1808H20.75V10.25H20.25ZM10.75 0.75C15.9967 0.75 20.25 5.00329 20.25 10.25H20.75C20.75 4.72715 16.2728 0.25 10.75 0.25V0.75ZM18.7333 13.2238C18.7495 13.4607 18.75 13.7703 18.75 14.25H19.25C19.25 13.7773 19.2497 13.4477 19.2321 13.1897L18.7333 13.2238ZM18.6739 12.8673C18.6911 12.9088 18.7177 12.9956 18.7333 13.2238L19.2321 13.1897C19.2148 12.9364 19.1825 12.7888 19.1358 12.676L18.6739 12.8673ZM18.1327 12.3261C18.3777 12.4276 18.5724 12.6223 18.6739 12.8673L19.1358 12.676C18.9836 12.3084 18.6916 12.0164 18.324 11.8642L18.1327 12.3261ZM17.7762 12.2667C18.0044 12.2823 18.0912 12.3089 18.1327 12.3261L18.324 11.8642C18.2112 11.8175 18.0636 11.7852 17.8103 11.7679L17.7762 12.2667ZM16.75 12.25C17.2297 12.25 17.5393 12.2505 17.7762 12.2667L17.8103 11.7679C17.5523 11.7503 17.2227 11.75 16.75 11.75V12.25ZM15.7238 12.2667C15.9607 12.2505 16.2703 12.25 16.75 12.25V11.75C16.2773 11.75 15.9477 11.7503 15.6897 11.7679L15.7238 12.2667ZM15.3673 12.3261C15.4088 12.3089 15.4956 12.2823 15.7238 12.2667L15.6897 11.7679C15.4364 11.7852 15.2888 11.8175 15.176 11.8642L15.3673 12.3261ZM14.8261 12.8673C14.9276 12.6223 15.1223 12.4276 15.3673 12.3261L15.176 11.8642C14.8084 12.0164 14.5164 12.3084 14.3642 12.676L14.8261 12.8673ZM14.7667 13.2238C14.7823 12.9956 14.8089 12.9088 14.8261 12.8673L14.3642 12.676C14.3175 12.7888 14.2852 12.9364 14.2679 13.1897L14.7667 13.2238ZM14.75 14.25C14.75 13.7703 14.7505 13.4607 14.7667 13.2238L14.2679 13.1897C14.2503 13.4477 14.25 13.7773 14.25 14.25H14.75ZM14.75 16.25V14.25H14.25V16.25H14.75ZM14.7667 17.2762C14.7505 17.0393 14.75 16.7297 14.75 16.25H14.25C14.25 16.7227 14.2503 17.0523 14.2679 17.3103L14.7667 17.2762ZM14.8261 17.6327C14.8089 17.5912 14.7823 17.5044 14.7667 17.2762L14.2679 17.3103C14.2852 17.5636 14.3175 17.7112 14.3642 17.824L14.8261 17.6327ZM15.3673 18.1739C15.1223 18.0724 14.9276 17.8777 14.8261 17.6327L14.3642 17.824C14.5164 18.1916 14.8084 18.4836 15.176 18.6358L15.3673 18.1739ZM15.7238 18.2333C15.4956 18.2177 15.4088 18.1911 15.3673 18.1739L15.176 18.6358C15.2888 18.6825 15.4364 18.7148 15.6897 18.7321L15.7238 18.2333ZM16.75 18.25C16.2703 18.25 15.9607 18.2495 15.7238 18.2333L15.6897 18.7321C15.9477 18.7497 16.2773 18.75 16.75 18.75V18.25ZM17.7762 18.2333C17.5393 18.2495 17.2297 18.25 16.75 18.25V18.75C17.2227 18.75 17.5523 18.7497 17.8103 18.7321L17.7762 18.2333ZM18.1327 18.1739C18.0912 18.1911 18.0044 18.2177 17.7762 18.2333L17.8103 18.7321C18.0636 18.7148 18.2112 18.6825 18.324 18.6358L18.1327 18.1739ZM18.6739 17.6327C18.5724 17.8777 18.3777 18.0724 18.1327 18.1739L18.324 18.6358C18.6916 18.4836 18.9836 18.1916 19.1358 17.824L18.6739 17.6327ZM18.7333 17.2762C18.7177 17.5044 18.6911 17.5912 18.6739 17.6327L19.1358 17.824C19.1825 17.7112 19.2148 17.5636 19.2321 17.3103L18.7333 17.2762ZM18.75 16.25C18.75 16.7297 18.7495 17.0393 18.7333 17.2762L19.2321 17.3103C19.2497 17.0523 19.25 16.7227 19.25 16.25H18.75ZM18.75 15.25V16.25H19.25V15.25H18.75ZM18.75 14.25V15.25H19.25V14.25H18.75ZM2.75 15.25L2.75 14.25H2.25L2.25 15.25H2.75ZM2.75 16.25V15.25H2.25V16.25H2.75ZM2.76671 17.2762C2.75054 17.0393 2.75 16.7297 2.75 16.25H2.25C2.25 16.7227 2.25027 17.0523 2.26787 17.3103L2.76671 17.2762ZM2.82612 17.6327C2.80892 17.5912 2.78228 17.5044 2.76671 17.2762L2.26787 17.3103C2.28515 17.5636 2.31746 17.7112 2.36418 17.824L2.82612 17.6327ZM3.36732 18.1739C3.12229 18.0724 2.92761 17.8777 2.82612 17.6327L2.36418 17.824C2.51642 18.1916 2.80843 18.4836 3.17597 18.6358L3.36732 18.1739ZM3.72376 18.2333C3.4956 18.2177 3.40884 18.1911 3.36732 18.1739L3.17598 18.6358C3.28876 18.6825 3.43643 18.7148 3.68973 18.7321L3.72376 18.2333ZM4.75 18.25C4.27027 18.25 3.96072 18.2495 3.72376 18.2333L3.68973 18.7321C3.9477 18.7497 4.27732 18.75 4.75 18.75V18.25ZM5.77624 18.2333C5.53929 18.2495 5.22973 18.25 4.75 18.25V18.75C5.22268 18.75 5.5523 18.7497 5.81028 18.7321L5.77624 18.2333ZM6.13269 18.1739C6.09117 18.1911 6.0044 18.2177 5.77624 18.2333L5.81028 18.7321C6.06357 18.7148 6.21124 18.6825 6.32403 18.6358L6.13269 18.1739ZM6.67388 17.6327C6.57239 17.8777 6.37771 18.0724 6.13268 18.1739L6.32403 18.6358C6.69157 18.4836 6.98358 18.1916 7.13582 17.824L6.67388 17.6327ZM6.73329 17.2762C6.71772 17.5044 6.69108 17.5912 6.67388 17.6327L7.13582 17.824C7.18254 17.7112 7.21485 17.5636 7.23213 17.3103L6.73329 17.2762ZM6.75 16.25C6.75 16.7297 6.74946 17.0393 6.73329 17.2762L7.23213 17.3103C7.24973 17.0523 7.25 16.7227 7.25 16.25H6.75ZM6.75 14.25V16.25H7.25V14.25H6.75ZM6.73329 13.2238C6.74946 13.4607 6.75 13.7703 6.75 14.25H7.25C7.25 13.7773 7.24973 13.4477 7.23213 13.1897L6.73329 13.2238ZM6.67388 12.8673C6.69108 12.9088 6.71772 12.9956 6.73329 13.2238L7.23213 13.1897C7.21485 12.9364 7.18254 12.7888 7.13582 12.676L6.67388 12.8673ZM6.13268 12.3261C6.37771 12.4276 6.57239 12.6223 6.67388 12.8673L7.13582 12.676C6.98358 12.3084 6.69157 12.0164 6.32403 11.8642L6.13268 12.3261ZM5.77624 12.2667C6.0044 12.2823 6.09116 12.3089 6.13268 12.3261L6.32403 11.8642C6.21124 11.8175 6.06357 11.7852 5.81028 11.7679L5.77624 12.2667ZM4.75 12.25C5.22973 12.25 5.53929 12.2505 5.77624 12.2667L5.81028 11.7679C5.5523 11.7503 5.22268 11.75 4.75 11.75V12.25ZM3.72376 12.2667C3.96072 12.2505 4.27027 12.25 4.75 12.25V11.75C4.27732 11.75 3.9477 11.7503 3.68973 11.7679L3.72376 12.2667ZM3.36732 12.3261C3.40884 12.3089 3.4956 12.2823 3.72376 12.2667L3.68972 11.7679C3.43643 11.7852 3.28876 11.8175 3.17597 11.8642L3.36732 12.3261ZM2.82612 12.8673C2.92762 12.6223 3.12229 12.4276 3.36732 12.3261L3.17598 11.8642C2.80843 12.0164 2.51642 12.3084 2.36418 12.676L2.82612 12.8673ZM2.76671 13.2238C2.78228 12.9956 2.80892 12.9088 2.82612 12.8673L2.36418 12.676C2.31746 12.7888 2.28515 12.9364 2.26787 13.1897L2.76671 13.2238ZM2.75 14.25C2.75 13.7703 2.75054 13.4607 2.76671 13.2238L2.26787 13.1897C2.25027 13.4477 2.25 13.7773 2.25 14.25H2.75Z" fill="black"/>
</svg>
