<svg width="21" height="21" viewBox="0 0 21 21" fill="none" xmlns="http://www.w3.org/2000/svg">
<path fill-rule="evenodd" clip-rule="evenodd" d="M2.5 9.75C2.5 5.74594 5.74594 2.5 9.75 2.5C13.7541 2.5 17 5.74594 17 9.75C17 13.7541 13.7541 17 9.75 17C5.74594 17 2.5 13.7541 2.5 9.75ZM9.75 1C4.91751 1 1 4.91751 1 9.75C1 14.5825 4.91751 18.5 9.75 18.5C11.8962 18.5 13.862 17.7273 15.3842 16.4449L18.2197 19.2803C18.5126 19.5732 18.9874 19.5732 19.2803 19.2803C19.5732 18.9874 19.5732 18.5126 19.2803 18.2197L16.4449 15.3842C17.7273 13.862 18.5 11.8962 18.5 9.75C18.5 4.91751 14.5825 1 9.75 1Z" fill="white"/>
<path d="M15.3842 16.4449L15.9146 15.9146C15.6392 15.6392 15.1988 15.6204 14.901 15.8713L15.3842 16.4449ZM18.2197 19.2803L17.6893 19.8107L17.6893 19.8107L18.2197 19.2803ZM19.2803 19.2803L19.8107 19.8107L19.8107 19.8107L19.2803 19.2803ZM19.2803 18.2197L19.8107 17.6893L19.8107 17.6893L19.2803 18.2197ZM16.4449 15.3842L15.8713 14.901C15.6204 15.1988 15.6392 15.6392 15.9146 15.9146L16.4449 15.3842ZM9.75 1.75C5.33172 1.75 1.75 5.33172 1.75 9.75H3.25C3.25 6.16015 6.16015 3.25 9.75 3.25V1.75ZM17.75 9.75C17.75 5.33172 14.1683 1.75 9.75 1.75V3.25C13.3399 3.25 16.25 6.16015 16.25 9.75H17.75ZM9.75 17.75C14.1683 17.75 17.75 14.1683 17.75 9.75H16.25C16.25 13.3399 13.3399 16.25 9.75 16.25V17.75ZM1.75 9.75C1.75 14.1683 5.33172 17.75 9.75 17.75V16.25C6.16015 16.25 3.25 13.3399 3.25 9.75H1.75ZM1.75 9.75C1.75 5.33172 5.33172 1.75 9.75 1.75V0.25C4.50329 0.25 0.25 4.50329 0.25 9.75H1.75ZM9.75 17.75C5.33172 17.75 1.75 14.1683 1.75 9.75H0.25C0.25 14.9967 4.50329 19.25 9.75 19.25V17.75ZM14.901 15.8713C13.5089 17.044 11.7129 17.75 9.75 17.75V19.25C12.0796 19.25 14.215 18.4105 15.8674 17.0185L14.901 15.8713ZM18.75 18.75L15.9146 15.9146L14.8539 16.9752L17.6893 19.8107L18.75 18.75ZM18.75 18.75H18.75L17.6893 19.8107C18.2751 20.3964 19.2249 20.3964 19.8107 19.8107L18.75 18.75ZM18.75 18.75V18.75L19.8107 19.8107C20.3964 19.2249 20.3964 18.2751 19.8107 17.6893L18.75 18.75ZM15.9146 15.9146L18.75 18.75L19.8107 17.6893L16.9752 14.8539L15.9146 15.9146ZM17.75 9.75C17.75 11.7129 17.044 13.5089 15.8713 14.901L17.0185 15.8674C18.4105 14.215 19.25 12.0796 19.25 9.75H17.75ZM9.75 1.75C14.1683 1.75 17.75 5.33172 17.75 9.75H19.25C19.25 4.50329 14.9967 0.25 9.75 0.25V1.75Z" fill="white"/>
</svg>
