<svg width="53" height="16" viewBox="0 0 53 16" fill="none" xmlns="http://www.w3.org/2000/svg">
<path d="M20.7861 9.81335H22.0303C22.1077 10.3283 22.3743 10.7385 22.8301 11.0438C23.2858 11.3492 23.8646 11.5018 24.5664 11.5018C25.2318 11.5018 25.7809 11.3423 26.2139 11.0233C26.6514 10.6997 26.8701 10.2941 26.8701 9.80652C26.8701 9.38725 26.7106 9.04089 26.3916 8.76746C26.0726 8.48946 25.5736 8.26388 24.8945 8.0907L23.6299 7.76257C22.7367 7.53927 22.0872 7.2157 21.6816 6.79187C21.276 6.36804 21.0732 5.80522 21.0732 5.10339C21.0732 4.26485 21.3923 3.58809 22.0303 3.07312C22.6729 2.55359 23.516 2.29382 24.5596 2.29382C25.512 2.29382 26.3096 2.54903 26.9521 3.05945C27.5947 3.56986 27.9411 4.22384 27.9912 5.02136H26.7539C26.6673 4.5155 26.4258 4.1213 26.0293 3.83875C25.6374 3.55164 25.1338 3.40808 24.5186 3.40808C23.8623 3.40808 23.3337 3.56075 22.9326 3.86609C22.5361 4.16687 22.3379 4.56563 22.3379 5.06238C22.3379 5.44975 22.4837 5.7642 22.7754 6.00574C23.0716 6.24727 23.5592 6.45463 24.2383 6.62781L25.2705 6.90125C26.2913 7.15645 27.0228 7.49825 27.4648 7.92664C27.9115 8.35502 28.1348 8.93152 28.1348 9.65613C28.1348 10.563 27.8021 11.2854 27.1367 11.8231C26.4714 12.3563 25.5758 12.6229 24.4502 12.6229C23.4066 12.6229 22.5498 12.3677 21.8799 11.8573C21.2145 11.3469 20.8499 10.6656 20.7861 9.81335ZM29.9035 12.3905V2.09558H31.0793V6.18347H31.1887C31.3755 5.76876 31.6604 5.44975 32.0432 5.22644C32.4305 5.00313 32.9022 4.89148 33.4582 4.89148C34.2421 4.89148 34.8618 5.13302 35.3176 5.61609C35.7733 6.0946 36.0012 6.76225 36.0012 7.61902V12.3905H34.8254V7.90613C34.8254 6.60274 34.258 5.95105 33.1232 5.95105C32.4761 5.95105 31.9725 6.14018 31.6125 6.51843C31.257 6.89213 31.0793 7.39571 31.0793 8.02917V12.3905H29.9035ZM43.4574 11.5018C42.8513 12.1809 42.0242 12.5204 40.976 12.5204C39.9278 12.5204 39.0984 12.1809 38.4877 11.5018C37.8816 10.8182 37.5785 9.88627 37.5785 8.70593C37.5785 7.52104 37.8816 6.58907 38.4877 5.91003C39.0938 5.231 39.9232 4.89148 40.976 4.89148C42.0287 4.89148 42.8581 5.231 43.4643 5.91003C44.0704 6.58907 44.3734 7.52104 44.3734 8.70593C44.3734 9.88627 44.0681 10.8182 43.4574 11.5018ZM39.3627 10.743C39.741 11.2216 40.2787 11.4608 40.976 11.4608C41.6732 11.4608 42.211 11.2216 42.5893 10.743C42.9675 10.26 43.1566 9.58093 43.1566 8.70593C43.1566 7.83093 42.9675 7.15417 42.5893 6.67566C42.211 6.19259 41.6732 5.95105 40.976 5.95105C40.2787 5.95105 39.741 6.19259 39.3627 6.67566C38.9844 7.15417 38.7953 7.83093 38.7953 8.70593C38.7953 9.58093 38.9844 10.26 39.3627 10.743ZM49.608 4.89148C50.5468 4.89148 51.2965 5.23783 51.857 5.93054C52.4221 6.62325 52.7047 7.54838 52.7047 8.70593C52.7047 9.85893 52.4221 10.7841 51.857 11.4813C51.2919 12.174 50.5423 12.5204 49.608 12.5204C49.0839 12.5204 48.6191 12.4133 48.2135 12.1991C47.8079 11.9803 47.5048 11.675 47.3043 11.2831H47.1949V14.8514H46.0191V5.02136H47.1402V6.25183H47.2496C47.4866 5.828 47.8124 5.49532 48.2271 5.25378C48.6464 5.01225 49.1067 4.89148 49.608 4.89148ZM49.3277 11.4608C50.0022 11.4608 50.5309 11.217 50.9137 10.7294C51.2965 10.2417 51.4879 9.56726 51.4879 8.70593C51.4879 7.8446 51.2965 7.17013 50.9137 6.6825C50.5354 6.19486 50.009 5.95105 49.3346 5.95105C48.6692 5.95105 48.1406 6.19942 47.7486 6.69617C47.3567 7.18835 47.1607 7.85828 47.1607 8.70593C47.1607 9.54903 47.3544 10.219 47.7418 10.7157C48.1337 11.2124 48.6624 11.4608 49.3277 11.4608Z" fill="#F9F9F9"/>
<path fill-rule="evenodd" clip-rule="evenodd" d="M0 0.390503C1.35358 0.390503 2.56555 1.18026 3.12458 2.38212H11.2532C13.0954 2.38212 14.4166 4.15789 13.8873 5.92232L13.3094 7.84839C12.8336 9.43457 11.3736 10.5208 9.7176 10.5208H6.86283C5.21656 10.5208 3.7628 9.44712 3.27865 7.87365L1.86049 3.26461C1.60917 2.44785 0.854552 1.8905 0 1.8905V0.390503ZM4.71232 7.43253L3.61989 3.88212H11.2532C12.0906 3.88212 12.6911 4.68929 12.4505 5.4913L11.8727 7.41736C11.5872 8.36908 10.7112 9.02083 9.7176 9.02083H6.86283C5.87506 9.02083 5.00281 8.37661 4.71232 7.43253ZM5.97485 12.5124C5.65577 12.5124 5.3971 12.7711 5.3971 13.0901C5.3971 13.4092 5.65577 13.6679 5.97485 13.6679C6.29393 13.6679 6.55259 13.4092 6.55259 13.0901C6.55259 12.7711 6.29393 12.5124 5.97485 12.5124ZM3.8971 13.0901C3.8971 11.9426 4.82734 11.0124 5.97485 11.0124C7.12235 11.0124 8.05259 11.9426 8.05259 13.0901C8.05259 14.2377 7.12235 15.1679 5.97485 15.1679C4.82734 15.1679 3.8971 14.2377 3.8971 13.0901ZM11.2858 12.5124C10.9667 12.5124 10.7081 12.7711 10.7081 13.0901C10.7081 13.4092 10.9667 13.6679 11.2858 13.6679C11.6049 13.6679 11.8636 13.4092 11.8636 13.0901C11.8636 12.7711 11.6049 12.5124 11.2858 12.5124ZM9.20807 13.0901C9.20807 11.9426 10.1383 11.0124 11.2858 11.0124C12.4333 11.0124 13.3636 11.9426 13.3636 13.0901C13.3636 14.2377 12.4333 15.1679 11.2858 15.1679C10.1383 15.1679 9.20807 14.2377 9.20807 13.0901Z" fill="white"/>
</svg>
