<svg width="15" height="16" viewBox="0 0 15 16" fill="none" xmlns="http://www.w3.org/2000/svg">
<path fill-rule="evenodd" clip-rule="evenodd" d="M0 0.390503C1.35358 0.390503 2.56555 1.18026 3.12458 2.38212H11.2532C13.0954 2.38212 14.4166 4.15789 13.8873 5.92232L13.3094 7.84839C12.8336 9.43457 11.3736 10.5208 9.7176 10.5208H6.86283C5.21656 10.5208 3.7628 9.44712 3.27865 7.87365L1.86049 3.26461C1.60917 2.44785 0.854552 1.8905 0 1.8905V0.390503ZM4.71232 7.43253L3.61989 3.88212H11.2532C12.0906 3.88212 12.6911 4.68929 12.4505 5.4913L11.8727 7.41736C11.5872 8.36908 10.7112 9.02083 9.7176 9.02083H6.86283C5.87506 9.02083 5.00281 8.37661 4.71232 7.43253ZM5.97485 12.5124C5.65577 12.5124 5.3971 12.7711 5.3971 13.0901C5.3971 13.4092 5.65577 13.6679 5.97485 13.6679C6.29393 13.6679 6.55259 13.4092 6.55259 13.0901C6.55259 12.7711 6.29393 12.5124 5.97485 12.5124ZM3.8971 13.0901C3.8971 11.9426 4.82734 11.0124 5.97485 11.0124C7.12235 11.0124 8.05259 11.9426 8.05259 13.0901C8.05259 14.2377 7.12235 15.1679 5.97485 15.1679C4.82734 15.1679 3.8971 14.2377 3.8971 13.0901ZM11.2858 12.5124C10.9667 12.5124 10.7081 12.7711 10.7081 13.0901C10.7081 13.4092 10.9667 13.6679 11.2858 13.6679C11.6049 13.6679 11.8636 13.4092 11.8636 13.0901C11.8636 12.7711 11.6049 12.5124 11.2858 12.5124ZM9.20807 13.0901C9.20807 11.9426 10.1383 11.0124 11.2858 11.0124C12.4333 11.0124 13.3636 11.9426 13.3636 13.0901C13.3636 14.2377 12.4333 15.1679 11.2858 15.1679C10.1383 15.1679 9.20807 14.2377 9.20807 13.0901Z" fill="white"/>
</svg>
