<svg width="63" height="19" viewBox="0 0 63 19" fill="none" xmlns="http://www.w3.org/2000/svg">
<path d="M18.8521 4.75263C19.0512 4.71306 19.1758 4.96094 19.0253 5.09711L12.5001 11L4.76223 18.0072C4.66266 18.0973 4.50427 18.0656 4.44704 17.9441L0.109058 8.73148C0.0536691 8.61385 0.123484 8.47547 0.25101 8.45012L18.8521 4.75263Z" fill="white"/>
<path d="M31.3266 6.12695H28.1273V15H26.8217V6.12695H23.6293V5.04688H31.3266V6.12695ZM35.4955 8.73828C35.3041 8.70638 35.0968 8.69043 34.8735 8.69043C34.044 8.69043 33.4812 9.04362 33.185 9.75V15H31.9204V7.60352H33.1508L33.1713 8.45801C33.586 7.7972 34.1739 7.4668 34.935 7.4668C35.1811 7.4668 35.3679 7.4987 35.4955 7.5625V8.73828ZM39.4321 15.1367C38.4295 15.1367 37.6138 14.8086 36.9848 14.1523C36.3559 13.4915 36.0415 12.6097 36.0415 11.5068V11.2744C36.0415 10.5407 36.1805 9.88672 36.4585 9.3125C36.741 8.73372 37.133 8.28255 37.6343 7.95898C38.1401 7.63086 38.687 7.4668 39.2749 7.4668C40.2365 7.4668 40.9839 7.78353 41.5171 8.41699C42.0503 9.05046 42.3169 9.95736 42.3169 11.1377V11.6641H37.3061C37.3244 12.3932 37.5363 12.9834 37.9419 13.4346C38.352 13.8812 38.8716 14.1045 39.5005 14.1045C39.9471 14.1045 40.3253 14.0133 40.6352 13.8311C40.9451 13.6488 41.2163 13.4072 41.4487 13.1064L42.2212 13.708C41.6014 14.6605 40.6717 15.1367 39.4321 15.1367ZM39.2749 8.50586C38.7645 8.50586 38.3361 8.69271 37.9897 9.06641C37.6434 9.43555 37.4292 9.95508 37.3471 10.625H41.0522V10.5293C41.0158 9.88672 40.8426 9.38997 40.5327 9.03906C40.2228 8.68359 39.8035 8.50586 39.2749 8.50586ZM44.8179 7.60352L44.8589 8.5332C45.424 7.82227 46.1623 7.4668 47.0737 7.4668C48.6369 7.4668 49.4253 8.34863 49.439 10.1123V15H48.1743V10.1055C48.1698 9.57227 48.0467 9.17806 47.8052 8.92285C47.5682 8.66764 47.1968 8.54004 46.6909 8.54004C46.2808 8.54004 45.9208 8.64941 45.6109 8.86816C45.301 9.08691 45.0594 9.37402 44.8862 9.72949V15H43.6216V7.60352H44.8179ZM50.8736 11.2402C50.8736 10.1055 51.1425 9.19401 51.6802 8.50586C52.218 7.81315 52.9221 7.4668 53.7925 7.4668C54.6584 7.4668 55.3443 7.76302 55.8502 8.35547V4.5H57.1148V15H55.9527L55.8912 14.207C55.3853 14.8268 54.6812 15.1367 53.7789 15.1367C52.9221 15.1367 52.2226 14.7858 51.6802 14.084C51.1425 13.3822 50.8736 12.4661 50.8736 11.3359V11.2402ZM52.1382 11.3838C52.1382 12.2223 52.3114 12.8786 52.6578 13.3525C53.0041 13.8265 53.4826 14.0635 54.0933 14.0635C54.8954 14.0635 55.481 13.7035 55.8502 12.9834V9.58594C55.4719 8.88867 54.8908 8.54004 54.107 8.54004C53.4872 8.54004 53.0041 8.7793 52.6578 9.25781C52.3114 9.73633 52.1382 10.445 52.1382 11.3838ZM62.4938 8.73828C62.3023 8.70638 62.095 8.69043 61.8717 8.69043C61.0423 8.69043 60.4794 9.04362 60.1832 9.75V15H58.9186V7.60352H60.149L60.1695 8.45801C60.5842 7.7972 61.1721 7.4668 61.9332 7.4668C62.1793 7.4668 62.3661 7.4987 62.4938 7.5625V8.73828Z" fill="white"/>
</svg>
