<svg width="44" height="13" viewBox="0 0 44 13" fill="none" xmlns="http://www.w3.org/2000/svg">
<path d="M0.911133 7.81335H2.15527C2.23275 8.32833 2.49935 8.73848 2.95508 9.04382C3.41081 9.34916 3.98958 9.50183 4.69141 9.50183C5.35677 9.50183 5.90592 9.34233 6.33887 9.02332C6.77637 8.69975 6.99512 8.29415 6.99512 7.80652C6.99512 7.38725 6.83561 7.04089 6.5166 6.76746C6.19759 6.48946 5.69857 6.26388 5.01953 6.0907L3.75488 5.76257C2.86165 5.53927 2.21224 5.2157 1.80664 4.79187C1.40104 4.36804 1.19824 3.80522 1.19824 3.10339C1.19824 2.26485 1.51725 1.58809 2.15527 1.07312C2.79785 0.553589 3.64095 0.293823 4.68457 0.293823C5.63704 0.293823 6.43457 0.549032 7.07715 1.05945C7.71973 1.56986 8.06608 2.22384 8.11621 3.02136H6.87891C6.79232 2.5155 6.55078 2.1213 6.1543 1.83875C5.76237 1.55164 5.25879 1.40808 4.64355 1.40808C3.9873 1.40808 3.45866 1.56075 3.05762 1.86609C2.66113 2.16687 2.46289 2.56563 2.46289 3.06238C2.46289 3.44975 2.60872 3.7642 2.90039 4.00574C3.19661 4.24727 3.68424 4.45463 4.36328 4.62781L5.39551 4.90125C6.41634 5.15645 7.14779 5.49825 7.58984 5.92664C8.03646 6.35502 8.25977 6.93152 8.25977 7.65613C8.25977 8.56303 7.92708 9.28536 7.26172 9.82312C6.59635 10.3563 5.70085 10.6229 4.5752 10.6229C3.53158 10.6229 2.6748 10.3677 2.00488 9.8573C1.33952 9.34688 0.974935 8.66557 0.911133 7.81335ZM13.749 2.89148C14.6878 2.89148 15.4375 3.23783 15.998 3.93054C16.5632 4.62325 16.8457 5.54838 16.8457 6.70593C16.8457 7.85893 16.5632 8.78406 15.998 9.48132C15.4329 10.174 14.6833 10.5204 13.749 10.5204C13.2249 10.5204 12.7601 10.4133 12.3545 10.1991C11.9489 9.98035 11.6458 9.67501 11.4453 9.28308H11.3359V12.8514H10.1602V3.02136H11.2812V4.25183H11.3906C11.6276 3.828 11.9535 3.49532 12.3682 3.25378C12.7874 3.01225 13.2477 2.89148 13.749 2.89148ZM13.4688 9.46082C14.1432 9.46082 14.6719 9.217 15.0547 8.72937C15.4375 8.24174 15.6289 7.56726 15.6289 6.70593C15.6289 5.8446 15.4375 5.17013 15.0547 4.6825C14.6764 4.19486 14.1501 3.95105 13.4756 3.95105C12.8102 3.95105 12.2816 4.19942 11.8896 4.69617C11.4977 5.18835 11.3018 5.85828 11.3018 6.70593C11.3018 7.54903 11.4954 8.21895 11.8828 8.7157C12.2747 9.21244 12.8034 9.46082 13.4688 9.46082ZM24.2012 9.50183C23.5951 10.1809 22.7679 10.5204 21.7197 10.5204C20.6715 10.5204 19.8421 10.1809 19.2314 9.50183C18.6253 8.81824 18.3223 7.88627 18.3223 6.70593C18.3223 5.52104 18.6253 4.58907 19.2314 3.91003C19.8376 3.231 20.667 2.89148 21.7197 2.89148C22.7725 2.89148 23.6019 3.231 24.208 3.91003C24.8141 4.58907 25.1172 5.52104 25.1172 6.70593C25.1172 7.88627 24.8118 8.81824 24.2012 9.50183ZM20.1064 8.74304C20.4847 9.22156 21.0225 9.46082 21.7197 9.46082C22.417 9.46082 22.9548 9.22156 23.333 8.74304C23.7113 8.25997 23.9004 7.58093 23.9004 6.70593C23.9004 5.83093 23.7113 5.15417 23.333 4.67566C22.9548 4.19259 22.417 3.95105 21.7197 3.95105C21.0225 3.95105 20.4847 4.19259 20.1064 4.67566C19.7282 5.15417 19.5391 5.83093 19.5391 6.70593C19.5391 7.58093 19.7282 8.25997 20.1064 8.74304ZM26.9629 10.3905V3.02136H28.084V4.11511H28.1934C28.3027 3.75509 28.5488 3.46114 28.9316 3.23328C29.3145 3.00541 29.7497 2.89148 30.2373 2.89148C30.4606 2.89148 30.6566 2.90287 30.8252 2.92566V4.10144C30.6657 4.05587 30.415 4.03308 30.0732 4.03308C29.5127 4.03308 29.0501 4.2017 28.6855 4.53894C28.321 4.87618 28.1387 5.30457 28.1387 5.8241V10.3905H26.9629ZM33.1973 1.11414H34.373V3.02136H36.0137V4.00574H34.373V8.17566C34.373 8.6086 34.4596 8.92306 34.6328 9.11902C34.806 9.31498 35.084 9.41296 35.4668 9.41296C35.6354 9.41296 35.8177 9.40385 36.0137 9.38562V10.3768C35.7539 10.4224 35.5238 10.4452 35.3232 10.4452C34.5622 10.4452 34.0176 10.2925 33.6895 9.98718C33.3613 9.68184 33.1973 9.17826 33.1973 8.47644V4.00574H32.0078V3.02136H33.1973V1.11414ZM37.4834 5.03796C37.4834 4.42729 37.7454 3.91687 38.2695 3.50671C38.7936 3.09656 39.4476 2.89148 40.2314 2.89148C41.0016 2.89148 41.6374 3.06921 42.1387 3.42468C42.64 3.78015 42.9294 4.26095 43.0068 4.86707H41.8447C41.7627 4.56628 41.5804 4.32931 41.2979 4.15613C41.0199 3.97839 40.6621 3.88953 40.2246 3.88953C39.7826 3.88953 39.4111 3.99207 39.1104 4.19714C38.8141 4.40222 38.666 4.66654 38.666 4.99011C38.666 5.24076 38.7686 5.4504 38.9736 5.61902C39.1833 5.78308 39.5068 5.91752 39.9443 6.02234L41.0791 6.29578C41.7809 6.4644 42.2982 6.70821 42.6309 7.02722C42.9681 7.34623 43.1367 7.76778 43.1367 8.29187C43.1367 8.94356 42.8564 9.47904 42.2959 9.89832C41.7354 10.313 41.0312 10.5204 40.1836 10.5204C39.3633 10.5204 38.6911 10.3381 38.167 9.97351C37.6429 9.60893 37.349 9.1213 37.2852 8.51062H38.4951C38.5954 8.82963 38.7936 9.08028 39.0898 9.26257C39.3861 9.44031 39.7643 9.52917 40.2246 9.52917C40.7214 9.52917 41.1292 9.42208 41.4482 9.20789C41.7673 8.99369 41.9268 8.71798 41.9268 8.38074C41.9268 7.87944 41.5371 7.53308 40.7578 7.34167L39.4932 7.03406C38.7959 6.86544 38.2855 6.6239 37.9619 6.30945C37.6429 5.99044 37.4834 5.56661 37.4834 5.03796Z" fill="#F9F9F9"/>
</svg>
