<svg width="31" height="14" viewBox="0 0 31 14" fill="none" xmlns="http://www.w3.org/2000/svg">
<path d="M0.11582 7.81335H1.35996C1.43743 8.32833 1.70404 8.73848 2.15977 9.04382C2.61549 9.34916 3.19427 9.50183 3.89609 9.50183C4.56146 9.50183 5.11061 9.34233 5.54355 9.02332C5.98105 8.69975 6.1998 8.29415 6.1998 7.80652C6.1998 7.38725 6.0403 7.04089 5.72129 6.76746C5.40228 6.48946 4.90325 6.26388 4.22422 6.0907L2.95957 5.76257C2.06634 5.53927 1.41693 5.2157 1.01133 4.79187C0.605729 4.36804 0.402929 3.80522 0.402929 3.10339C0.402929 2.26485 0.72194 1.58809 1.35996 1.07312C2.00254 0.553589 2.84564 0.293823 3.88926 0.293823C4.84173 0.293823 5.63926 0.549032 6.28184 1.05945C6.92441 1.56986 7.27077 2.22384 7.3209 3.02136H6.08359C5.997 2.5155 5.75547 2.1213 5.35898 1.83875C4.96706 1.55164 4.46348 1.40808 3.84824 1.40808C3.19199 1.40808 2.66335 1.56075 2.2623 1.86609C1.86582 2.16687 1.66758 2.56563 1.66758 3.06238C1.66758 3.44975 1.81341 3.7642 2.10508 4.00574C2.4013 4.24727 2.88893 4.45463 3.56797 4.62781L4.60019 4.90125C5.62103 5.15645 6.35247 5.49825 6.79453 5.92664C7.24115 6.35502 7.46445 6.93152 7.46445 7.65613C7.46445 8.56303 7.13177 9.28536 6.46641 9.82312C5.80104 10.3563 4.90553 10.6229 3.77988 10.6229C2.73626 10.6229 1.87949 10.3677 1.20957 9.8573C0.544205 9.34688 0.179622 8.66557 0.11582 7.81335ZM9.65703 1.11414H10.8328V3.02136H12.4734V4.00574H10.8328V8.17566C10.8328 8.6086 10.9194 8.92306 11.0926 9.11902C11.2658 9.31498 11.5437 9.41296 11.9266 9.41296C12.0952 9.41296 12.2775 9.40385 12.4734 9.38562V10.3768C12.2137 10.4224 11.9835 10.4452 11.783 10.4452C11.0219 10.4452 10.4773 10.2925 10.1492 9.98718C9.82109 9.68184 9.65703 9.17826 9.65703 8.47644V4.00574H8.46758V3.02136H9.65703V1.11414ZM14.6797 13.0565C14.4928 13.0565 14.3174 13.0428 14.1533 13.0155V12.0106C14.2718 12.0334 14.4359 12.0448 14.6455 12.0448C14.9873 12.0448 15.2585 11.9537 15.459 11.7714C15.6641 11.5891 15.8441 11.2769 15.999 10.8348L16.1357 10.3973L13.4082 3.02136H14.6797L16.7031 9.08484H16.8125L18.8291 3.02136H20.0801L17.2021 10.8417C16.8877 11.6939 16.5527 12.2749 16.1973 12.5848C15.8418 12.8993 15.3359 13.0565 14.6797 13.0565ZM21.5207 10.3905V0.0955811H22.6965V10.3905H21.5207ZM27.7191 3.93054C27.1313 3.93054 26.6482 4.12878 26.2699 4.52527C25.8917 4.92175 25.6798 5.44584 25.6342 6.09753H29.6947C29.6811 5.44584 29.4942 4.92175 29.1342 4.52527C28.7742 4.12878 28.3025 3.93054 27.7191 3.93054ZM29.6605 8.48328H30.8363C30.6586 9.1213 30.2963 9.62032 29.7494 9.98035C29.2071 10.3404 28.5349 10.5204 27.7328 10.5204C26.712 10.5204 25.9031 10.1786 25.3061 9.495C24.709 8.80684 24.4105 7.87944 24.4105 6.71277C24.4105 5.55066 24.7113 4.62325 25.3129 3.93054C25.9145 3.23783 26.7211 2.89148 27.7328 2.89148C28.7263 2.89148 29.5079 3.22188 30.0775 3.88269C30.6472 4.5435 30.932 5.44812 30.932 6.59656V7.04773H25.6342V7.10242C25.6661 7.83158 25.8712 8.41036 26.2494 8.83875C26.6322 9.26713 27.1358 9.48132 27.7602 9.48132C28.7126 9.48132 29.3461 9.14864 29.6605 8.48328Z" fill="#F9F9F9"/>
</svg>
